<?xml version="1.0" encoding="UTF-8" standalone="no"?>
<!-- Created with Inkscape (http://www.inkscape.org/) -->

<svg
   xmlns:dc="http://purl.org/dc/elements/1.1/"
   xmlns:cc="http://creativecommons.org/ns#"
   xmlns:rdf="http://www.w3.org/1999/02/22-rdf-syntax-ns#"
   xmlns:svg="http://www.w3.org/2000/svg"
   xmlns="http://www.w3.org/2000/svg"
   xmlns:sodipodi="http://sodipodi.sourceforge.net/DTD/sodipodi-0.dtd"
   xmlns:inkscape="http://www.inkscape.org/namespaces/inkscape"
   version="1.1"
   id="svg61"
   width="428.79999"
   height="546.1333"
   viewBox="0 0 428.79999 546.1333"
   sodipodi:docname="bonus-icon-3.svg"
   inkscape:version="0.92.4 (unknown)">
  <path
     style="stroke-width:1.0666666"
     d="M 0,273.06665 V 0 h 148.01157 148.01157 l 66.38841,66.41999 66.38843,66.41999 V 339.48664 546.1333 H 214.39999 0 Z m 409.59998,64 V 146.13332 H 346.13332 282.66665 V 82.13333 18.13334 H 150.93333 19.2 v 254.93331 254.93332 h 195.19999 195.19999 z m -302.93328,80.9505 c -3.3333,-1.30946 -20.929,-18.56284 -23.0774,-22.62836 -2.2637,-4.28374 -0.9753,-8.92919 3.1792,-11.4624 4.9289,-3.00544 6.6306,-2.60449 12.7623,3.00692 3.045,2.78667 6.8172,6.19359 8.3826,7.57094 l 2.8461,2.50428 19.8474,-15.83761 c 10.91602,-8.71069 21.29863,-16.27379 23.07243,-16.80689 5.77091,-1.73441 11.81819,4.9866 10.21915,11.35768 -0.95148,3.791 -50.73388,43.78153 -54.03178,43.40408 -0.2934,-0.0336 -1.7334,-0.53246 -3.2,-1.10864 z m 69.81815,-11.03536 c -1.80765,-1.80764 -2.61819,-3.80396 -2.61819,-6.44848 0,-2.64452 0.81054,-4.64084 2.61819,-6.44848 l 2.61817,-2.61819 h 76.36363 76.36364 l 2.61817,2.61819 c 3.56214,3.56213 3.56214,9.33483 0,12.89696 l -2.61817,2.61818 H 255.46665 179.10302 Z M 106.1333,317.70476 c -4.4511,-2.42799 -22.8645,-21.62982 -23.4951,-24.50125 -0.731,-3.32789 1.7027,-8.86112 4.3429,-9.87427 5.2589,-2.01801 8.3509,-0.74308 15.5687,6.41942 4.1653,4.13336 7.7294,6.83707 8.5601,6.49371 0.7829,-0.32356 9.3434,-6.93406 19.0234,-14.68997 9.68003,-7.75592 18.70613,-14.83039 20.05802,-15.72106 7.47617,-4.92547 16.61752,2.56935 13.39056,10.97867 -0.68159,1.77618 -45.84088,38.55502 -50.21378,40.8953 -2.8169,1.50756 -4.4702,1.50743 -7.2348,-5.5e-4 z m 70.35155,-10.98963 c -1.80765,-1.80764 -2.61819,-3.80396 -2.61819,-6.44848 0,-2.64452 0.81054,-4.64084 2.61819,-6.44848 l 2.61817,-2.61819 74.98182,0.0145 c 41.24,0.009 76.08103,0.30902 77.42453,0.66892 2.81455,0.75395 5.55728,5.41559 5.55728,9.44536 0,1.52248 -1.17819,3.9463 -2.61819,5.3863 l -2.61817,2.61824 H 255.46665 179.10302 Z M 94.8246,207.31135 C 82.8438,195.50521 80.8645,192.10683 83.3032,187.52922 c 1.9311,-3.62488 4.2579,-5.05722 8.2772,-5.09531 3.0028,-0.0285 4.8093,1.15503 11.2,7.33768 l 7.6196,7.3716 20.62773,-16.43826 c 17.64143,-14.05848 21.16157,-16.43827 24.31514,-16.43827 6.67224,0 10.96111,7.00015 7.85024,12.81286 -1.11209,2.07797 -45.66961,38.19993 -49.78961,40.36359 -4.8455,2.54458 -6.7927,1.48268 -18.5789,-10.13176 z m 81.66025,-0.86288 c -2.57655,-2.57654 -3.37952,-6.95665 -1.9556,-10.66736 1.84884,-4.81802 2.34532,-4.84779 80.83425,-4.84779 52.06102,0 74.91006,0.35264 76.73534,1.18429 5.26753,2.40005 6.5371,10.14339 2.34962,14.33086 l -2.61817,2.61818 h -76.36364 -76.36363 z m 219.24846,-79.7863 c 0,-0.14914 -21.36,-21.62712 -47.46666,-47.72884 L 300.79998,31.47566 v 47.72883 47.72884 h 47.46667 c 26.10666,0 47.46666,-0.12203 47.46666,-0.27116 z"
     id="path164"
     inkscape:connector-curvature="0" />
</svg>
