<?xml version="1.0" encoding="UTF-8" standalone="no"?>
<!-- Created with Inkscape (http://www.inkscape.org/) -->

<svg
   xmlns:dc="http://purl.org/dc/elements/1.1/"
   xmlns:cc="http://creativecommons.org/ns#"
   xmlns:rdf="http://www.w3.org/1999/02/22-rdf-syntax-ns#"
   xmlns:svg="http://www.w3.org/2000/svg"
   xmlns="http://www.w3.org/2000/svg"
   xmlns:sodipodi="http://sodipodi.sourceforge.net/DTD/sodipodi-0.dtd"
   xmlns:inkscape="http://www.inkscape.org/namespaces/inkscape"
   version="1.1"
   id="svg81"
   width="511.52225"
   height="511.59195"
   viewBox="0 0 511.52225 511.59195"
   sodipodi:docname="bonus-icon-2.svg"
   inkscape:version="0.92.4 (unknown)">
  <metadata
     id="metadata87">
    <rdf:RDF>
      <cc:Work
         rdf:about="">
        <dc:format>image/svg+xml</dc:format>
        <dc:type
           rdf:resource="http://purl.org/dc/dcmitype/StillImage" />
        <dc:title></dc:title>
      </cc:Work>
    </rdf:RDF>
  </metadata>
  <defs
     id="defs85" />
  <sodipodi:namedview
     pagecolor="#ffffff"
     bordercolor="#666666"
     borderopacity="1"
     objecttolerance="10"
     gridtolerance="10"
     guidetolerance="10"
     inkscape:pageopacity="0"
     inkscape:pageshadow="2"
     inkscape:window-width="1920"
     inkscape:window-height="1007"
     id="namedview83"
     showgrid="false"
     inkscape:zoom="0.4609375"
     inkscape:cx="950.2375"
     inkscape:cy="255.91647"
     inkscape:window-x="0"
     inkscape:window-y="24"
     inkscape:window-maximized="1"
     inkscape:current-layer="svg81" />
  <path
     style="fill:red"
     d="m 172.50021,509.77455 c -1.65,-1.0414 -11.99578,-10.93972 -22.99062,-21.99626 L 129.51896,467.67548 H 96.71743 c -38.4783,0 -43.23196,-0.63216 -57.71722,-7.67546 -7.94167,-3.86156 -10.91113,-6.03041 -18.10263,-13.22191 -7.14003,-7.14004 -9.39653,-10.21779 -13.2721697,-18.10263 -7.77601003,-15.81997 -7.62520002749,-13.68398 -7.62520002749,-108 0,-94.31602 -0.15081000251,-92.18003 7.62520002749,-108 3.8756397,-7.88484 6.1321397,-10.96259 13.2721697,-18.10263 7.14004,-7.14004 10.21779,-9.39653 18.10263,-13.27217 15.19282,-7.46775 16.83527,-7.6252 79.54092,-7.6252 40.01967,0 55.05685,0.31524 56.98702,1.19469 2.866,1.30583 5.47206,5.49935 5.47206,8.80531 0,3.30596 -2.60606,7.49948 -5.47206,8.80531 -1.92929,0.87905 -16.86371,1.19469 -56.52577,1.19469 -35.48946,0 -55.71401,0.37751 -59.20295,1.10508 -18.74057,3.90811 -34.78603,19.95357 -38.69413,38.69414 -1.54135,7.39124 -1.54135,167.01032 0,174.40156 3.90682,18.73446 19.83647,34.65443 38.69413,38.67062 3.37089,0.71791 18.47234,1.13417 41.5,1.14391 20.15452,0.009 36.86567,0.42168 37.70078,0.93208 0.825,0.50422 7.68077,7.13482 15.23505,14.73468 l 13.73505,13.81793 0.0149,-10.79966 c 0.0165,-11.94603 1.13807,-15.52415 5.48701,-17.50565 1.93565,-0.88193 17.65019,-1.19469 60.02582,-1.19469 38.04467,0 59.19086,-0.37268 62.70295,-1.10508 13.65592,-2.84777 28.38518,-14.0356 34.09177,-25.89492 5.40375,-11.22996 5.70745,-14.19699 5.70745,-55.75976 0,-41.5858 0.12429,-42.60895 5.47206,-45.04555 5.13104,-2.33786 10.72299,-0.65198 13.10294,3.95034 2.1507,4.159 2.06537,76.70921 -0.10309,87.64713 -4.33292,21.85557 -21.03328,42.12083 -41.97191,50.93132 -11.65443,4.90391 -16.77113,5.27652 -72.45784,5.27652 h -52.04216 v 17.95295 c 0,19.51317 -0.57357,22.25805 -5.14503,24.62205 -3.72563,1.92659 -6.7701,1.78667 -10.35497,-0.47593 z M 59.11028,384.27997 c -6.70189,-3.71457 -6.48197,-14.29149 0.36199,-17.4098 1.96974,-0.89748 24.62316,-1.19469 91.05922,-1.19469 h 88.43717 l 3.24305,2.89766 c 2.68376,2.39795 3.24305,3.62279 3.24305,7.10234 0,3.47955 -0.55929,4.70439 -3.24305,7.10234 l -3.24305,2.89766 -88.73423,-0.0354 c -71.733,-0.0286 -89.19212,-0.28923 -91.12415,-1.36007 z m 211,0 c -8.6694,-4.80508 -5.04242,-18.60449 4.88993,-18.60449 5.06687,0 10,4.88542 10,9.90329 0,7.50742 -8.29653,12.35565 -14.88993,8.7012 z m -211,-56 c -6.70189,-3.71457 -6.48197,-14.29149 0.36199,-17.4098 1.98094,-0.90258 28.90705,-1.19469 110.12465,-1.19469 91.0875,0 107.92338,0.21759 110.25826,1.425 6.6552,3.44154 6.6552,13.70846 0,17.15 -3.95971,2.04764 -217.05235,2.07612 -220.7449,0.0295 z m 364.38476,-22.63397 -20.11647,-20.02948 -6.43918,1.47977 c -15.15789,3.4834 -47.82135,4.68101 -69.08323,2.53294 -24.60748,-2.48608 -45.80268,-9.97162 -66.35595,-23.43503 -32.23604,-21.1162 -54.33265,-53.84951 -62.66508,-92.83031 -2.97015,-13.895 -3.18873,-39.63419 -0.46016,-54.18841 5.63297,-30.046347 18.70328,-54.720235 40.55682,-76.562404 21.81498,-21.803633 46.6314,-34.9503624 76.56842,-40.5628385 14.58132,-2.73365 62.41868,-2.73365 77,0 30.04634,5.6329715 54.72023,18.7032835 76.5624,40.5568205 21.80363,21.814982 34.95036,46.631398 40.56284,76.568422 2.52582,13.47277 2.52965,39.24616 0.008,51.96372 -6.323,31.88546 -23.00682,61.78343 -45.54961,81.62641 l -6.08363,5.35479 v 29.8272 c 0,24.64806 -0.26225,30.33434 -1.51035,32.7479 -1.89038,3.65559 -4.31532,4.97998 -9.11825,4.97998 -3.55207,0 -4.87299,-1.10808 -23.87657,-20.02948 z m 21.00517,-62.27083 c 24.45496,-20.77792 38.72438,-44.09795 45.09651,-73.69969 2.51418,-11.67965 2.56381,-37.1619 0.095,-48.7654 C 484.36855,95.891365 472.76543,74.376386 455.03236,56.643322 435.97322,37.58418 411.46132,25.107618 385.34141,21.170612 c -13.26726,-1.999749 -49.41514,-1.999749 -62.6824,0 -26.11991,3.937006 -50.63181,16.413568 -69.69095,35.47271 -25.04891,25.048908 -38.12591,58.262058 -36.62952,93.032158 1.07024,24.86801 7.47468,44.51413 21.26296,65.22574 15.38283,23.10681 39.53086,41.13558 66.39871,49.57286 16.06322,5.04432 22.04955,5.70675 51,5.64354 24.01659,-0.0524 27.43714,-0.27449 36.5,-2.36948 5.5,-1.2714 11.94407,-2.53069 14.32016,-2.79842 l 4.32016,-0.48679 13.67984,13.58079 13.67984,13.58078 0.5,-21.57575 0.5,-21.57574 z M 349.92329,222.7524 c -2.11728,-2.11728 -2.92308,-3.88797 -2.92308,-6.42327 0,-4.11675 3.72071,-9.11575 7.48863,-10.06144 3.89054,-0.97646 9.24845,1.78859 11.13608,5.74699 4.76227,9.98658 -7.83678,18.60258 -15.70163,10.73772 z m 2.45986,-37.61999 c -4.75009,-2.40466 -5.38294,-4.95445 -5.38294,-21.68826 0,-13.38159 0.24601,-15.64542 2.12115,-19.51893 2.34593,-4.84604 7.05577,-8.41417 13.63643,-10.33082 2.34166,-0.68202 6.11529,-2.83017 8.38583,-4.77367 10.45919,-8.95267 10.49681,-23.94035 0.0837,-33.328707 -7.08618,-6.388784 -15.61641,-7.465632 -24.29161,-3.066547 -7.02514,3.562366 -10.60038,8.675744 -12.06109,17.250004 -1.45116,8.51824 -4.47597,12 -10.42514,12 -4.63629,0 -9.06896,-3.36623 -9.64806,-7.32689 -0.67201,-4.59613 1.22708,-14.856762 3.72838,-20.144073 13.73871,-29.041253 53.86235,-32.775241 72.50072,-6.747065 16.08743,22.465848 6.35711,54.894808 -19.19417,63.969818 l -4.69227,1.66655 -0.32193,13.77095 c -0.30741,13.14936 -0.43478,13.88361 -2.82194,16.26661 -3.25389,3.24824 -7.65563,4.00643 -11.61706,2.00103 z M 59.11028,272.27997 c -6.70189,-3.71457 -6.48197,-14.29149 0.36199,-17.4098 1.95834,-0.89228 21.58277,-1.19469 77.52794,-1.19469 55.94517,0 75.56961,0.30241 77.52794,1.19469 2.866,1.30583 5.47206,5.49935 5.47206,8.80531 0,3.30596 -2.60606,7.49948 -5.47206,8.80531 -4.01586,1.82975 -152.09951,1.63841 -155.41787,-0.20082 z"
     id="path122"
     inkscape:connector-curvature="0" />
</svg>
