<?xml version="1.0" encoding="UTF-8" standalone="no"?>
<!-- Created with Inkscape (http://www.inkscape.org/) -->

<svg
   xmlns:dc="http://purl.org/dc/elements/1.1/"
   xmlns:cc="http://creativecommons.org/ns#"
   xmlns:rdf="http://www.w3.org/1999/02/22-rdf-syntax-ns#"
   xmlns:svg="http://www.w3.org/2000/svg"
   xmlns="http://www.w3.org/2000/svg"
   xmlns:sodipodi="http://sodipodi.sourceforge.net/DTD/sodipodi-0.dtd"
   xmlns:inkscape="http://www.inkscape.org/namespaces/inkscape"
   version="1.1"
   id="svg91"
   width="546.0274"
   height="392.05756"
   viewBox="0 0 546.0274 392.05756"
   sodipodi:docname="bonus-icon-1.svg"
   inkscape:version="0.92.4 (unknown)">
  <path
     style="stroke-width:1.0666666;"
     d="M 6.6399467,390.54274 C -0.69838334,387.35072 -0.15585334,402.37216 0.14985666,210.846 l 0.27625,-173.065024 2.99281004,-2.57424 c 2.92974,-2.51999 3.40745,-2.57424 22.6666703,-2.57424 h 19.67385 l 0.006,-5.6 c 0.008,-7.173238 1.57549,-12.769903 4.25733,-15.196933 2.33507,-2.1132124 18.2392,-5.9137664 35.42747,-8.4659784 37.755583,-5.606163 72.879643,-4.22528399 106.975923,4.205688 27.00253,6.6769054 54.26983,20.9638634 72.37017,37.9190334 l 7.51499,7.039542 10.06973,-8.466412 C 310.67834,20.275684 342.87313,7.0464196 385.77042,1.5833896 c 14.58735,-1.85771999 49.07224,-1.59526599 65.3595,0.497429 14.0229,1.801756 36.98398,6.194978 41.60672,7.9607564 4.62253,1.765697 5.78917,4.228044 6.35616,13.415571 l 0.53334,8.64202 19.73333,0.5438 c 10.85333,0.2991 20.59108,0.95727 21.63945,1.4626 5.24688,2.52911 5.02719,-5.2782 5.02719,178.658774 V 384.4688 l -2.65498,3.15525 c -4.11442,4.88972 -7.23376,4.92572 -17.61169,0.20324 -45.68076,-20.78703 -94.57532,-30.88966 -149.63032,-30.91672 -31.10095,-0.0152 -60.0762,3.10762 -89.55836,9.65248 -12.00376,2.66476 -14.78409,2.61098 -30.16838,-0.58351 -33.9673,-7.05317 -61.49188,-9.59461 -95.21738,-8.79174 -50.8928,1.21155 -94.040553,10.47345 -138.565293,29.7438 -6.56687,2.84215 -12.08687,5.14876 -12.26667,5.1258 -0.1798,-0.0229 -1.8506703,-0.70457 -3.7130603,-1.51466 z M 39.019887,357.40812 c 16.84177,-6.36461 52.67201,-14.98127 78.404933,-18.85528 12.99862,-1.95689 20.18278,-2.31005 48.33462,-2.37611 18.18666,-0.0427 35.94666,0.27803 39.46666,0.71268 15.66481,1.93425 -6.52226,-4.27648 -29.93243,-8.37886 -27.57704,-4.83257 -68.91089,-4.7631 -107.388833,0.18048 -11.24463,1.44469 -12.84553,1.44104 -15.70171,-0.036 -1.74925,-0.90456 -3.67468,-2.56814 -4.27874,-3.69684 -0.73661,-1.37633 -1.09828,-46.33432 -1.09828,-136.52224 V 53.965828 h -12.8 -12.8 V 209.15026 364.33469 l 5.6,-2.21738 c 3.08,-1.21955 8.5672,-3.33869 12.19378,-4.70919 z m 485.914843,-152.77575 0.29135,-150.666762 -12.53333,10e-5 -12.53333,1.2e-4 V 186.80009 c 0,146.95279 0.38492,138.84337 -6.73154,141.81682 -3.09173,1.29181 -5.12066,1.29789 -14.17173,0.0425 -20.76169,-2.87969 -43.70707,-4.04197 -68.33893,-3.46167 -26.10265,0.61495 -38.23715,2.07899 -59.90424,7.22752 -13.63377,3.23966 -20.89744,5.96471 -11.92022,4.47203 2.64,-0.43897 20.16,-0.78069 38.93333,-0.75939 37.73158,0.0428 46.86292,0.9095 77.86666,7.39069 21.28803,4.45016 40.10915,9.78184 56,15.86378 l 12.26666,4.69485 0.24199,-4.39403 c 0.1331,-2.41671 0.3731,-72.19407 0.53333,-155.0608 z M 256.16366,67.513598 c -20.5891,-20.98631 -51.69654,-36.326922 -86.15771,-42.488632 -12.05736,-2.15588 -17.2922,-2.475196 -40.51318,-2.471251 -25.931,0.0044 -40.086273,1.215421 -57.333333,4.905001 l -5.06667,1.08389 V 167.80108 307.05953 l 5.6,-0.64412 c 32.357343,-3.72189 75.814373,-3.59504 101.319033,0.29572 30.14532,4.59871 55.46554,12.45784 77.09045,23.9281 l 10.65718,5.65277 0.27089,-131.26123 0.27088,-131.261222 z m 68.5291,250.139982 c 19.88343,-6.34158 41.93904,-10.86687 63.31301,-12.99033 16.11661,-1.60116 52.73087,-1.34141 72.07012,0.51126 9.23584,0.88479 17.23294,1.33646 17.77131,1.00372 0.58591,-0.36211 0.97888,-56.043 0.97888,-138.69823 V 29.386756 l -2.4,-1.00076 c -1.32,-0.55041 -6.96,-1.72585 -12.53333,-2.61206 -42.05944,-6.687902 -82.92537,-4.58916 -114.66666,5.88891 -22.6121,7.46443 -50.92471,24.756232 -61.59999,37.621892 l -4,4.82073 V 205.23106 336.35664 l 15.2,-7.65053 c 8.35999,-4.20778 19.99999,-9.18142 25.86666,-11.05253 z"
     id="path101"
     inkscape:connector-curvature="0" />
</svg>
