<?xml version="1.0" encoding="UTF-8" standalone="no"?>
<!-- Created with Inkscape (http://www.inkscape.org/) -->

<svg
   xmlns:dc="http://purl.org/dc/elements/1.1/"
   xmlns:cc="http://creativecommons.org/ns#"
   xmlns:rdf="http://www.w3.org/1999/02/22-rdf-syntax-ns#"
   xmlns:svg="http://www.w3.org/2000/svg"
   xmlns="http://www.w3.org/2000/svg"
   xmlns:sodipodi="http://sodipodi.sourceforge.net/DTD/sodipodi-0.dtd"
   xmlns:inkscape="http://www.inkscape.org/namespaces/inkscape"
   version="1.1"
   id="svg71"
   width="454.50681"
   height="546.1333"
   viewBox="0 0 454.5068 546.1333"
   sodipodi:docname="bonus-icon-4.svg"
   inkscape:version="0.92.4 (unknown)">
  <path
     style="stroke-width:1.0666666"
     d="m 2.6715975,543.51511 c -1.80765,-1.80763 -2.61818,-3.80395 -2.61818,-6.44848 0,-2.64452 0.81053,-4.64084 2.61818,-6.44848 2.5398,-2.5398 3.08268,-2.61818 18.1333305,-2.61818 h 15.51515 V 509.86664 491.7333 h 22.400009 22.4 v -46.16131 c 0,-25.632 0.49429,-50.10342 1.11145,-55.02535 2.20071,-17.55098 10.85179,-34.8766 22.837933,-45.7378 3.08067,-2.79154 27.98246,-19.95553 55.3373,-38.14219 27.35483,-18.18667 49.73607,-33.30667 49.73607,-33.6 0,-0.29333 -22.3475,-15.41204 -49.66111,-33.59714 -27.31359,-18.18509 -52.20023,-35.32689 -55.30361,-38.09288 -11.967253,-10.66625 -20.736682,-28.16565 -22.946583,-45.78997 -0.61716,-4.92193 -1.11145,-29.39335 -1.11145,-55.02535 V 54.399997 h -22.4 -22.400009 V 36.266664 18.133332 h -15.51515 c -15.0506505,0 -15.5935305,-0.07839 -18.1333305,-2.618181 -3.56213,-3.562134 -3.56213,-9.334836 0,-12.896969 L 5.2897775,0 H 227.25341 449.21703 l 2.61818,2.618182 c 3.56213,3.562133 3.56213,9.334835 0,12.896969 -2.5398,2.539797 -3.08268,2.618181 -18.13333,2.618181 h -15.51515 v 18.133332 18.133333 h -22.4 -22.4 v 46.161313 c 0,25.632 -0.49429,50.10342 -1.11145,55.02535 -2.19819,17.5309 -10.83409,34.84065 -22.81876,45.7378 -3.07014,2.79154 -27.97148,19.95553 -55.33632,38.14219 -27.36484,18.18667 -49.75172,33.30667 -49.74863,33.6 0.003,0.29333 22.39441,15.41333 49.75848,33.6 27.36406,18.18666 52.26287,35.35065 55.33069,38.14219 11.98437,10.90512 20.61691,28.21133 22.81454,45.7378 0.61716,4.92193 1.11145,29.39335 1.11145,55.02535 v 46.16131 h 22.4 22.4 v 18.13334 18.13333 h 15.51515 c 15.05065,0 15.59353,0.0784 18.13333,2.61818 3.56213,3.56214 3.56213,9.33483 0,12.89696 l -2.61818,2.61819 H 227.25341 5.2897775 Z M 400.0534,518.9333 v -9.06666 H 227.25341 54.453418 v 9.06666 9.06667 H 227.25341 400.0534 Z m -45.86666,-78.20639 c 0,-43.81327 -0.24255,-51.82344 -1.71994,-56.8 -2.81683,-9.48852 -7.77482,-18.14418 -13.67396,-23.87201 -5.34969,-5.19432 -109.16285,-75.25492 -111.50993,-75.25492 -2.34907,0 -106.21921,70.06265 -111.56783,75.25492 -5.89995,5.72748 -10.8579,14.38238 -13.67506,23.87201 -1.47739,4.97656 -1.71994,12.98673 -1.71994,56.8 v 51.00639 h 126.93333 126.93333 z m -33.50519,-8.80878 c -2.6474,-3.14626 -2.76148,-3.83069 -2.76148,-16.56758 0,-14.28535 -1.01006,-18.43231 -5.46253,-22.42735 -1.3956,-1.25223 -12.67203,-9.01552 -25.05872,-17.25177 -12.38667,-8.23624 -22.82667,-15.77095 -23.19999,-16.74379 -2.15229,-5.60877 2.63749,-13.32766 8.27017,-13.32766 3.60816,0 48.91364,30.20405 54.37808,36.25253 7.43632,8.23112 8.59904,12.22331 9.01618,30.957 0.34788,15.62303 0.24049,16.70543 -1.9315,19.46667 -3.37913,4.29587 -9.47275,4.13121 -13.25021,-0.35805 z M 280.83958,226.39999 c 28.82211,-19.21334 54.90108,-37.35805 57.95326,-40.32159 5.89914,-5.72783 10.85713,-14.38349 13.67396,-23.87201 1.47739,-4.97656 1.71994,-12.98673 1.71994,-56.8 V 54.399997 H 227.25341 100.32008 v 51.006393 c 0,43.81327 0.24255,51.82344 1.71994,56.8 2.92593,9.85602 7.84115,18.27561 14.1619,24.2588 6.00007,5.67963 108.2284,74.66379 110.84266,74.79715 0.76515,0.039 24.9729,-15.64902 53.795,-34.86235 z M 178.19027,207.20584 c -5.16271,-2.02348 -49.19907,-32.77347 -51.78003,-36.15727 -6.44412,-8.44868 -7.90365,-14.26922 -7.9315,-31.63039 -0.0246,-15.34979 0.0464,-15.85349 2.59286,-18.4 3.66994,-3.66995 8.41893,-3.47851 12.3972,0.49976 3.11388,3.11389 3.11795,3.13533 3.11795,16.4639 0,14.01526 0.78056,17.72533 4.60438,21.88496 1.28093,1.3934 12.24514,9.16972 24.36494,17.2807 12.1198,8.11098 22.7998,15.83773 23.73333,17.17054 2.53152,3.61425 2.06578,7.07762 -1.42061,10.564 -2.9766,2.9766 -6.09975,3.72647 -9.67852,2.3238 z M 400.0534,27.199998 V 18.133332 H 227.25341 54.453418 v 9.066666 9.066666 H 227.25341 400.0534 Z"
     id="path143"
     inkscape:connector-curvature="0" />
</svg>
