<?xml version="1.0" encoding="UTF-8" standalone="no"?>
<!-- Created with Inkscape (http://www.inkscape.org/) -->

<svg
   xmlns:dc="http://purl.org/dc/elements/1.1/"
   xmlns:cc="http://creativecommons.org/ns#"
   xmlns:rdf="http://www.w3.org/1999/02/22-rdf-syntax-ns#"
   xmlns:svg="http://www.w3.org/2000/svg"
   xmlns="http://www.w3.org/2000/svg"
   xmlns:sodipodi="http://sodipodi.sourceforge.net/DTD/sodipodi-0.dtd"
   xmlns:inkscape="http://www.inkscape.org/namespaces/inkscape"
   version="1.1"
   id="svg515"
   width="639.90765"
   height="639.75726"
   viewBox="0 0 639.90765 639.75726"
   sodipodi:docname="fb-icon.svg"
   inkscape:version="0.92.4 (unknown)">

  <path
     style="stroke-width:1.33333325"
     d="M 288.61478,638.30588 C 206.40945,630.53005 128.8166,589.37477 73.988518,524.46803 40.287938,484.57251 15.138888,430.83626 5.3471781,377.80137 -15.632072,264.17129 25.966158,149.16195 115.28145,73.858909 154.46429,40.823284 204.8561,16.681929 255.94811,6.4693313 360.51792,-14.432754 464.77842,15.841689 542.44422,89.660089 c 12.99907,12.355121 32.30868,35.865301 44.33781,53.982951 70.83747,106.69172 70.83389,245.69809 -0.009,352.31666 -25.00632,37.6345 -53.10739,65.73837 -90.66654,90.67559 -60.90822,40.43989 -133.94351,58.62751 -207.49138,51.67059 z m 77.83657,-28.52907 c 28.76885,-4.44863 53.08646,-12.40942 83.49675,-27.33413 58.47081,-28.6962 103.94512,-74.17051 132.64132,-132.64132 22.68274,-46.21791 29.93702,-77.71922 29.93702,-129.99999 0,-52.28077 -7.25428,-83.78208 -29.93702,-130 C 567.5419,159.14084 551.57357,136.84159 527.24073,112.50875 502.61825,87.886279 481.11265,72.489919 449.9481,57.173159 403.80029,34.492422 372.24716,27.223037 319.94811,27.223037 c -52.29905,0 -83.85219,7.269385 -130,29.950122 -31.16454,15.31676 -52.67014,30.71312 -77.29262,55.335591 -24.332842,24.33284 -40.301182,46.63209 -55.348702,77.29262 -22.68274,46.21792 -29.93702,77.71923 -29.93702,130 0,52.28077 7.25428,83.78208 29.93702,129.99999 44.182942,90.02628 132.562262,151.74369 231.974652,161.9935 16.19474,1.66974 60.87787,0.50124 77.16991,-2.01805 z M 285.34246,467.91536 c -0.91418,-1.70816 -1.39435,-24.44553 -1.39435,-66.02634 v -63.42099 h -20.4 c -14.08889,0 -20.89499,-0.49498 -22,-1.6 -2.26329,-2.26329 -2.26329,-55.87003 0,-58.13333 1.10393,-1.10393 7.87652,-1.6 21.84432,-1.6 h 20.24432 l 0.65093,-26.33333 c 0.48792,-19.73899 1.22654,-28.16973 2.94952,-33.66666 7.17851,-22.90204 22.48074,-38.98258 43.18469,-45.38116 7.2932,-2.25399 12.4109,-2.61884 36.73334,-2.61884 20.20186,0 28.71576,0.45621 29.85954,1.6 2.30404,2.30404 2.24396,50.39493 -0.0667,53.36848 -1.36404,1.75538 -5.19104,2.22745 -21.07646,2.59985 -21.1411,0.4956 -25.40364,1.8038 -27.98305,8.5882 -0.70061,1.84272 -1.27383,12.01133 -1.27383,22.59693 v 19.24653 h 23.17008 c 19.97927,0 23.42207,0.30526 25,2.21663 1.4174,1.71693 1.81852,8.10407 1.77932,28.33333 -0.0279,14.36419 -0.45898,27.16671 -0.95814,28.45004 -0.81774,2.1024 -3.28704,2.33333 -24.94942,2.33333 h -24.04184 l -0.0196,62.33334 c -0.0149,47.55631 -0.4192,63.12354 -1.70504,65.66666 l -1.68537,3.33333 -28.23396,0.35967 c -26.84421,0.34197 -28.30258,0.23144 -29.62829,-2.24567 z"
     id="path556"
     inkscape:connector-curvature="0" />
</svg>
