<?xml version="1.0" encoding="UTF-8" standalone="no"?>
<!-- Created with Inkscape (http://www.inkscape.org/) -->

<svg
   xmlns:dc="http://purl.org/dc/elements/1.1/"
   xmlns:cc="http://creativecommons.org/ns#"
   xmlns:rdf="http://www.w3.org/1999/02/22-rdf-syntax-ns#"
   xmlns:svg="http://www.w3.org/2000/svg"
   xmlns="http://www.w3.org/2000/svg"
   xmlns:sodipodi="http://sodipodi.sourceforge.net/DTD/sodipodi-0.dtd"
   xmlns:inkscape="http://www.inkscape.org/namespaces/inkscape"
   version="1.1"
   id="svg91"
   width="512"
   height="512"
   viewBox="0 0 512 512"
   sodipodi:docname="online-icon-4.svg"
   inkscape:version="0.92.4 (unknown)">

  <path

     d="M 0,503.5 V 495 h 256 256 v 8.5 8.5 H 256 0 Z M 36.92308,475.07692 34,472.15385 v -27.62659 c 0,-28.87775 0.46411,-32.34017 4.54481,-33.90608 C 39.43513,410.27953 54.92692,410 72.97101,410 c 30.80422,0 32.95157,0.11665 35.16821,1.91043 l 2.36078,1.91043 0.29343,29.12306 0.29344,29.12306 -2.96651,2.96651 L 105.15385,478 H 72.5 39.84616 Z M 94,444 V 427 H 72.5 51 v 17 17 H 72.5 94 Z M 130.92308,475.07692 128,472.15385 V 431 389.84615 l 2.92308,-2.92307 L 133.84615,384 H 166.5 199.15385 l 2.95502,2.95502 2.95502,2.95503 -0.28194,41.63231 -0.28195,41.63232 -2.80576,2.41266 L 198.88847,478 H 166.36731 133.84615 Z M 188,431 V 401 H 166.5 145 v 30 30 H 166.5 188 Z M 225.12233,475.44948 222,472.82221 v -62.85534 -62.85534 l 2.4123,-2.80577 2.4123,-2.80576 32.06051,-0.28974 c 35.17821,-0.31792 36.67237,-0.10702 38.99666,5.50432 0.85213,2.05722 1.09053,19.32291 0.89086,64.51983 l -0.27263,61.71094 -2.27655,2.27733 c -2.26396,2.26472 -2.45826,2.27892 -35.12767,2.5657 l -32.85112,0.28837 z M 281.5,409.5 v -51 L 260.25,358.23011 239,357.96022 V 409.5 461.03978 L 260.25,460.76989 281.5,460.5 Z m 39,67.29218 c -4.58217,-2.62787 -4.43472,0.57601 -4.4682,-97.08763 L 316,286.90909 318.45455,284.45455 320.90909,282 h 33.37114 33.37114 l 2.42432,2.58026 2.42431,2.58026 0.27054,90.9027 c 0.29524,99.20367 0.42522,96.77126 -5.28727,98.94314 -3.8214,1.45289 -64.41426,1.25915 -66.98327,-0.21418 z M 375,380 v -81 h -21 -21 v 81 81 h 21 21 z m 39.5,96.84527 c -4.70622,-2.5741 -4.5,4.59563 -4.5,-156.45461 0,-83.7249 0.27953,-152.95553 0.62118,-153.84586 C 412.21494,162.39154 415.43515,162 448,162 c 32.56485,0 35.78506,0.39154 37.37882,4.5448 0.81201,2.11608 0.81201,304.79432 0,306.9104 -1.59741,4.16277 -4.78963,4.54625 -37.57916,4.51439 -20.71648,-0.0201 -31.97591,-0.40029 -33.29966,-1.12432 z M 469,320 V 179 h -21 -21 v 141 141 h 21 21 z M 34.92885,383.25 C 33.75846,370.9126 33.57938,367 34.18508,367 c 0.40614,0 7.61814,-0.88404 16.02668,-1.96454 31.17615,-4.00614 55.90131,-9.53386 85.15402,-19.03758 C 261.34896,305.06804 364.14107,209.95991 414.74824,87.5 419.21602,76.688829 437.15449,26.80865 436.72133,26.40107 436.5996,26.286524 425.25,31.755442 411.5,38.554222 c -13.75,6.79878 -26.17681,12.380399 -27.61514,12.403598 -3.34448,0.05394 -7.50816,-3.206934 -8.10917,-6.350872 -0.25633,-1.340932 0.11112,-3.81076 0.81656,-5.488506 1.135,-2.699388 5.43224,-5.125884 37.33978,-21.084445 C 433.76347,8.1152989 451.05594,0 452.35974,0 c 1.3038,0 3.44373,0.8553583 4.7554,1.9007962 1.39091,1.1085941 9.84597,16.8735258 20.28691,37.8261078 19.08653,38.302274 19.20796,38.663085 14.57251,43.298532 -2.15364,2.153642 -6.94451,2.596198 -10.05928,0.929224 -1.13367,-0.606721 -7.42437,-11.981372 -14.9923,-27.108621 -7.17149,-14.334803 -13.17991,-25.9019 -13.35205,-25.704659 -0.17214,0.197241 -4.014,10.93362 -8.53748,23.85862 -17.72641,50.65002 -32.25725,81.15059 -55.63477,116.77866 -18.6972,28.49513 -36.41115,50.21581 -61.39534,75.28243 -38.24686,38.37306 -77.03308,66.17126 -125.50334,89.94863 -48.59359,23.83787 -97.37279,38.50062 -149.61918,44.97467 -18.62896,2.30839 -17.8582,2.25405 -17.95197,1.26561 z M 43,162.5 V 154 h 38 38 v 8.5 8.5 H 81 43 Z M 43,128 v -9 h 38 38 v 9 9 H 81 43 Z M 43,93.491533 V 84.983066 L 98.25,85.241533 153.5,85.5 l 0.29044,8.25 0.29044,8.25 H 98.54045 43 Z m 0,-34 V 50.983066 L 98.25,51.241533 153.5,51.5 l 0.29044,8.25 0.29044,8.25 H 98.54045 43 Z"
     id="path101"
     inkscape:connector-curvature="0" />
</svg>
