<?xml version="1.0" encoding="UTF-8" standalone="no"?>
<!-- Created with Inkscape (http://www.inkscape.org/) -->

<svg
   xmlns:dc="http://purl.org/dc/elements/1.1/"
   xmlns:cc="http://creativecommons.org/ns#"
   xmlns:rdf="http://www.w3.org/1999/02/22-rdf-syntax-ns#"
   xmlns:svg="http://www.w3.org/2000/svg"
   xmlns="http://www.w3.org/2000/svg"
   xmlns:sodipodi="http://sodipodi.sourceforge.net/DTD/sodipodi-0.dtd"
   xmlns:inkscape="http://www.inkscape.org/namespaces/inkscape"
   version="1.1"
   id="svg81"
   width="511.76636"
   height="488.2392"
   viewBox="0 0 511.76636 488.2392"
   sodipodi:docname="online-icon-1.svg"
   inkscape:version="0.92.4 (unknown)">

  <path
     d="M 239.5,487.25308 C 224.25577,485.5324 212.80347,481.81397 182.6688,468.80067 117.91963,440.83949 110.01225,437.55098 98,433.58869 73.71087,425.57681 55.47366,421.93691 22.55936,418.53177 5.39568,416.75611 4.51871,416.55945 2.30936,413.99093 L 0,411.30614 V 367.91382 324.5215 l 4.93593,-5.93112 c 2.71476,-3.26212 8.10483,-8.76831 11.97793,-12.23598 26.77618,-23.97331 55.82979,-35.26596 86.50785,-33.62414 27.16755,1.45394 68.55611,16.06689 104.07829,36.74664 18.21584,10.60461 29.25149,14.70835 44.12393,16.40802 l 6.12392,0.69986 0.59605,-4.33356 c 3.22988,-23.4829 3.3138,-75.38054 0.16548,-102.33355 -4.24326,-36.32683 -12.57733,-67.60889 -24.20016,-90.83562 -2.03554,-4.06776 -3.91459,-6.64606 -4.64058,-6.36747 -5.46106,2.09561 -15.13646,3.15707 -28.66864,3.14515 -17.83601,-0.0157 -23.54534,-1.19345 -36.91017,-7.61399 -6.77027,-3.25247 -10.10477,-5.72577 -17.10076,-12.68418 C 130.29436,88.956549 122.41225,68.173541 119.99833,34.394251 118.62427,15.166365 119.46462,5.2663197 122.7302,2.2102477 c 2.36245,-2.2108849531 3.04341,-2.28859195 19.10977,-2.18067995 47.92165,0.321871 84.80445,13.34389825 101.64728,35.88810125 8.76228,11.728348 12.44058,26.486119 10.49795,42.119076 -1.11976,9.011149 -4.65292,22.228835 -7.83452,29.309295 l -1.98989,4.42838 4.78308,9.57162 c 12.81452,25.64369 21.50811,56.82499 25.53089,91.57163 0.89147,7.7 1.86929,16.025 2.17294,18.5 l 0.55209,4.5 2.91685,-6.42274 c 2.81813,-6.20538 2.86563,-6.56071 1.40346,-10.5 -4.45101,-11.99167 -6.34817,-29.76584 -4.58851,-42.98892 5.52224,-41.49716 37.46522,-63.4455 93.06841,-63.9482 8.525,-0.0771 16.72932,0.20388 18.23181,0.62435 5.17171,1.44728 6.1421,5.34247 5.39995,21.67569 -2.27324,50.02898 -16.08876,82.66531 -40.34779,95.31338 -3.73118,1.94535 -9.31937,4.09407 -12.4182,4.77494 -8.18853,1.79917 -25.54194,0.75791 -34.62482,-2.0776 -3.99247,-1.24638 -7.51248,-2.0127 -7.82223,-1.70295 -0.30976,0.30976 -2.33291,4.66809 -4.4959,9.68518 -7.86857,18.25131 -14.84638,45.7893 -16.86728,66.56687 -0.58844,6.05 -1.28025,12.89206 -1.53736,15.20459 l -0.46747,4.20458 37.22465,0.29542 c 36.6843,0.29112 37.31173,0.33043 43.22464,2.7079 4.23139,1.70136 7.80198,4.21297 12.11322,8.52063 l 6.11322,6.10813 32.88678,-37.96821 c 18.08773,-20.88251 35.94265,-41.2134 39.6776,-45.17976 8.29103,-8.80472 16.75353,-14.45431 27.55681,-18.39702 8.98712,-3.27989 24.77506,-5.66483 30.45119,-4.59998 4.73783,0.88882 8.06783,4.99829 7.3767,9.10341 -0.69659,4.13761 -63.58457,146.68733 -67.71899,153.50031 -7.97759,13.14601 -20.89169,26.89079 -32.83392,34.94594 -9.31673,6.28421 -23.21488,12.52416 -34.62261,15.54476 -5.5,1.45632 -25.80401,8.92776 -45.12003,16.60321 -37.33698,14.83628 -48.26517,18.20446 -64.45587,19.86594 -11.48842,1.17893 -16.06081,1.15819 -27.4241,-0.12444 z m 41.87997,-19.24219 c 5.43398,-1.39918 25.68398,-8.82525 45,-16.50239 19.31602,-7.67713 39.5226,-15.10655 44.90352,-16.50982 26.6641,-6.95362 47.33143,-22.78811 59.59155,-45.65668 5.32595,-9.93439 59.37695,-133.00568 58.70788,-133.67475 -0.97051,-0.97051 -10.02179,2.00603 -16.92294,5.56516 -3.76202,1.94019 -9.17672,5.81308 -12.03269,8.60643 -2.85596,2.79336 -22.27795,24.84527 -43.15997,49.00424 L 379.5,362.76849 l -1.15137,6.80512 c -0.63325,3.74281 -2.18,8.95137 -3.43723,11.57458 -3.3179,6.92283 -12.51454,15.56853 -19.58377,18.41057 l -5.82763,2.34288 -69,0.59377 c -65.35877,0.56243 -69.44856,0.70349 -77.5,2.67315 -4.675,1.14366 -9.75093,2.56154 -11.27985,3.15084 -3.08718,1.18992 -2.85419,1.52102 -6.75249,-9.59566 l -1.82136,-5.19393 4.74508,-1.57606 c 2.60979,-0.86684 9.21437,-2.53137 14.67685,-3.69897 9.37569,-2.00405 13.71109,-2.1569 77.43177,-2.73001 74.09357,-0.6664 70.06117,-0.30824 76.19695,-6.76782 9.7108,-10.22326 6.71111,-26.75408 -6.03475,-33.25653 -3.52252,-1.79706 -6.93487,-1.94702 -53.71185,-2.3605 -46.8976,-0.41455 -50.48796,-0.57314 -58.74697,-2.59485 -12.2248,-2.99251 -23.39579,-7.69462 -35.70338,-15.02835 -27.36704,-16.30719 -59.88452,-29.27688 -86.92659,-34.67091 -11.24647,-2.24332 -30.40636,-1.52655 -41.00614,1.53403 -16.87684,4.87301 -33.9875,15.10765 -48.31727,28.9007 L 17,329.70281 v 35.85743 c 0,33.4796 0.11605,35.85807 1.75,35.86706 4.44382,0.0244 29.90661,3.20641 40.25,5.02985 30.89668,5.44681 48.07691,11.40846 108.42898,37.62559 25.81094,11.21235 50.06538,21.33874 53.89877,22.5031 18.14502,5.51138 41.98507,6.07711 60.05222,1.42505 z m 55.76748,-249.95372 c 12.10866,-2.85005 20.2579,-10.33388 27.37473,-25.1395 6.93915,-14.43598 10.91899,-31.86988 12.13479,-53.1572 l 0.64784,-11.3428 h -7.92864 c -10.23137,0 -22.81192,1.58114 -32.83013,4.12613 -23.16698,5.88527 -37.87033,19.75985 -42.10309,39.72989 -1.43284,6.76011 -1.73456,21.20515 -0.55653,26.64398 l 0.64979,3 3.41442,-5 c 13.29874,-19.47441 35.7943,-40.5 43.33148,-40.5 3.95122,0 7.71789,4.03291 7.71789,8.26342 0,4.02917 -0.81154,5.07763 -8.25781,10.66863 -7.81601,5.86861 -21.10783,20.02519 -27.48806,29.27643 -7.41227,10.74767 -7.40982,10.27207 -0.0624,12.15145 11.36453,2.90691 15.9918,3.15408 23.95577,1.27957 z M 220.0697,107.74797 c 2.11471,-2.11471 -16.06627,-21.244973 -27.5697,-29.00918 -3.3,-2.227327 -9.24497,-5.682588 -13.21105,-7.678358 -3.96607,-1.99577 -7.67857,-4.502259 -8.25,-5.569976 -2.90671,-5.431247 1.03934,-12.076981 7.1656,-12.067905 9.85815,0.01461 38.30323,20.644027 51.59911,37.421588 l 3.11165,3.92648 1.12614,-2.92648 c 0.61937,-1.60956 1.79897,-6.30147 2.62133,-10.42647 C 240.02969,64.52898 235.61413,49.61334 224.22302,39.396491 210.03698,26.672826 181.99766,18.151197 149.58785,16.713592 l -13.91214,-0.617103 0.65834,13.007804 c 1.58457,31.30828 8.24696,50.751403 22.19083,64.760376 6.58671,6.617461 15.52703,11.606411 25.15341,14.036321 6.84107,1.72683 34.6284,1.60999 36.39141,-0.15302 z"
     id="path122"
     inkscape:connector-curvature="0" />
</svg>
