<?xml version="1.0" encoding="UTF-8" standalone="no"?>
<!-- Created with Inkscape (http://www.inkscape.org/) -->

<svg
   xmlns:dc="http://purl.org/dc/elements/1.1/"
   xmlns:cc="http://creativecommons.org/ns#"
   xmlns:rdf="http://www.w3.org/1999/02/22-rdf-syntax-ns#"
   xmlns:svg="http://www.w3.org/2000/svg"
   xmlns="http://www.w3.org/2000/svg"
   xmlns:sodipodi="http://sodipodi.sourceforge.net/DTD/sodipodi-0.dtd"
   xmlns:inkscape="http://www.inkscape.org/namespaces/inkscape"
   version="1.1"
   id="svg71"
   width="511.33371"
   height="511.45279"
   viewBox="0 0 511.33371 511.45279"
   sodipodi:docname="online-icon-3.svg"
   inkscape:version="0.92.4 (unknown)">

  <path

     d="M 232.61507,510.79192 C 143.81457,501.50563 69.215999,451.32436 29.011939,373.83135 -0.4711512,317.00291 -7.7467612,252.52617 8.3956488,191.12877 c 1.9098402,-7.26405 5.0212302,-17.32273 6.9142002,-22.35262 1.89298,-5.02989 3.19218,-9.79569 2.88711,-10.59067 -0.30506,-0.79499 0.13602,-1.98631 0.98019,-2.64738 0.84417,-0.66108 4.84803,-7.72696 8.89748,-15.70196 13.07944,-25.75871 28.76812,-46.951946 50.11671,-67.700768 C 147.10466,5.1580946 247.82846,-17.348954 339.31064,13.787446 c 27.33464,9.303476 57.35844,26.235126 79.61049,44.895623 50.89413,42.679621 81.59307,98.466821 91.15666,165.653071 1.67457,11.7642 1.67457,51.2358 0,63 -4.12685,28.99198 -11.81761,54.81475 -23.50617,78.92511 -13.9168,28.70662 -26.8914,46.8429 -50.15093,70.10243 -23.17198,23.17198 -41.58671,36.34107 -70.02754,50.07943 -23.78754,11.49058 -46.59455,18.52632 -73,22.51977 -15.03548,2.2739 -47.25282,3.24345 -60.77808,1.82904 z m 56.27808,-18.4938 c 60.65553,-9.03835 113.13318,-38.53896 151.89218,-85.38707 l 6.14302,-7.42509 -10.0176,-10.17994 -10.0176,-10.17994 v -17.65085 -17.65085 l -16.75,-33.24412 -16.75,-33.24412 -0.5,-17 -0.5,-17 -9.18697,-6.25972 -9.18697,-6.25971 -16.81303,4.16058 -16.81303,4.16059 -32.37138,-13.87149 c -29.35663,-12.57963 -32.49834,-14.15361 -33.7346,-16.90087 -1.41271,-3.1394 -9.39402,-57.07539 -9.39402,-63.48284 0,-3.35421 1.16562,-4.78728 15.32273,-18.83846 l 15.32273,-15.20808 h 28.09549 c 15.45251,0 28.83874,0.28522 29.74717,0.63381 0.90843,0.3486 5.28485,6.0861 9.72537,12.75 4.44053,6.66391 8.21487,12.28449 8.38742,12.49019 0.17256,0.20569 10.48656,2.07369 22.92,4.15111 l 22.60625,3.77711 20.97876,-7.00136 20.97875,-7.00136 -2.29233,-3.85795 c -3.47653,-5.8509 -13.27018,-18.97767 -18.59178,-24.91919 l -4.74007,-5.292251 -10.82566,7.134941 c -5.95411,3.92422 -11.59851,7.13495 -12.54311,7.13495 -5.11002,0 -47.26691,-9.46206 -57.26613,-12.853311 l -11.67441,-3.95939 -15.32559,3.88224 c -8.42908,2.135221 -16.67506,3.893081 -18.32441,3.906341 -1.64934,0.0133 -9.18236,-2.036701 -16.74003,-4.555481 -14.37069,-4.789389 -17.76115,-7.072741 -17.76115,-11.961507 0,-2.839664 17.19099,-37.649874 19.96163,-40.42052 1.89571,-1.895706 3.26201,-2.038368 19.52183,-2.038368 h 17.48345 l 7.51655,-3.719285 c 4.1341,-2.045607 7.51654,-4.015425 7.51654,-4.377374 0,-1.599248 -25.28884,-9.462141 -41,-12.747861 -29.2339,-6.113768 -64.46706,-6.334183 -93.5,-0.584926 -9.31584,1.844772 -27.50046,6.740103 -27.49821,7.402565 9.8e-4,0.289785 1.91348,1.706425 4.25,3.148091 3.53867,2.183412 8.42374,3.311602 29.24821,6.754776 27.85701,4.605952 29.79001,5.341227 30.31379,11.530773 0.35426,4.186339 -8.02169,30.690967 -10.29518,32.5778 -0.75073,0.623046 -6.90517,3.018904 -13.67653,5.324126 l -12.31157,4.191315 -12.62974,20.908866 -12.62974,20.90887 -22.92521,13.77331 -22.92521,13.77331 -26.9603,3.84311 -26.960311,3.84311 -0.29877,6.85981 -0.29877,6.8598 8.54877,8.73614 8.548771,8.73613 v 8.7499 8.7499 l 7.01874,-6.62113 c 7.29602,-6.8827 10.44522,-8.04875 15.06302,-5.57737 1.07266,0.57407 5.54572,8.22407 9.94015,17 l 7.98987,15.95624 h 28.38333 c 25.89406,0 28.57924,0.15865 30.61726,1.80894 1.22867,0.99491 7.49275,10.55741 13.92017,21.25 l 11.68623,19.44106 16.53837,0.27349 c 15.989,0.2644 16.61318,0.35312 18.79061,2.6709 3.06451,3.26202 2.90724,5.40014 -2.27494,30.92839 l -4.44012,21.87279 -16.61635,16.63794 -16.61634,16.63793 V 382.462 c 0,10.52233 -0.25708,12.43125 -1.9669,14.60494 -1.0818,1.37528 -8.7318,7.56028 -17,13.74445 l -15.0331,11.24393 v 20.31369 20.31368 l -2.58889,3.07672 c -1.69605,2.01564 -3.50624,3.07673 -5.24882,3.07673 -3.80052,0 -30.33577,-8.91596 -32.34123,-10.86679 -0.92342,-0.89827 -5.76092,-11.87495 -10.75,-24.39262 l -9.07106,-22.75941 V 370.97126 331.1252 l -18.75,-3.73481 c -11.503181,-2.29132 -19.476261,-4.37629 -20.629091,-5.39453 -1.0335,-0.91285 -6.096,-10.13731 -11.25,-20.49881 l -9.37091,-18.8391 v -13.97664 c 0,-8.30252 0.45249,-14.8634 1.11458,-16.16091 0.61302,-1.20134 3.36844,-4.50453 6.12316,-7.34041 l 5.00858,-5.15616 -21.37316,-14.20643 c -11.75524,-7.81354 -21.91996,-14.89531 -22.58827,-15.73726 -0.66831,-0.84195 -2.87683,-6.51779 -4.90783,-12.61296 l -3.69273,-11.08214 -1.3864,3.97555 c -0.76252,2.18655 -2.70111,10.50055 -4.30798,18.47555 -16.1105002,79.95747 9.3634,161.65105 68.13454,218.50428 39.535571,38.24538 88.303311,60.62749 144.875511,66.49108 11.64356,1.20683 41.25316,0.36604 54,-1.53338 z m -118,-60.02772 c 0,-9.53488 0.44051,-17.38885 1.03791,-18.5051 0.57085,-1.06664 8.22085,-7.34761 17,-13.9577 l 15.96209,-12.01836 v -12.16349 -12.1635 l 17.36181,-17.56306 17.36182,-17.56305 2.63892,-13.5 c 1.4514,-7.425 2.63859,-14.0625 2.63818,-14.75 -5.4e-4,-0.92654 -2.93794,-1.25 -11.35151,-1.25 -6.24292,0 -12.77158,-0.4953 -14.50812,-1.10066 -2.68518,-0.93605 -4.98752,-4.15133 -15.39542,-21.5 l -12.23806,-20.39934 h -28.61895 c -26.55372,0 -28.79105,-0.13636 -31.00381,-1.88963 -1.31167,-1.0393 -5.06989,-7.3393 -8.35159,-14 -3.2817,-6.6607 -6.22501,-12.11037 -6.54069,-12.11037 -0.31567,0 -7.64315,7.11925 -16.28327,15.82057 l -15.709311,15.82056 v 9.69276 9.69277 l 7.11322,14.23667 c 3.91227,7.83017 7.23878,14.37567 7.39223,14.54557 0.15346,0.16989 8.090011,1.87646 17.636781,3.79237 9.54677,1.91592 19.02879,3.92732 21.07116,4.46979 6.97962,1.85385 6.78661,0.47762 6.78661,48.39104 v 43.01709 l 7.58898,19.0207 7.58899,19.02071 4.66101,1.6396 c 2.56356,0.90179 4.99852,1.68465 5.41102,1.73971 0.4125,0.0551 0.75,-7.35449 0.75,-16.46565 z m 291.67567,-57.18426 c 3.1576,-5.3625 8.0791,-14.925 10.93666,-21.25 28.10278,-62.20333 28.20591,-133.05499 0.28444,-195.42659 -2.70878,-6.05093 -5.26454,-11.34118 -5.67948,-11.75612 -0.41493,-0.41493 -11.76447,2.91015 -25.22119,7.38906 l -24.46676,8.14348 -25.91759,-4.28024 c -14.25467,-2.35414 -27.15588,-4.71192 -28.66934,-5.23951 -1.96464,-0.68488 -4.99584,-4.36781 -10.59708,-12.87553 l -7.84533,-11.91626 -21.51787,-0.0191 -21.51786,-0.0191 -10.18048,10.25 -10.18047,10.25 3.60539,25.15388 3.60539,25.15388 26.43627,11.29925 26.43628,11.29926 16.8664,-4.18721 c 9.27652,-2.30296 17.67202,-3.88605 18.65667,-3.51798 0.98466,0.36807 8.17748,4.91461 15.98406,10.10342 10.98802,7.30343 14.43234,10.11852 15.25,12.46408 0.58092,1.66643 1.05622,10.39029 1.05622,19.38636 v 16.35649 l 17,33.98857 17,33.98857 v 16.22881 16.22881 l 6.22111,6.2769 c 3.42161,3.4523 6.33189,6.27691 6.46729,6.27691 0.13539,0 2.82967,-4.3875 5.98727,-9.75 z M 84.893149,214.60703 v -7.22911 l -8.25,-8.29024 -8.25,-8.29023 -0.32558,-14.59107 c -0.34972,-15.67268 0.35713,-19.24639 4.21516,-21.31114 1.24172,-0.66456 15.57491,-3.11591 31.851511,-5.44745 l 29.59383,-4.23918 19.53727,-11.70704 19.53728,-11.70705 12.61769,-21.00359 c 6.93973,-11.551973 13.5976,-21.643011 14.79527,-22.424525 1.61446,-1.053485 22.03892,-8.530261 23.30229,-8.530261 0.10542,0 1.09427,-2.672748 2.19745,-5.939439 l 2.00578,-5.939439 -2.66397,-0.545514 C 223.59194,57.11172 213.86162,55.45249 203.43419,53.724575 l -18.95895,-3.141663 -10.91324,-7.29245 -10.91324,-7.29245 -7.62781,3.474524 C 106.9771,61.356883 63.128309,104.64647 40.849709,152.18777 l -3.90634,8.33591 6.50553,19.40623 6.50554,19.40623 16.71935,11.18311 c 9.19565,6.15071 17.05686,11.21321 17.46936,11.25 0.4125,0.0368 0.75,-3.18621 0.75,-7.16222 z M 414.57343,88.718686 c 3.47585,-2.264602 6.31972,-4.459648 6.31972,-4.877879 0,-1.03339 -10.64887,-10.266476 -21,-18.20801 -8.90374,-6.831079 -18.56729,-13.194513 -28.2475,-18.600937 l -5.74751,-3.209996 -15.99073,8.00714 -15.99074,8.00714 h -15.00264 -15.00265 l -5.07087,10.104905 c -2.78899,5.557698 -4.93059,10.21835 -4.75912,10.357004 0.17147,0.138653 3.23676,1.231147 6.81176,2.427763 l 6.5,2.175665 17.25029,-4.253802 17.25028,-4.253803 13.24972,4.414731 c 12.0429,4.012629 44.7453,11.71509 50.67999,11.936762 1.33666,0.04993 5.27416,-1.762081 8.75,-4.026683 z"
     id="path143"
     inkscape:connector-curvature="0" />
</svg>
