<?xml version="1.0" encoding="UTF-8" standalone="no"?>
<!-- Created with Inkscape (http://www.inkscape.org/) -->

<svg
   xmlns:dc="http://purl.org/dc/elements/1.1/"
   xmlns:cc="http://creativecommons.org/ns#"
   xmlns:rdf="http://www.w3.org/1999/02/22-rdf-syntax-ns#"
   xmlns:svg="http://www.w3.org/2000/svg"
   xmlns="http://www.w3.org/2000/svg"
   xmlns:sodipodi="http://sodipodi.sourceforge.net/DTD/sodipodi-0.dtd"
   xmlns:inkscape="http://www.inkscape.org/namespaces/inkscape"
   version="1.1"
   id="svg61"
   width="545.94543"
   height="546.23523"
   viewBox="0 0 545.94543 546.23523"
   sodipodi:docname="online-icon-2.svg"
   inkscape:version="0.92.4 (unknown)">

  <path
     style="stroke-width:1.0666666"
     d="m 176.87881,544.96378 c -26.94856,-2.13581 -59.06838,-9.37355 -81.197184,-18.29659 -35.8208,-14.44412 -64.15,-39.66596 -79.3565,-70.65224 C 7.1686258,437.35684 3.2166258,423.37422 0.73742578,400.86341 c -1.564,-14.20105 -0.5452,-43.04653 2.15860002,-61.11512 C 14.850626,259.85923 63.026226,185.30361 125.57977,149.88551 l 10.7657,-6.09559 V 124.23225 104.67459 L 119.82136,92.271577 c -9.08827,-6.821653 -17.24827,-13.436868 -18.13334,-14.700478 -1.35267,-1.931214 -1.60921,-7.709561 -1.60921,-36.246435 0,-36.5736915 0.36405,-39.2350675 5.55728,-40.62621051 4.42228,-1.184625 41.36712,-0.759541 43.84617,0.50449001 1.28143,0.653381 5.11385,3.893381 8.51646,7.2 l 6.18659,6.0120325 4.98595,-5.3333325 c 8.98136,-9.60708901 6.49177,-9.05170701 40.61126,-9.05963701 l 30.23704,-0.007 7.36295,7.10833201 7.36296,7.1083325 7.36295,-7.1083325 7.36296,-7.10833201 h 21.37756 c 21.05728,0 21.4224,0.03855 24.37038,2.57312201 l 2.99281,2.573122 0.30848,34.0474615 c 0.17589,19.413575 -0.12082,35.176601 -0.69034,36.674534 -0.59419,1.562859 -7.93907,7.792963 -18.13129,15.379411 l -17.1325,12.752343 0.22283,20.12733 0.22282,20.12733 11.2,6.34629 c 16.72445,9.47663 29.86964,19.76772 45.54904,35.65937 l 14.08237,14.27301 h 93.43277 93.43278 l 2.61817,2.61819 2.61819,2.61817 v 166.39829 c 0,119.6781 -0.33251,167.12808 -1.18429,168.99752 -0.65136,1.42957 -2.35395,3.13216 -3.78352,3.78352 -3.80019,1.73148 -259.84846,1.6764 -263.1023,-0.0566 -1.28143,-0.68249 -2.82881,-1.9172 -3.43862,-2.74378 -0.95226,-1.29078 -2.68356,-1.27238 -12.26667,0.13035 -25.71413,3.76393 -58.52686,4.79104 -85.29124,2.66983 z m 75.19999,-19.55403 c 6.45333,-0.89003 13.77333,-1.92247 16.26667,-2.2943 l 4.53333,-0.67606 v -38.27888 c 0,-21.05339 -0.19702,-38.27889 -0.43783,-38.27889 -0.2408,0 -3.7208,1.85713 -7.73334,4.12694 -16.66361,9.42635 -33.13728,13.43557 -55.29549,13.45734 -24.35936,0.0239 -39.39747,-3.92201 -60.08119,-15.76506 -34.07179,-19.50877 -56.204724,-55.73216 -58.507124,-95.75463 -2.2118,-38.4465 15.929414,-77.05005 47.258114,-100.56262 28.09672,-21.08693 65.0179,-28.82783 97.8155,-20.50804 11.07084,2.80834 24.50611,7.90334 31.30464,11.87151 2.45113,1.43068 4.73113,2.60124 5.06666,2.60124 0.33553,0 0.61006,-8.90181 0.61006,-19.78181 0,-19.58071 0.0267,-19.80844 2.61819,-22.4 l 2.61817,-2.61819 h 24.58182 c 13.52,0 24.58182,-0.37639 24.58182,-0.83644 0,-2.08743 -18.5798,-18.27609 -29.33333,-25.55825 -7.79339,-5.27758 -23.54213,-13.86775 -31.34224,-17.09566 -5.66794,-2.34556 -6.41083,-2.37631 -57.40749,-2.37631 H 157.5305 l -7.74952,3.22613 c -31.99519,13.31964 -63.165954,40.83234 -86.708254,76.5327 -10.3763,15.73499 -24.0009,44.11263 -30.0751,62.64116 -9.9323,30.2972 -13.6239,49.75856 -14.6693,77.33333 -2.3106,60.9447 22.4469,104.02485 74.9871,130.48368 21.061514,10.60639 55.299014,19.18303 87.830044,22.0018 15.43284,1.33724 56.72023,0.46957 70.93333,-1.49069 z M 527.81212,409.61495 V 291.21496 h -118.4 -118.39999 v 118.39999 118.4 h 118.39999 118.4 z m -215.60989,97.08753 -3.17913,-3.17914 0.32785,-21.98373 c 0.42421,-28.44487 -2.06373,-26.05799 27.16117,-26.05799 29.21366,0 27.04494,-2.15953 26.99942,26.88485 -0.024,15.33387 -0.41295,22.14214 -1.33333,23.34092 -2.85178,3.71432 -5.75804,4.17423 -26.37801,4.17423 h -20.41884 z m 33.2099,-24.02086 v -9.06667 h -9.06667 -9.06666 v 9.06667 9.06666 h 9.06666 9.06667 z m 40.91767,25.64248 c -4.21908,-2.95517 -4.80516,-6.60456 -4.45189,-27.72109 l 0.33422,-19.97728 2.99281,-2.57206 c 2.94593,-2.53175 3.32518,-2.57205 24.20718,-2.57205 20.88201,0 21.26126,0.0403 24.20719,2.57205 l 2.99281,2.57206 0.33422,19.97728 c 0.23127,13.82358 -0.0605,20.93009 -0.94701,23.07044 -2.43961,5.88974 -3.80329,6.20817 -26.58721,6.20817 -16.5618,0 -21.31672,-0.32085 -23.08232,-1.55752 z m 32.45879,-25.90915 0.30981,-8.8 h -9.64314 -9.64313 v 8.35555 c 0,4.59556 0.33783,8.69339 0.75074,9.1063 0.41289,0.4129 4.61289,0.6129 9.33333,0.44444 l 8.58259,-0.30629 z m 41.2902,26.23495 c -4.89394,-2.67677 -4.8,-1.45591 -4.8,-62.37934 v -57.86997 l 2.57205,-2.99282 2.57206,-2.99281 19.97728,-0.33422 c 13.82358,-0.23127 20.93009,0.0605 23.07044,0.94701 6.42876,2.66288 6.20817,0.41815 6.20817,63.17326 v 57.44471 l -3.11796,3.11794 -3.11794,3.11796 -20.61539,-0.0324 c -12.8504,-0.0202 -21.41892,-0.47195 -22.74871,-1.19929 z m 31.21145,-62.50161 -0.27812,-45.6 -8.8,-0.3098 -8.8,-0.30981 v 45.9098 45.9098 h 9.07812 9.07811 z M 314.23895,435.71964 c -1.59858,-0.88627 -3.39858,-2.53082 -4,-3.65457 -0.63877,-1.19354 -1.09349,-10.62329 -1.09349,-22.67598 0,-22.53839 0.32658,-23.92511 6.20817,-26.36134 2.14035,-0.88656 9.24686,-1.17828 23.07044,-0.94701 l 19.97728,0.33422 2.57206,2.99281 c 2.53175,2.94593 2.57205,3.32518 2.57205,24.20718 0,20.88228 -0.0403,21.26123 -2.57215,24.20719 l -2.57216,2.99281 -20.62784,0.25804 c -16.76308,0.20969 -21.1724,-0.0438 -23.53436,-1.35335 z m 31.17318,-26.14782 v -9.64314 l -8.8,0.30981 -8.8,0.3098 -0.31677,7.90018 c -0.17422,4.34509 -0.0693,8.54509 0.2332,9.33333 0.39722,1.03515 2.92906,1.43315 9.11676,1.43315 h 8.56681 z m 41.7174,26.28792 c -4.85419,-2.69047 -5.37257,-5.18339 -5.41293,-26.03109 -0.0413,-21.28559 0.61664,-24.31143 5.79906,-26.67269 1.83574,-0.83643 9.36024,-1.27434 21.89646,-1.27434 12.53623,0 20.06073,0.43791 21.89647,1.27434 5.16167,2.35181 5.83687,5.41253 5.83687,26.45899 0,21.04647 -0.6752,24.10719 -5.83687,26.459 -4.07764,1.8579 -40.76143,1.68003 -44.17906,-0.21421 z m 31.34926,-26.24479 v -9.06666 h -9.06667 -9.06666 l -0.31677,7.90018 c -0.17422,4.34509 -0.0618,8.56463 0.24986,9.37674 0.43331,1.12919 2.64083,1.40362 9.38342,1.16649 l 8.81682,-0.31008 z M 313.65635,363.03438 c -3.71009,-1.49274 -4.51089,-6.29455 -4.51089,-27.0485 v -20.40169 l 3.11796,-3.11794 3.11794,-3.11796 h 20.40169 c 21.22099,0 25.53573,0.77186 27.09982,4.84779 0.36443,0.94969 0.66259,11.30926 0.66259,23.02127 0,28.63997 2.11489,26.55954 -26.88485,26.44673 -11.90667,-0.0463 -22.25858,-0.32968 -23.00426,-0.6297 z m 31.75578,-26.48609 v -9.06666 h -9.06667 -9.06666 v 9.06666 9.06667 h 9.06666 9.06667 z m 39.79281,24.62795 -2.99281,-2.57206 -0.33422,-19.97728 c -0.23127,-13.82358 0.0605,-20.93009 0.94701,-23.07044 2.43961,-5.88974 3.80329,-6.20817 26.5872,-6.20817 22.78392,0 24.1476,0.31843 26.58721,6.20817 0.88656,2.14035 1.17828,9.24686 0.94701,23.07044 l -0.33422,19.97728 -2.99281,2.57206 c -2.94593,2.53175 -3.32518,2.57205 -24.20719,2.57205 -20.882,0 -21.26125,-0.0403 -24.20718,-2.57205 z m 33.58365,-24.36128 -0.3098,-8.8 h -9.06667 -9.06666 l -0.3098,8.8 -0.30981,8.8 h 9.68627 9.68628 z m 39.10839,24.31514 c -2.60494,-2.60492 -2.61819,-2.72592 -2.61819,-23.91275 0,-11.71201 0.29816,-22.07158 0.66259,-23.02127 1.56409,-4.07593 5.87883,-4.84779 27.09982,-4.84779 h 20.40169 l 3.11794,3.11796 3.11796,3.11794 v 20.41884 c 0,20.61997 -0.45991,23.52623 -4.17423,26.37801 -1.19878,0.92038 -8.00705,1.3093 -23.34092,1.33333 -21.58322,0.0338 -21.65638,0.026 -24.26666,-2.58427 z m 33.64847,-24.58181 v -9.06666 h -9.06666 -9.06667 v 9.06666 9.06667 h 9.06667 9.06666 z M 226.24532,444.29251 c 15.29559,-2.66733 26.08733,-7.14062 40.5071,-16.79062 l 6.14029,-4.10921 -0.27362,-77.51087 -0.27362,-77.51089 -5.13382,-3.88003 c -17.50681,-13.2313 -45.87115,-20.79355 -68.03402,-18.13861 -41.38678,4.95778 -73.27969,31.0712 -85.58282,70.07387 -5.79817,18.381 -6.19934,36.08174 -1.23793,54.6209 4.86102,18.16407 11.71366,30.29925 24.9601,44.20127 22.93497,24.07003 55.83488,34.81521 88.92834,29.04419 z m -26.12648,-26.32461 -0.3067,-9.78038 -4.79467,-1.59562 c -6.02678,-2.00565 -16.27285,-12.00239 -19.12753,-18.66211 -1.12798,-2.63147 -2.38144,-6.98883 -2.78545,-9.683 l -0.73458,-4.8985 h 9.13944 9.13945 l 0.67633,3.60514 c 1.42547,7.59842 9.95842,14.55714 17.78608,14.50477 15.9994,-0.10706 24.2099,-21.14198 12.00085,-30.74562 -1.50849,-1.18657 -8.74437,-4.15747 -16.07975,-6.60199 -14.37765,-4.79139 -19.91267,-8.19187 -25.71353,-15.79728 -13.0604,-17.12335 -5.29501,-44.04784 15.14776,-52.5209 l 5.87893,-2.43668 v -9.98019 -9.98018 l 8.8,0.3098 8.8,0.3098 0.30497,9.73639 0.30497,9.73637 4.73172,1.80706 c 10.6666,4.07361 20.11818,16.45158 21.50531,28.16378 l 0.66099,5.58099 -8.83923,-0.3123 -8.83922,-0.31229 -1.36919,-4.64727 c -2.43237,-8.25584 -8.83826,-12.95273 -17.66567,-12.95273 -11.76506,0 -20.87656,12.50017 -16.86012,23.13056 2.33416,6.17788 5.99434,8.52569 21.48505,13.78154 12.66321,4.29651 15.67934,5.76349 20.19262,9.82132 2.9182,2.6237 6.59695,7.22201 8.17501,10.21847 2.52922,4.80254 2.86981,6.64885 2.87432,15.58144 0.005,9.52586 -0.21445,10.53835 -3.65781,16.88942 -4.02998,7.43309 -9.85272,12.82901 -17.48869,16.20676 l -4.9817,2.20365 v 9.55008 9.55009 h -9.02663 -9.02665 z M 527.81212,245.88163 v -27.2 h -118.4 -118.39999 v 27.2 27.2 h 118.39999 118.4 z m -108.8,0 v -9.06666 h 9.06667 9.06667 v 9.06666 9.06667 h -9.06667 -9.06667 z m 36.26667,0 v -9.06666 h 9.06666 9.06667 v 9.06666 9.06667 h -9.06667 -9.06666 z m 36.26666,0 v -9.06666 h 9.06667 9.06667 v 9.06666 9.06667 h -9.06667 -9.06667 z M 263.2788,122.68164 v -13.86667 h -54.4 -54.39999 v 13.86667 13.86666 h 54.39999 54.4 z M 285.50596,79.312609 300.61213,67.94358 V 43.045945 18.148309 h -11.93059 -11.9306 l -9.26538,9.066666 c -12.43307,12.166419 -13.04711,12.166419 -25.48019,0 L 232.74,18.148309 h -23.32786 -23.32786 l -9.26538,9.066666 c -12.58685,12.316891 -14.64715,12.205679 -28.17815,-1.521026 l -7.43806,-7.54564 h -11.49527 -11.49528 v 25.037099 25.0371 l 14.66667,11.163272 14.66666,11.163271 61.42716,0.06629 61.42715,0.06629 z"
     id="path164"
     inkscape:connector-curvature="0" />
</svg>
