<?xml version="1.0" encoding="UTF-8" standalone="no"?>
<!-- Created with Inkscape (http://www.inkscape.org/) -->

<svg
   xmlns:dc="http://purl.org/dc/elements/1.1/"
   xmlns:cc="http://creativecommons.org/ns#"
   xmlns:rdf="http://www.w3.org/1999/02/22-rdf-syntax-ns#"
   xmlns:svg="http://www.w3.org/2000/svg"
   xmlns="http://www.w3.org/2000/svg"
   xmlns:sodipodi="http://sodipodi.sourceforge.net/DTD/sodipodi-0.dtd"
   xmlns:inkscape="http://www.inkscape.org/namespaces/inkscape"
   version="1.1"
   id="svg91"
   width="511.81726"
   height="483.83063"
   viewBox="0 0 511.81726 483.83063"
   sodipodi:docname="rule-icon-2.svg"
   inkscape:version="0.92.4 (unknown)">
  <metadata
     id="metadata97">
    <rdf:RDF>
      <cc:Work
         rdf:about="">
        <dc:format>image/svg+xml</dc:format>
        <dc:type
           rdf:resource="http://purl.org/dc/dcmitype/StillImage" />
        <dc:title></dc:title>
      </cc:Work>
    </rdf:RDF>
  </metadata>
  <defs
     id="defs95" />
  <sodipodi:namedview
     pagecolor="#ffffff"
     bordercolor="#666666"
     borderopacity="1"
     objecttolerance="10"
     gridtolerance="10"
     guidetolerance="10"
     inkscape:pageopacity="0"
     inkscape:pageshadow="2"
     inkscape:window-width="1920"
     inkscape:window-height="1007"
     id="namedview93"
     showgrid="false"
     inkscape:zoom="0.4609375"
     inkscape:cx="969.53668"
     inkscape:cy="233.15265"
     inkscape:window-x="0"
     inkscape:window-y="24"
     inkscape:window-maximized="1"
     inkscape:current-layer="svg91" />
  <path
     style="fill:#030303"
     d="m 166.60034,481.66513 c -6.64716,-2.78813 -12.43319,-6.85292 -16.30189,-11.45239 -1.52073,-1.80799 -14.40253,-23.40799 -28.62622,-48 -15.72279,-27.18389 -26.358543,-44.57645 -27.129753,-44.36509 -14.28285,3.91443 -17.55376,4.3747 -27.71327,3.89974 -18.41212,-0.86076 -33.07252,-7.16309 -46.00873,-19.7786 -32.04592,-31.25148 -26.2951997,-84.60991 11.71453,-108.69401 4.25643,-2.697 25.60583,-15.19851 47.44311,-27.78114 l 39.704153,-22.87751 67.99787,-86.55807 c 43.65691,-55.573165 69.27824,-87.373532 71.57464,-88.836128 12.23267,-7.791059 28.39683,-5.682297 38.06414,4.965812 2.17528,2.395974 12.28005,18.90189 22.45505,36.679815 l 18.5,32.323501 11,-0.62261 c 6.05,-0.34243 15.53671,-0.896794 21.08157,-1.231924 l 10.08158,-0.60932 3.13923,2.886404 c 3.55031,3.26435 24.19762,38.79143 24.19762,41.63596 0,2.73979 -2.26163,6.68794 -13.2123,23.06486 l -9.90589,14.81444 2.95973,5.18556 c 1.62785,2.85207 9.52104,16.59422 17.54041,30.53813 8.01937,13.9439 15.03658,26.9939 15.59379,29 4.51079,16.23997 -6.13132,33.88616 -22.3506,37.06057 -2.81883,0.5517 -15.47514,3.02142 -28.12514,5.48827 -12.65,2.46686 -35.6,6.96327 -51,9.99202 -15.4,3.02875 -47.79993,9.3917 -71.99984,14.13988 -24.19991,4.74817 -44.17302,8.80623 -44.38469,9.0179 -0.21167,0.21166 2.6411,5.68674 6.33948,12.16682 7.09879,12.4381 8.09209,16.27196 5.31424,20.51149 -0.89116,1.36009 -7.7288,5.97085 -15.19474,10.24614 -7.46595,4.2753 -13.57445,7.96569 -13.57445,8.20087 0,0.23519 7.05546,12.66668 15.67879,27.62555 17.55335,30.44971 19.71844,35.7055 19.03104,46.19793 -0.6689,10.2099 -3.80716,17.46187 -10.78419,24.92034 -8.32214,8.89639 -15.23749,11.95128 -27.92564,12.3363 -8.15635,0.2475 -10.30246,-0.0483 -15.17363,-2.09151 z m 25.86726,-21.2526 c 7.1653,-5.70093 10.08456,-15.22095 6.96032,-22.69832 -1.02498,-2.45313 -49.95547,-88.03458 -51.18465,-89.52408 -0.14064,-0.17044 -7.94043,4.10456 -17.33287,9.5 -11.73943,6.74365 -16.92251,10.24599 -16.58241,11.20518 1.28803,3.63268 49.96543,86.93657 52.1757,89.29071 4.27054,4.54851 8.0546,5.91056 15.46391,5.56613 5.68923,-0.26447 7.26479,-0.76559 10.5,-3.33962 z M 87.273967,358.86656 c 4.69448,-1.90917 76.236393,-42.38143 83.685403,-47.342 1.4938,-0.99477 -1.14091,-6.00522 -23.1757,-44.07346 -13.67361,-23.62311 -25.23204,-42.87494 -25.6854,-42.78185 -1.77119,0.36368 -78.102903,44.76465 -82.581433,48.03634 -8.65545,6.32304 -15.23712,16.41584 -18.2512,27.98771 -6.59068,25.30333 9.66103,52.48322 35.77288,59.82772 7.95905,2.23865 22.63767,1.43545 30.23545,-1.65446 z m -25.50648,-17.8009 c -7.14018,-2.17195 -14.79197,-7.94642 -17.57884,-13.266 -3.18885,-6.08686 -0.84025,-12.84405 5.15153,-14.82151 4.55216,-1.50235 7.07276,-0.53317 12.12017,4.66023 6.00453,6.17821 8.61101,5.98244 21.81362,-1.63838 12.32321,-7.11322 15.99202,-7.66182 20.576923,-3.07692 3.54642,3.54641 3.91362,8.54794 0.9081,12.36884 -2.11988,2.69498 -20.262923,13.5635 -25.953143,15.54712 -3.687,1.2853 -13.14448,1.41108 -17.03836,0.22662 z m 66.384783,-32.5108 c -6.84582,-2.96144 -8.52568,-10.56132 -3.45522,-15.63178 5.50018,-5.50019 15.23414,-2.93238 16.60608,4.38066 1.49867,7.98862 -5.95378,14.36452 -13.15086,11.25112 z m 53.99089,42.80672 c 3.37195,-2.00114 7.12304,-4.24823 8.33578,-4.99355 l 2.20496,-1.35512 -4.5532,-7.75646 c -2.50426,-4.26605 -4.84871,-8.07367 -5.2099,-8.46139 -0.49174,-0.52785 -14.62835,6.78138 -17.01579,8.79789 -0.43697,0.36908 9.02513,17.40705 9.66707,17.40705 0.24215,0 3.19913,-1.63729 6.57108,-3.63842 z m 96.23045,-65.38112 c 47.72503,-9.36075 86.89561,-17.14238 87.04575,-17.29252 C 365.69912,268.40818 251.66203,70.554729 250.62099,69.513691 249.88124,68.773936 139.27397,209.64653 139.27397,211.32846 c 0,0.99557 51.53471,91.53424 52.16343,91.64321 0.0899,0.0156 39.21118,-7.63046 86.93621,-16.99121 z m 119.0792,-23.9936 c 2.57505,-1.62985 4.32116,-5.09846 4.32116,-8.5839 0,-2.23216 -114.91744,-203.099594 -118.77794,-207.615315 -0.80514,-0.941795 -2.9717,-2.209975 -4.81458,-2.818178 -4.22506,-1.394398 -7.55591,0.07543 -11.61652,5.12612 l -2.89075,3.595588 57.6672,99.904415 c 31.71696,54.94742 59.39438,102.87361 61.50537,106.50263 l 3.83816,6.59823 4.29453,-0.66526 c 2.36199,-0.3659 5.27501,-1.28585 6.47337,-2.04433 z m -17.38301,-109.87667 5.79583,-8.85843 -6.91453,-11.87588 -6.91453,-11.87588 -9.8813,0.35042 c -5.43472,0.19273 -10.36865,0.64273 -10.96429,1 -1.06026,0.63595 21.03234,40.16742 22.42928,40.13389 0.35954,-0.009 3.26183,-4.00198 6.44954,-8.87412 z m 86.2527,9.36528 c -10.97331,-2.96219 -21.06994,-6.22086 -22.43695,-7.24148 -7.30365,-5.45297 -3.46593,-17.26369 5.59297,-17.21257 2.0875,0.0118 12.76169,2.46325 23.72043,5.44771 22.74009,6.19294 25.02957,7.53146 25.02957,14.63321 0,3.36414 -0.58358,4.62375 -3.24305,7 -1.9875,1.77582 -4.30162,2.87081 -5.97728,2.8283 -1.50382,-0.0382 -11.71238,-2.49297 -22.68569,-5.45517 z M 440.073,91.4969 c -1.18028,-0.82671 -2.66619,-3.07938 -3.30202,-5.00595 -0.97415,-2.951715 -0.86819,-4.072946 0.67347,-7.126226 1.62553,-3.219379 5.11761,-5.448669 31.31974,-19.99405 32.94877,-18.29059 34.66723,-18.86707 40.0867,-13.447597 3.68965,3.68965 3.9642,8.790367 0.67308,12.504784 -1.2375,1.396663 -15.23836,9.746757 -31.11302,18.555764 C 448.09234,93.80771 445.02823,94.967666 440.073,91.4969 Z M 389.10271,57.542239 c -3.76257,-1.63669 -5.3294,-4.203462 -5.32692,-8.726498 0.002,-3.449049 7.814,-34.126105 10.5904,-41.5870359 C 396.05511,2.690143 399.69523,0 404.14758,0 c 3.27245,0 8.3253,4.352683 9.08894,7.8294881 0.58771,2.6758239 -9.2576,42.0505199 -11.61644,46.4580609 -0.90201,1.685419 -6.5611,4.773546 -8.56399,4.673309 -0.43017,-0.02153 -2.20919,-0.659907 -3.95338,-1.418619 z"
     id="path101"
     inkscape:connector-curvature="0" />
</svg>
