<?xml version="1.0" encoding="UTF-8" standalone="no"?>
<!-- Created with Inkscape (http://www.inkscape.org/) -->

<svg
   xmlns:dc="http://purl.org/dc/elements/1.1/"
   xmlns:cc="http://creativecommons.org/ns#"
   xmlns:rdf="http://www.w3.org/1999/02/22-rdf-syntax-ns#"
   xmlns:svg="http://www.w3.org/2000/svg"
   xmlns="http://www.w3.org/2000/svg"
   xmlns:sodipodi="http://sodipodi.sourceforge.net/DTD/sodipodi-0.dtd"
   xmlns:inkscape="http://www.inkscape.org/namespaces/inkscape"
   version="1.1"
   id="svg61"
   width="511.65442"
   height="505.95523"
   viewBox="0 0 511.65442 505.95523"
   sodipodi:docname="rule-icon-3.svg"
   inkscape:version="0.92.4 (unknown)">
  <metadata
     id="metadata67">
    <rdf:RDF>
      <cc:Work
         rdf:about="">
        <dc:format>image/svg+xml</dc:format>
        <dc:type
           rdf:resource="http://purl.org/dc/dcmitype/StillImage" />
        <dc:title></dc:title>
      </cc:Work>
    </rdf:RDF>
  </metadata>
  <defs
     id="defs65" />
  <sodipodi:namedview
     pagecolor="#ffffff"
     bordercolor="#666666"
     borderopacity="1"
     objecttolerance="10"
     gridtolerance="10"
     guidetolerance="10"
     inkscape:pageopacity="0"
     inkscape:pageshadow="2"
     inkscape:window-width="1920"
     inkscape:window-height="1007"
     id="namedview63"
     showgrid="false"
     inkscape:zoom="0.42236328"
     inkscape:cx="1012.5774"
     inkscape:cy="-81.413426"
     inkscape:window-x="0"
     inkscape:window-y="24"
     inkscape:window-maximized="1"
     inkscape:current-layer="svg61" />
  <path
     style="fill:#010101"
     d="m 322.79489,504.86417 c -29.62665,-3.40422 -59.33709,-15.17765 -82.5,-32.69247 -3.3,-2.49532 -9.89541,-8.05805 -14.65646,-12.36161 l -8.65647,-7.82467 -60.84353,-0.0148 c -50.83837,-0.0124 -61.901276,-0.2641 -67.275866,-1.53093 -16.24388,-3.82878 -29.69317,-17.27807 -33.52196,-33.52194 -3.69614,-15.68103 -0.10286,-29.69075 10.62614,-41.42999 l 5.02883,-5.50234 -5.02883,-5.50234 c -16.23992,-17.76907 -16.23992,-43.22625 0,-60.99532 l 5.02883,-5.50234 -4.99362,-5.46382 c -16.24234,-17.7717 -16.25705,-43.28455 -0.0352,-61.03384 l 5.02883,-5.50234 -5.02883,-5.50234 c -16.69778,-18.27004 -16.04905,-45.25668 1.51004,-62.81577 10.66549,-10.66549 20.03847,-13.64475 42.997706,-13.66711 l 15.17961,-0.0148 -2.37879,-4.25611 c -7.083,-12.67288 -7.083,-30.8149 0,-43.487778 l 2.37879,-4.256114 -42.179606,-0.01478 C 49.316254,91.958648 40.071654,91.667509 34.862574,90.439691 12.037854,85.059741 -3.2853156,61.934166 0.60295443,38.735399 3.6501044,20.55498 17.371894,5.6537866 34.862574,1.5311074 40.431264,0.21852705 58.294664,0.01297715 167.90841,1.8065313e-4 248.58693,-0.00923935 296.47611,0.35011215 299.9084,0.99067992 316.53459,4.0936444 331.30807,18.33272 335.24918,35.05309 c 2.75782,11.700197 1.28663,23.576833 -4.04844,32.682328 l -2.49016,4.25 h 41.90567 c 23.72797,0 44.24219,0.434445 47.29215,1.001541 7.85052,1.459693 16.92185,6.425124 23.19084,12.694111 13.75545,13.755448 17.39223,34.91187 8.99111,52.30435 -3.68386,7.62653 -12.95085,17.02376 -20.57441,20.86354 -8.31474,4.18791 -14.20337,5.13646 -31.8874,5.13646 h -14.89337 l 2.27986,3.96181 c 2.06297,3.58491 3.13606,4.25797 11.27986,7.07492 86.48842,29.91639 133.9736,121.25063 108.49319,208.67864 -22.97997,78.84858 -100.58856,130.5171 -181.99319,121.16338 z m 48.5,-21.89715 c 59.85028,-12.53894 104.70441,-57.52564 117.63394,-117.9816 1.86817,-8.73519 2.2456,-13.60942 2.2456,-29 0,-15.39058 -0.37743,-20.26481 -2.2456,-29 -12.98565,-60.71839 -57.38167,-105.11285 -118.13394,-118.12978 -15.1439,-3.24477 -42.8561,-3.24477 -58.00001,0 -14.05863,3.01223 -25.95136,7.08123 -37.196,12.72628 -42.94849,21.56107 -72.14228,60.2193 -81.48619,107.9035 -2.69393,13.74772 -2.41321,41.57887 0.55979,55.5 4.32644,20.25865 11.66137,37.94991 22.3888,54 6.45648,9.66001 8.21276,11.78544 18.06144,21.85767 23.86492,24.40661 53.87885,39.34558 88.67217,44.13521 10.58677,1.45736 36.10008,0.37706 47.5,-2.01128 z M 319.6743,463.16898 c -2.62505,-2.34548 -3.15214,-3.54669 -3.15214,-7.18356 0,-3.63687 0.52709,-4.83808 3.15214,-7.18356 5.0607,-4.52174 13.28016,-3.15115 15.9259,2.65562 4.7019,10.31953 -7.4678,19.26881 -15.9259,11.7115 z m -38.44634,-12.21877 c -16.97469,-8.9292 -37.25036,-27.12752 -47.31217,-42.46479 -15.10359,-23.02246 -21.52136,-44.45845 -21.55625,-72 -0.0274,-21.60368 3.03059,-36.26737 11.49949,-55.14297 3.74164,-8.3394 6.78561,-11.35703 11.45615,-11.35703 4.7129,0 7.09596,1.35723 9.06344,5.16192 2.00226,3.87194 1.5664,6.26204 -3.01346,16.5249 -2.00938,4.50276 -4.83229,12.60276 -6.27312,18 -2.32394,8.70525 -2.61971,11.67607 -2.61971,26.31318 0,14.57973 0.30064,17.62534 2.58327,26.16954 8.322,31.15043 29.37755,57.9051 56.39476,71.65917 6.17354,3.14286 8.65606,6.76343 8.00157,11.66973 -0.66855,5.01174 -4.40864,8.50156 -9.11126,8.50156 -1.83848,0 -5.9392,-1.36584 -9.11271,-3.03521 z m 57.85106,-34.67838 c -3.63402,-0.68317 -7.28413,-5.87618 -7.28413,-10.36314 0,-2.64913 -0.44351,-3.92327 -1.36564,-3.92327 -0.75111,0 -4.51509,-1.5756 -8.36442,-3.50134 -12.60444,-6.30574 -20.98571,-18.08846 -22.01846,-30.95442 -0.46614,-5.80713 -0.30167,-6.45653 2.40144,-9.48183 6.47727,-7.24933 17.30122,-2.41651 17.36353,7.75269 0.0251,4.09657 4.0124,10.25865 8.82818,13.64331 4.02159,2.82648 4.94556,3.04159 13.06454,3.04159 7.88747,0 9.14678,-0.27125 12.9529,-2.79002 10.05706,-6.65545 11.81139,-18.31761 4.08009,-27.12307 -3.93595,-4.48281 -9.57954,-6.60518 -20.23593,-7.6101 -15.93696,-1.50288 -28.49577,-9.71035 -34.96496,-22.85042 -2.929,-5.9493 -3.24128,-7.45278 -3.24128,-15.605 0,-8.04506 0.33763,-9.72485 3.11976,-15.52139 1.74463,-3.63495 5.25419,-8.60603 7.96219,-11.27799 4.85628,-4.79163 15.13171,-10.72201 18.57778,-10.72201 1.51345,0 1.84028,-0.7964 1.84028,-4.48422 0,-3.53448 0.61371,-5.17109 2.89766,-7.72728 6.40516,-7.16861 17.10234,-2.33536 17.10234,7.72728 0,3.68782 0.32683,4.48422 1.84028,4.48422 3.8189,0 14.00695,6.14522 19.07875,11.50791 11.35592,12.00721 14.55229,29.95838 6.13636,34.46245 -5.88344,3.14872 -13.53481,-0.39532 -14.60241,-6.76369 -1.06999,-6.38261 -2.53665,-10.15265 -5.16471,-13.27592 -10.03243,-11.92287 -32.90271,-8.70135 -38.22465,5.38435 -3.51486,9.30285 2.57493,20.36705 12.93638,23.50337 1.925,0.58268 7.46,1.51978 12.30001,2.08243 15.76336,1.83251 28.25665,10.4708 34.48838,23.84646 2.28223,4.89853 2.68016,7.0889 2.68016,14.75264 0,7.65059 -0.39948,9.85733 -2.66433,14.71807 -3.76546,8.08126 -10.70063,15.09148 -19.07416,19.28059 -3.84933,1.92574 -7.61331,3.50134 -8.36442,3.50134 -0.84398,0 -1.36564,1.1211 -1.36564,2.9349 0,7.59459 -5.68836,12.67262 -12.71587,11.35151 z m 103.07619,-15.74658 c -2.66272,-1.86505 -4.74759,-6.86735 -4.07697,-9.78199 0.28573,-1.24181 2.15757,-5.94191 4.15965,-10.44466 2.00208,-4.50276 4.81902,-12.60276 6.25985,-18 2.32394,-8.70525 2.61971,-11.67607 2.61971,-26.31318 0,-14.57973 -0.30064,-17.62534 -2.58327,-26.16954 -8.322,-31.15043 -29.37755,-57.9051 -56.39476,-71.65917 -6.17355,-3.14286 -8.65607,-6.76343 -8.00158,-11.66973 0.68317,-5.12131 4.39666,-8.50156 9.33971,-8.50156 7.76484,0 28.39211,14.01245 42.59028,28.9323 36.83646,38.70882 45.87772,94.93355 23.25028,144.58619 -1.8041,3.95883 -4.33499,7.93669 -5.6242,8.83969 -2.90505,2.03477 -8.76137,2.12696 -11.5387,0.18165 z M 351.90496,224.58991 c -1.31446,-0.72855 -2.98601,-2.4001 -3.71456,-3.71456 -5.53566,-9.98753 7.15477,-19.73106 15.72508,-12.07349 2.62505,2.34548 3.15214,3.54669 3.15214,7.18356 0,3.63687 -0.52709,4.83808 -3.15214,7.18356 -3.48973,3.11808 -7.98829,3.65029 -12.01052,1.42093 z M 200.79489,431.50303 c 0,-0.26531 -1.87244,-3.52781 -4.16097,-7.25 -6.05088,-9.84145 -12.30244,-23.36383 -15.97637,-34.55757 l -3.21319,-9.78996 -42.57474,0.28996 c -41.458236,0.28236 -42.679626,0.34667 -46.574726,2.45233 -4.73029,2.55716 -9.55692,7.47118 -12.1182,12.33763 -1.31461,2.49777 -1.8421,5.64763 -1.8421,11 0,8.3075 1.46748,12.14393 6.82225,17.83532 3.20788,3.40954 7.17234,5.8739 11.63157,7.23034 2.68927,0.81804 108.006476,1.25874 108.006476,0.45195 z m -27.7466,-74.76761 c -0.96767,-4.51467 -0.92606,-32.70461 0.0613,-41.54237 l 0.81472,-7.29238 -40.81472,0.29238 c -39.650556,0.28403 -40.928786,0.35405 -44.814696,2.45474 -4.73029,2.55716 -9.55692,7.47118 -12.1182,12.33763 -1.31461,2.49777 -1.8421,5.64763 -1.8421,11 0,8.3075 1.46748,12.14393 6.82225,17.83532 3.20788,3.40954 7.17234,5.8739 11.63157,7.23034 1.37856,0.41934 20.157726,0.80111 41.731476,0.84839 l 39.225,0.086 -0.6966,-3.25 z m 8.78101,-78 c 4.00009,-11.18491 11.23787,-25.79534 17.41192,-35.14827 2.50452,-3.79405 4.55367,-7.07098 4.55367,-7.28206 0,-0.21109 -25.0875,-0.25687 -55.75,-0.10173 -54.977416,0.27815 -55.805426,0.31203 -59.749996,2.44443 -4.73029,2.55716 -9.55692,7.47118 -12.1182,12.33763 -1.31461,2.49777 -1.8421,5.64763 -1.8421,11 0,8.3075 1.46748,12.14393 6.82225,17.83532 3.20788,3.40954 7.17234,5.8739 11.63157,7.23034 1.37856,0.41934 21.232396,0.80111 44.119626,0.84839 l 41.61316,0.086 3.3081,-9.25 z m 48.06164,-70.5 c 32.35922,-27.82395 70.29689,-41.92335 113.90395,-42.33198 8.18591,-0.0767 9.79537,-0.3022 7.3028,-1.02312 -1.90529,-0.55106 -54.83936,-0.81768 -131,-0.65981 l -127.802796,0.26491 -4,2.16237 c -4.73029,2.55716 -9.55692,7.47118 -12.1182,12.33763 -1.31461,2.49777 -1.8421,5.64763 -1.8421,11 0,8.3075 1.46748,12.14393 6.82225,17.83532 3.20788,3.40954 7.17234,5.8739 11.63157,7.23034 1.37856,0.41934 30.762606,0.80111 65.297886,0.84839 l 62.7914,0.0859 9.01324,-7.75 z m 190.40395,-66.91237 c 4.73029,-2.55716 9.55691,-7.47118 12.1182,-12.33763 1.31461,-2.49777 1.8421,-5.64763 1.8421,-11 0,-5.35237 -0.52749,-8.50223 -1.8421,-11 -2.56129,-4.86645 -7.38791,-9.780472 -12.1182,-12.337631 l -4,-2.162371 h -130 -130 l -4,2.162371 c -4.73029,2.557159 -9.55691,7.471181 -12.1182,12.337631 -1.31461,2.49777 -1.8421,5.64763 -1.8421,11 0,8.3075 1.46749,12.14393 6.82225,17.83532 3.20214,3.40344 7.15336,5.86215 11.63158,7.23794 1.37856,0.42352 60.33147,0.69279 131.00647,0.59839 l 128.5,-0.17165 z M 302.29488,69.323047 c 4.73029,-2.55716 9.55691,-7.471184 12.1182,-12.337629 1.31461,-2.497775 1.8421,-5.647626 1.8421,-11 0,-5.352374 -0.52749,-8.502225 -1.8421,-11 -2.56129,-4.866445 -7.38791,-9.780469 -12.1182,-12.337629 l -4,-2.162371 H 168.29489 38.294894 l -4,2.162371 c -4.73029,2.55716 -9.55692,7.471184 -12.1182,12.337629 -1.31461,2.497775 -1.8421,5.647626 -1.8421,11 0,8.307504 1.46748,12.143926 6.82225,17.835319 3.20214,3.403437 7.15335,5.862148 11.63157,7.237942 1.37856,0.423519 60.33148,0.692794 131.006476,0.598387 l 128.49999,-0.171648 z"
     id="path164"
     inkscape:connector-curvature="0" />
</svg>
