<?xml version="1.0" encoding="UTF-8" standalone="no"?>
<!-- Created with Inkscape (http://www.inkscape.org/) -->

<svg
   xmlns:dc="http://purl.org/dc/elements/1.1/"
   xmlns:cc="http://creativecommons.org/ns#"
   xmlns:rdf="http://www.w3.org/1999/02/22-rdf-syntax-ns#"
   xmlns:svg="http://www.w3.org/2000/svg"
   xmlns="http://www.w3.org/2000/svg"
   xmlns:sodipodi="http://sodipodi.sourceforge.net/DTD/sodipodi-0.dtd"
   xmlns:inkscape="http://www.inkscape.org/namespaces/inkscape"
   version="1.1"
   id="svg81"
   width="546.0152"
   height="545.83875"
   viewBox="0 0 546.0152 545.83874"
   sodipodi:docname="rule-icon-1.svg"
   inkscape:version="0.92.4 (unknown)">
  <metadata
     id="metadata87">
    <rdf:RDF>
      <cc:Work
         rdf:about="">
        <dc:format>image/svg+xml</dc:format>
        <dc:type
           rdf:resource="http://purl.org/dc/dcmitype/StillImage" />
        <dc:title></dc:title>
      </cc:Work>
    </rdf:RDF>
  </metadata>
  <defs
     id="defs85" />
  <sodipodi:namedview
     pagecolor="#ffffff"
     bordercolor="#666666"
     borderopacity="1"
     objecttolerance="10"
     gridtolerance="10"
     guidetolerance="10"
     inkscape:pageopacity="0"
     inkscape:pageshadow="2"
     inkscape:window-width="1920"
     inkscape:window-height="1007"
     id="namedview83"
     showgrid="false"
     inkscape:zoom="0.43212893"
     inkscape:cx="1041.3227"
     inkscape:cy="291.53465"
     inkscape:window-x="0"
     inkscape:window-y="24"
     inkscape:window-maximized="1"
     inkscape:current-layer="svg81" />
  <path
     style="fill:#070707;stroke-width:1.0666666"
     d="M 251.70017,545.13775 C 206.83115,541.64835 159.97705,525.45762 122.63351,500.53792 82.204808,473.55948 49.990848,437.07786 28.455868,393.88375 -9.4818523,317.78962 -9.4853923,227.86487 28.445868,151.75043 55.095858,98.274152 98.324308,55.027494 151.96636,28.177932 174.47112,16.913581 204.57686,7.1503731 229.29969,3.0989551 c 24.73734,-4.05379801 58.82,-4.1376 85.15221,-0.209371 45.16815,6.738167 91.50017,26.9397299 127.87411,55.7553269 11.41431,9.042465 30.84022,28.118301 41.04523,40.305531 25.64236,30.623168 45.37887,70.001288 55.13978,110.014458 14.66524,60.1176 7.62694,126.3429 -19.28548,181.46269 -4.07898,8.35422 -8.17536,16.02949 -9.10308,17.05616 -2.31035,2.55677 -8.27793,2.41152 -10.95612,-0.26667 -1.17333,-1.17333 -2.13333,-3.52184 -2.13333,-5.21892 0,-1.69707 3.32547,-9.97707 7.38993,-18.4 11.67938,-24.20359 19.34582,-49.41506 23.1453,-76.11441 2.70231,-18.98946 2.46035,-52.96629 -0.51701,-72.59948 C 519.50512,185.1238 497.66709,138.77282 464.24661,101.58209 399.76137,29.822128 300.77311,-0.08413891 208.42414,24.293184 186.63754,30.044183 170.06718,36.582226 150.89969,46.990173 114.6391,66.679681 82.576338,95.820292 59.734998,129.84626 c -6.36411,9.48041 -17.16389,28.70383 -21.29467,37.90417 -4.20391,9.36321 -10.71616,28.27791 -13.92945,40.45778 -10.95298,41.51692 -10.95298,87.70084 0,129.21776 12.99672,49.26368 39.47265,92.67525 77.140602,126.4845 37.41279,33.58022 83.62046,55.36844 133.44872,62.92483 19.63319,2.97736 53.61002,3.21932 72.59948,0.51701 46.11135,-6.56192 91.54355,-26.30198 127.2689,-55.29767 11.71912,-9.51157 30.40957,-28.45312 40.03307,-40.57089 7.58885,-9.5558 8.5585,-10.4 11.94532,-10.4 4.76872,0 7.9527,3.12499 7.9527,7.80536 0,4.56201 -10.1966,17.57896 -27.57144,35.19758 -35.84869,36.3517 -78.41383,60.80552 -128.16188,73.62946 -25.9699,6.69446 -59.85058,9.56925 -87.46666,7.4216 z m 0,-47.90699 C 213.10353,492.59347 184.18547,482.67801 153.03351,463.3998 100.21119,430.71102 62.143858,374.07544 51.017978,311.62376 c -2.08724,-11.71606 -2.45092,-17.43241 -2.46894,-38.80667 -0.0182,-21.59545 0.32077,-26.96937 2.44781,-38.80667 8.4984,-47.29491 31.33525,-89.99345 65.991492,-123.38568 20.18937,-19.453018 30.37106,-26.051478 35.40134,-22.942588 1.82103,1.12546 4.94145,6.3016 16.11706,26.734948 29.36957,53.69892 29.37421,53.71024 23.84958,58.05591 -6.26784,4.93028 -10.22851,1.5318 -20.4212,-17.52258 -13.57746,-25.38191 -24.87755,-45.85526 -25.85007,-46.83482 -2.04578,-2.0606 -25.49163,20.27793 -37.56098,35.787 -14.381812,18.48059 -26.937312,41.8965 -34.252302,63.88029 -12.30903,36.99239 -13.33727,83.42769 -2.69193,121.56752 5.0663,18.15137 16.03975,41.96185 26.79171,58.13333 33.046122,49.703 83.218202,82.13159 142.128622,91.86444 22.25373,3.67664 59.99679,2.31104 81.06666,-2.93312 11.35558,-2.82633 21.86667,-6.45661 21.86667,-7.55221 0,-0.67044 -4.0137,-8.45502 -8.91932,-17.29905 -4.90562,-8.84403 -13.36955,-24.24006 -18.80873,-34.2134 -5.43917,-9.97333 -13.58826,-24.85333 -18.10909,-33.06666 -4.52083,-8.21333 -11.72811,-21.41333 -16.01617,-29.33333 -4.28807,-7.92 -8.45634,-15.48 -9.26285,-16.8 l -1.46636,-2.4 h -77.3617 c -81.94356,0 -82.20537,-0.0152 -84.05984,-4.84779 -0.36443,-0.94968 -0.6626,-19.17259 -0.6626,-40.49537 V 251.6386 l 2.81052,-2.21076 c 2.75901,-2.17023 3.79722,-2.21075 56.64745,-2.21075 49.58941,0 53.78366,-0.13884 53.16164,-1.75978 -0.37141,-0.96789 -6.42276,-12.23809 -13.44745,-25.04492 -7.02468,-12.80683 -12.77216,-24.38812 -12.77216,-25.7362 0,-5.5553 5.6792,-9.29144 11.03079,-7.25676 2.74872,1.04506 3.61704,2.49044 24.7094,41.131 5.76429,10.56 14.3011,26.15999 18.97067,34.66666 16.75496,30.52281 33.68713,61.46496 48.73909,89.06666 5.43875,9.97333 12.42311,22.69333 15.5208,28.26667 3.09771,5.57333 8.48796,15.41333 11.97834,21.86666 3.49038,6.45334 10.55951,19.41333 15.70918,28.8 24.12523,43.97473 23.50452,42.53225 20.28176,47.13338 -3.02048,4.31235 -28.19628,12.56025 -50.14004,16.42651 -9.56178,1.68468 -18.33197,2.33708 -34.66666,2.57878 -12.02667,0.17797 -23.54667,0.12171 -25.6,-0.12499 z M 189.83351,290.95042 v -27.73333 h -32.53334 -32.53333 v 27.73333 27.73333 h 32.53333 32.53334 z m 68.69701,22.13333 c -1.54306,-3.08 -6.52539,-12.32 -11.07186,-20.53333 -4.54645,-8.21333 -10.03552,-18.17333 -12.19793,-22.13333 l -3.93163,-7.2 h -12.21447 -12.21446 v 27.73333 27.73333 h 27.21797 27.21796 z m 136.37562,145.22544 c -3.15859,-1.16844 -5.90244,-5.81403 -33.32687,-56.42544 -3.33788,-6.16 -11.74347,-21.52 -18.67911,-34.13333 -6.93563,-12.61334 -15.34814,-27.97333 -18.69446,-34.13333 -3.34631,-6.16 -10.23193,-18.75841 -15.30135,-27.99647 -5.06943,-9.23806 -13.29423,-24.23806 -18.27734,-33.33333 -4.9831,-9.09528 -13.20498,-24.09687 -18.27083,-33.33686 -5.06587,-9.24 -11.94857,-21.84 -15.29488,-28 -3.34633,-6.16 -11.75883,-21.52 -18.69446,-34.13333 -6.93564,-12.61334 -15.34437,-27.97334 -18.68607,-34.13334 -3.34171,-6.16 -10.28921,-18.87999 -15.43888,-28.26666 -24.23472,-44.174315 -23.70315,-42.917044 -20.00838,-47.322929 3.87981,-4.626563 30.358,-13.028211 53.06666,-16.838291 18.06178,-3.030422 56.00826,-2.751753 74.54,0.547403 46.85803,8.34201 89.9685,31.267659 122.85945,65.335227 32.43002,33.59015 52.72777,73.88843 60.91865,120.94525 2.6266,15.08993 2.62577,56.40388 -10e-4,71.42085 -8.77212,50.14082 -31.18038,92.61145 -66.99648,126.97914 -11.87798,11.39763 -25.66723,22.32874 -29.22664,23.16876 -1.19521,0.28206 -3.21461,0.12758 -4.48756,-0.34332 z m 15.78716,-28.15878 c 18.82425,-16.03689 37.39965,-40.17884 49.41267,-64.22038 15.14597,-30.31144 21.39715,-57.51439 21.39715,-93.11294 0,-36.05779 -6.27251,-62.97813 -21.93012,-94.11957 C 429.48842,118.86228 372.59216,77.334746 305.56683,66.291255 c -22.46865,-3.702069 -59.85402,-2.351834 -81.06666,2.92786 -11.35558,2.826333 -21.86667,6.456605 -21.86667,7.552215 0,0.670439 4.0137,8.455012 8.91932,17.299042 4.90562,8.844028 13.37193,24.240058 18.81402,34.213398 5.44209,9.97333 13.97428,25.57333 18.96044,34.66666 4.98617,9.09333 11.56637,21.09333 14.6227,26.66667 3.05632,5.57333 10.25969,18.77333 16.00749,29.33333 5.74779,10.56 11.60151,21.24 13.00825,23.73333 l 2.55771,4.53333 h 43.68836 c 48.01516,0 46.66314,0.21012 40.57617,-6.306 -5.52621,-5.91584 -13.34008,-8.6373 -27.99282,-9.74954 -15.56955,-1.18182 -23.25842,-3.0186 -33.74019,-8.06013 -9.60594,-4.62026 -21.53333,-15.57164 -26.97162,-24.76455 -2.21564,-3.74533 -6.14903,-8.2918 -9.39018,-10.85378 -13.51595,-10.68374 -20.974,-32.48329 -17.24717,-50.41274 3.05865,-14.71484 14.56029,-29.779 27.13044,-35.5338 17.24172,-7.893518 40.29788,-7.382458 58.08479,1.2875 7.80753,3.80566 17.50253,12.10411 23.32475,19.96485 6.12678,8.27192 14.34731,24.91102 16.8196,34.04437 1.73726,6.41799 2.31973,7.27281 7.03948,10.33111 15.36744,9.95775 27.25606,32.75935 29.90465,57.35518 1.09329,10.1526 1.00843,12.6205 -0.72545,21.09753 -1.6367,8.00195 -2.01563,15.72586 -2.27634,46.4 -0.2122,24.96785 -0.70516,37.55525 -1.53319,39.14897 -2.16572,4.16841 -6.03759,4.58436 -42.67372,4.58436 -19.27246,0 -35.04083,0.25294 -35.04083,0.56209 0,0.30914 5.5973,10.74914 12.43845,23.2 6.84116,12.45085 15.17127,27.67791 18.51135,33.83791 22.79993,42.04895 24.48871,44.99321 25.57907,44.59515 0.4949,-0.18067 4.84382,-3.68849 9.66427,-7.79516 z M 374.36683,290.95042 v -27.73333 h -34.66667 c -19.06666,0 -34.65991,0.36 -34.65165,0.8 0.009,0.44 1.85249,4.16 4.09831,8.26667 2.24582,4.10666 8.54453,15.62666 13.99714,25.6 5.45261,9.97333 10.38714,18.73333 10.96562,19.46666 0.77319,0.98014 6.24442,1.33333 20.65452,1.33333 h 19.60273 z m 33.06666,0 v -27.73333 h -8 -8 v 27.73333 27.73333 h 8 8 z m 2.52769,-46.13333 c 1.2744,-4.75538 0.64701,-22.63402 -1.03631,-29.53185 -3.95262,-16.19683 -14.11148,-31.07176 -25.67906,-37.6001 -4.82929,-2.72548 -5.81178,-3.8296 -6.78719,-7.62741 -5.61121,-21.84766 -12.07709,-34.26137 -23.32264,-44.77665 -10.90497,-10.19681 -27.3076,-15.15294 -41.87966,-12.65411 -14.65791,2.51355 -22.92171,8.43273 -28.49188,20.40812 -2.30072,4.94638 -2.74206,7.4005 -2.69427,14.98201 0.0848,13.4593 4.77953,22.21787 16.0744,29.98895 3.02681,2.0825 5.61615,5.1286 7.42723,8.7374 6.22599,12.40603 16.84403,21.29776 30.2174,25.30457 3.83769,1.14981 12.97763,2.53386 20.31096,3.07565 13.85147,1.02338 22.22384,3.30444 29.95582,8.16152 5.63359,3.53891 12.22977,11.52999 14.96536,18.13009 2.29857,5.54573 2.57888,5.80181 6.35069,5.80181 3.19044,0 4.06913,-0.45953 4.58915,-2.4 z"
     id="path122"
     inkscape:connector-curvature="0" />
</svg>
