<?xml version="1.0" encoding="UTF-8" standalone="no"?>
<!-- Created with Inkscape (http://www.inkscape.org/) -->

<svg
   xmlns:dc="http://purl.org/dc/elements/1.1/"
   xmlns:cc="http://creativecommons.org/ns#"
   xmlns:rdf="http://www.w3.org/1999/02/22-rdf-syntax-ns#"
   xmlns:svg="http://www.w3.org/2000/svg"
   xmlns="http://www.w3.org/2000/svg"
   xmlns:sodipodi="http://sodipodi.sourceforge.net/DTD/sodipodi-0.dtd"
   xmlns:inkscape="http://www.inkscape.org/namespaces/inkscape"
   version="1.1"
   id="svg71"
   width="511.97021"
   height="511.90201"
   viewBox="0 0 511.97021 511.90201"
   sodipodi:docname="rule-icon-4.svg"
   inkscape:version="0.92.4 (unknown)">
  <metadata
     id="metadata77">
    <rdf:RDF>
      <cc:Work
         rdf:about="">
        <dc:format>image/svg+xml</dc:format>
        <dc:type
           rdf:resource="http://purl.org/dc/dcmitype/StillImage" />
        <dc:title></dc:title>
      </cc:Work>
    </rdf:RDF>
  </metadata>
  <defs
     id="defs75" />
  <sodipodi:namedview
     pagecolor="#ffffff"
     bordercolor="#666666"
     borderopacity="1"
     objecttolerance="10"
     gridtolerance="10"
     guidetolerance="10"
     inkscape:pageopacity="0"
     inkscape:pageshadow="2"
     inkscape:window-width="1920"
     inkscape:window-height="1007"
     id="namedview73"
     showgrid="false"
     inkscape:zoom="0.4609375"
     inkscape:cx="1175.8644"
     inkscape:cy="284.20339"
     inkscape:window-x="0"
     inkscape:window-y="24"
     inkscape:window-maximized="1"
     inkscape:current-layer="svg71" />
  <path
     style="fill:#030303"
     d="m 0.01737,432.15201 c 0.019,-87.22152 0.0228,-87.2864 5.87334,-99.49572 6.47315,-13.50867 19.89025,-25.59455 34.17373,-30.78309 6.13818,-2.22972 8.02978,-2.36393 40.93556,-2.90447 38.43743,-0.6314 38.24974,-0.59818 43.69831,-7.7338 2.69177,-3.52523 2.81365,-4.18246 3.10654,-16.75106 l 0.30485,-13.08186 -4.80485,-2.97058 C 115.9726,253.8983 102.90286,240.29247 98.0935,232.18598 87.82246,214.87345 85.01503,201.55586 85.0059,170.10235 c -0.005,-15.67113 0.32069,-20.9312 1.42643,-23.06947 1.21371,-2.34707 12.67924,-8.06284 75.12327,-37.45034 52.0091,-24.476591 74.69852,-34.680531 77.11542,-34.680531 4.62081,0 7.28556,3.07473 11.15826,12.87499 C 255.353,101.75531 256,108.6361 256,153.40201 c 0,44.64326 -0.67095,51.8503 -6.08609,65.37398 -1.65904,4.14324 -4.65645,10.23294 -6.66093,13.53267 -4.6639,7.6776 -15.94926,19.56198 -24.09709,25.37616 l -6.35284,4.53329 0.34847,12.09195 c 0.39718,13.78172 1.91417,17.6039 8.64889,21.79154 3.62028,2.2511 4.43915,2.31293 38.19959,2.88448 23.51534,0.3981 35.77358,0.98653 38.5,1.8481 13.68529,4.32467 28.95274,16.73179 35.15385,28.56783 6.38088,12.17919 6.69837,13.91971 7.2961,39.99883 l 0.55005,23.99882 12.3321,-22.26859 c 11.20267,-20.22916 12.50521,-23.11394 14.2224,-31.49883 2.75437,-13.4494 7.56455,-22.53081 16.85474,-31.82099 5.53112,-5.53113 9.62577,-8.58716 15.09076,-11.26297 12.7375,-6.23663 16.32695,-6.60942 63.82692,-6.62891 l 42.32693,-0.0174 3.06437,3.06437 c 3.022,3.02201 3.05558,3.16832 2.42882,10.58287 -1.66121,19.65211 -13.30871,37.56767 -30.64704,47.13963 -7.9768,4.40374 -14.39771,6.30172 -23.8541,7.0511 l -8.35411,0.66203 -41.58622,76.75 -41.58623,76.75 h -9.70703 -9.70703 L 387.2035,436.2209 c 22.54903,-41.62458 41.2291,-76.2827 41.51128,-77.01803 0.42128,-1.09786 -3.84434,-1.28904 -23.85087,-1.06894 L 380.5,358.40197 359.99715,395.23466 c -11.27656,20.25798 -21.37507,37.47048 -22.44113,38.25 -3.1213,2.28235 -7.88322,1.76213 -10.63171,-1.16146 L 324.5,429.74442 324,388.5732 l -0.5,-41.17123 -3.20861,-6.77383 c -4.21516,-8.89879 -12.11877,-16.8024 -21.01756,-21.01756 L 292.5,316.40197 h -17.26641 -17.26641 l -40.73359,53.99897 c -26.50748,35.13997 -41.70638,54.46087 -43.51899,55.32153 -5.90616,2.80436 -5.78716,2.9425 -47.27592,-54.88057 L 87.37736,316.40197 70.93868,316.09958 c -19.3636,-0.3562 -25.91974,0.93861 -34.809,6.87463 -9.16725,6.12166 -15.68661,15.79897 -18.0053,26.72698 C 17.34646,353.36753 17,379.17389 17,433.45119 v 78.45078 H 8.5 0 Z m 184.9928,-47.25 13.11416,-17.5 -13.00238,-0.27861 c -7.15131,-0.15323 -19.126,-0.15323 -26.61044,0 l -13.60807,0.27861 12.75052,17.76592 c 7.01278,9.77126 13.08611,17.64626 13.49628,17.5 0.41017,-0.14626 6.64714,-8.14092 13.85993,-17.76592 z m 39.1527,-51.86152 12.64183,-16.86152 -7.65235,-0.63675 c -13.93499,-1.15952 -24.35636,-8.29128 -29.94105,-20.48985 -2.04839,-4.47426 -2.64917,-7.61638 -3.01075,-15.74637 l -0.45171,-10.15671 -5.12442,1.41909 c -8.75261,2.42384 -26.80333,2.71888 -36.77116,0.60104 l -8.64674,-1.83716 -0.39946,10.53488 c -0.30134,7.94737 -0.91885,11.68327 -2.51415,15.21054 -4.83897,10.69915 -16.47175,19.06643 -28.38067,20.41377 l -5.69682,0.64452 12.0717,16.88302 12.0717,16.88302 h 39.58111 39.58112 z m 241.1363,5.85083 c 12.24986,-3.78359 22.99999,-14.21327 27.08155,-26.27426 0.89061,-2.63172 1.61928,-4.99422 1.61928,-5.25 0,-0.93889 -69.89333,-0.43351 -75.04035,0.5426 -15.60625,2.95967 -29.08691,15.34693 -33.45591,30.74235 l -0.63852,2.25 h 36.96206 c 34.20244,0 37.44808,-0.15012 43.47189,-2.01069 z M 190.5,252.89783 c 10.9904,-3.41127 19.15793,-8.47617 28.07147,-17.40789 8.98244,-9.00076 12.92456,-15.24362 17.10496,-27.08793 l 2.82357,-8 v -45.5 c 0,-41.06998 -0.18087,-46.20588 -1.85772,-52.75 -1.02174,-3.987501 -2.2866,-7.250001 -2.81078,-7.250001 -1.1885,0 -128.81761,59.956661 -130.71014,61.404041 -1.12402,0.85964 -1.28004,4.8442 -0.84477,21.57516 0.6081,23.37427 1.51893,28.07426 7.9496,41.0208 9.15458,18.43047 29.51959,33.16244 50.27381,36.36789 6.83565,1.05575 23.09932,-0.2302 30,-2.37207 z M 59,500.03687 c 0,-10.45399 -0.24422,-12.17563 -2.0535,-14.47575 -3.0354,-3.85888 -9.5213,-18.21566 -11.59191,-25.65911 -2.61996,-9.41827 -2.58631,-33.93677 0.059,-43 2.58345,-8.85123 6.61438,-17.66843 12.1041,-26.47631 l 4.59868,-7.37829 6.45816,4.04925 c 3.55199,2.22709 6.69796,4.43725 6.99104,4.91147 0.29309,0.47422 -1.75309,4.60309 -4.54706,9.17526 -7.22744,11.82726 -10.08463,20.81742 -10.74714,33.81584 -0.84632,16.60463 3.15858,30.49517 12.50203,43.36191 l 3.66053,5.04087 0.39423,14.25 0.39423,14.25 h -9.1112 -9.11121 z m 206,-2.38806 v -14.25319 l 3.62116,-4.99681 c 16.17963,-22.32609 16.96262,-53.48451 1.9344,-76.9774 -6.2726,-9.80565 -6.33904,-8.84531 0.92949,-13.4358 3.55626,-2.24598 6.89675,-4.0836 7.42332,-4.0836 1.3925,0 10.86898,16.05264 13.61902,23.06988 9.8755,25.19923 6.86285,56.51462 -7.43631,77.29774 C 282.0733,488.65583 282,489.0367 282,500.33219 v 11.56982 H 273.5 265 Z M 93.97042,280.84356 c -23.52523,-3.4655 -43.39369,-21.4907 -49.44987,-44.86224 -1.42589,-5.50271 -1.58007,-13.565 -1.2892,-67.41475 l 0.33037,-61.16456 2.60398,-9.500001 C 56.8251,59.013632 79.47554,30.670214 113.613,13.502445 130.49262,5.0136652 146.05232,1.0715022 166,0.22981518 222.60866,-2.1587738 275.48227,34.794326 292.33973,88.528009 298.41009,107.87747 298.5,109.10887 298.5,172.90201 c 0,57.64519 -0.0324,58.60229 -2.21792,65.5 -6.37656,20.12518 -22.63362,35.937 -42.11794,40.96444 -3.48473,0.89915 -10.23473,1.72498 -15,1.83519 l -8.66414,0.20037 -0.28694,-8.03304 -0.28693,-8.03303 10.60933,-1.11533 c 8.35615,-0.87846 11.94086,-1.77083 16.87898,-4.20186 12.60434,-6.2051 21.47686,-18.55127 23.64916,-32.90798 0.74533,-4.92584 0.95551,-24.3908 0.64788,-60 -0.37665,-43.59942 -0.73536,-54 -2.07557,-60.1802 C 269.34926,59.495189 233.73377,25.440477 187,18.354276 163.84612,14.843473 143.09301,18.189685 121.5,28.915434 95.2408,41.95899 76.10544,63.316184 66.43427,90.374929 60.12523,108.02684 59.90453,111.03446 60.21848,175.0797 l 0.28152,57.42919 3.75918,7.60461 c 7.21236,14.59018 18.80062,22.23846 36.49082,24.08404 L 111,265.2669 v 8.31756 8.31755 l -5.75,-0.12194 c -3.1625,-0.0671 -8.23831,-0.4885 -11.27958,-0.93651 z m 283.95389,-70.51991 c -2.35612,-2.50584 -2.43358,-3.09654 -2.75373,-21 l -0.32942,-18.42164 -9.17058,-0.0174 c -16.41975,-0.0311 -26.74575,-3.32367 -35.37821,-11.28079 -6.0857,-5.6096 -9.7504,-11.15612 -12.22546,-18.50323 C 316.08833,135.22731 316,132.85281 316,85.538889 316,39.085395 316.11922,35.726687 317.98224,29.694941 321.6737,17.74337 330.80344,7.9157672 343.04236,2.7192602 L 348.5,0.40200918 l 62,-0.319071 c 44.72934,-0.23019 63.53208,0.0076 67.5,0.853795 16.26493,3.46846902 29.82065,17.24154082 32.96996,33.49860382 0.80538,4.157468 1.06098,20.672754 0.84295,54.466672 -0.31148,48.277791 -0.32371,48.526771 -2.66981,54.343671 -4.49163,11.13652 -14.39138,20.6817 -25.84427,24.91862 -5.19729,1.9227 -8.29863,2.1852 -29.8967,2.53049 l -24.09787,0.38526 -20.8932,20.91098 c -19.42337,19.4399 -21.14538,20.91098 -24.47782,20.91098 -2.55914,0 -4.27815,-0.73761 -6.00893,-2.57836 z m 70.83583,-56.45827 c 25.42016,-0.51014 26.97564,-0.65193 31.5172,-2.87298 2.62754,-1.28499 6.32491,-4.14433 8.21637,-6.35408 6.57579,-7.68232 6.61299,-8.04505 6.29336,-61.355961 C 494.52053,38.82639 494.36683,35.151691 492.63805,31.902009 490.03894,27.016354 485.21539,22.113483 480.5,19.56438 476.52147,17.413617 476.16448,17.402009 414,17.402009 h -62.5 l -4.19371,2.241608 c -2.30654,1.232884 -5.76511,3.859627 -7.68571,5.837205 -6.55334,6.747757 -6.62169,7.371706 -6.61081,60.349327 l 0.01,47.571861 2.33177,5.00728 c 1.28247,2.754 4.05785,6.5228 6.1675,8.37509 6.64092,5.8308 9.18873,6.44535 28.66025,6.91306 22.83415,0.54847 22.16198,0.0324 22.68005,17.41307 l 0.35911,12.0478 14.40103,-14.37815 14.40102,-14.37815 26.73987,-0.53663 z M 358,119.40201 v -8.5 h 30 30 v 8.5 8.5 h -30 -30 z m 0,-34.000001 v -8.5 h 55.5 55.5 v 8.5 8.5 H 413.5 358 Z m 0.66667,-26.166667 C 358.3,58.868676 358,55.043676 358,50.735342 v -7.833333 h 30 30 v 8.5 8.5 h -29.33333 c -16.13334,0 -29.63334,-0.3 -30,-0.666667 z M 435,51.402009 v -8.5 h 17 17 v 8.5 8.5 h -17 -17 z"
     id="path143"
     inkscape:connector-curvature="0" />
</svg>
