<?xml version="1.0" encoding="UTF-8" standalone="no"?>
<!-- Created with Inkscape (http://www.inkscape.org/) -->

<svg
   xmlns:dc="http://purl.org/dc/elements/1.1/"
   xmlns:cc="http://creativecommons.org/ns#"
   xmlns:rdf="http://www.w3.org/1999/02/22-rdf-syntax-ns#"
   xmlns:svg="http://www.w3.org/2000/svg"
   xmlns="http://www.w3.org/2000/svg"
   xmlns:sodipodi="http://sodipodi.sourceforge.net/DTD/sodipodi-0.dtd"
   xmlns:inkscape="http://www.inkscape.org/namespaces/inkscape"
   version="1.1"
   id="svg45"
   width="546.05023"
   height="546.04132"
   viewBox="0 0 546.05023 546.04132"
   sodipodi:docname="target-icon.svg"
   inkscape:version="0.92.4 (unknown)">
  <path
     style="stroke-width:1.0666666"
     d="m 250.42031,543.09812 c -3.35602,-2.99859 -3.40279,-3.17665 -3.8806,-14.77358 l -0.48364,-11.7384 -11.86957,-1.27069 C 163.69099,507.7685 101.79134,469.3764 64.495159,410.06752 45.183009,379.35709 33.308599,344.09389 30.304889,308.53331 l -0.74331,-8.79999 -8.68898,-0.006 c -10.75521,-0.007 -15.9491102,-1.38358 -18.7738002,-4.97459 -2.56021003,-3.25479 -2.77487003,-6.77858 -0.66184,-10.86472 2.24808,-4.3473 5.90736,-5.48803 17.6048602,-5.48803 h 10.49116 l 0.72415,-8.26666 c 4.68473,-53.4793 26.40426,-101.15772 63.45798,-139.30212 21.973411,-22.62019 43.558101,-37.675823 72.052101,-50.257382 22.64318,-9.998119 48.01712,-16.56568 70.55194,-18.261023 l 9.73556,-0.732425 0.47589,-11.32352 c 0.29367,-6.987561 1.03664,-12.213452 1.9403,-13.647611 2.63387,-4.180144 9.44249,-5.899277 13.90512,-3.510954 3.91591,2.095732 5.27425,6.703505 5.27425,17.891379 v 10.562274 l 9.33333,0.710861 c 44.66066,3.401526 91.54032,22.718878 125.97649,51.910191 l 7.84317,6.6486 5.21058,-5.2108 5.21058,-5.2108 -2.72511,-22.806802 C 416.37605,69.823286 416.03664,64.152825 416.96246,61.917666 417.61601,60.339872 431.46788,45.762935 447.7444,29.524474 476.05483,1.2802483 477.51318,0 481.37622,0 c 4.71897,0 10.21915,4.6289432 10.35879,8.7179482 0.0466,1.3651278 0.89161,11.3587678 1.87775,22.2080868 l 1.79298,19.726036 20.78892,1.812199 c 11.43391,0.996709 21.42585,1.839992 22.20431,1.873962 0.77846,0.03397 2.81846,1.464842 4.53333,3.179713 2.34802,2.34802 3.11795,4.115104 3.11795,7.156088 0,3.863037 -1.28025,5.321389 -29.52448,33.631813 -16.23845,16.276524 -30.81539,30.128394 -32.39319,30.781944 -2.23516,0.92582 -7.90562,0.58641 -25.67552,-1.53685 l -22.8068,-2.72511 -5.24111,5.24088 -5.2411,5.24089 5.37192,6.21286 c 30.06072,34.76653 49.77827,81.99691 53.24748,127.54619 l 0.71086,9.33333 h 10.56228 c 11.18787,0 15.79565,1.35834 17.89138,5.27425 2.38832,4.46263 0.66918,11.27125 -3.51096,13.90512 -1.43925,0.90687 -6.68974,1.64783 -13.79076,1.9462 l -11.46666,0.48179 -0.0195,4.39632 c -0.027,6.0779 -2.61133,23.68273 -5.29215,36.05112 -7.02138,32.39411 -25.09905,68.4337 -47.52479,94.74519 -40.28627,47.26676 -94.21744,75.23097 -155.4302,80.59315 l -8.26666,0.72416 v 10.49115 c 0,11.6975 -1.14073,15.35678 -5.48803,17.60487 -4.44544,2.29883 -7.98443,1.84215 -11.74193,-1.51518 z M 246.59643,486.7 c 0.54484,-8.73302 0.78262,-9.48082 3.90052,-12.26666 3.58598,-3.20408 6.90819,-3.70091 11.31645,-1.69237 4.23354,1.92892 5.83687,6.10588 5.83687,15.20603 0,4.86111 0.43944,8.05297 1.1087,8.05297 11.95296,0 41.01342,-5.83636 56.27879,-11.30275 77.17739,-27.63653 131.01096,-96.38044 138.37214,-176.69724 l 0.75767,-8.26666 -6.25866,-0.006 c -12.54979,-0.012 -17.94351,-3.2749 -17.94351,-10.85508 0,-3.49233 0.64362,-4.86569 3.45926,-7.38147 3.20436,-2.86263 4.08679,-3.09039 11.97576,-3.09039 h 8.5165 l -0.0208,-2.93333 c -0.0457,-6.42918 -3.29034,-26.95916 -5.92182,-37.46876 -7.524,-30.04922 -23.72022,-61.1164 -43.99912,-84.3979 l -3.25186,-3.73333 -15.00319,14.91904 c -8.25176,8.20547 -15.0032,15.31785 -15.0032,15.80528 0,0.48742 2.1523,3.5284 4.78289,6.75773 15.57014,19.11398 26.95957,44.19832 32.43989,71.44636 12.7911,63.59702 -16.59139,132.02959 -71.90456,167.46753 -17.67839,11.32615 -32.11126,17.3884 -53.36069,22.41314 -11.86242,2.80503 -14.32917,3.01812 -35.15753,3.03713 -25.14665,0.0229 -34.46358,-1.4392 -55.22968,-8.6674 -46.31122,-16.11989 -85.81388,-56.33453 -100.43528,-102.24549 -6.441821,-20.22722 -7.436191,-27.1101 -7.473921,-51.73333 -0.033,-21.54086 0.14848,-23.70795 2.98901,-35.69086 5.042851,-21.27348 11.101921,-35.69398 22.420591,-53.36069 17.73434,-27.68056 45.59585,-50.66188 76.26143,-62.90356 48.71531,-19.44711 102.7641,-14.81803 146.99107,12.58924 5.38444,3.33671 12.43206,8.21905 15.66139,10.84965 3.22933,2.63059 6.27031,4.78289 6.75773,4.78289 0.48743,0 7.59981,-6.75144 15.80528,-15.0032 l 14.91904,-15.00319 -3.73333,-3.25186 C 369.16335,111.79147 338.01947,95.557176 308.08134,88.096314 296.87417,85.30338 277.50393,82.188873 271.11693,82.15287 l -3.46666,-0.01954 v 8.516504 c 0,7.888962 -0.22776,8.771402 -3.09084,11.975756 -2.51578,2.81564 -3.88914,3.45925 -7.38147,3.45925 -7.58018,0 -10.84315,-5.3937 -10.85507,-17.943497 l -0.006,-6.258653 -8.26666,0.757656 c -37.45547,3.432862 -74.88136,17.894044 -105.64529,40.820814 -3.34842,2.49541 -10.60233,8.71961 -16.11979,13.83156 -30.586361,28.33837 -52.455031,66.19016 -61.310131,106.11977 -2.17303,9.79864 -4.92478,28.72862 -4.92478,33.87879 0,0.66799 3.16008,1.1087 7.94981,1.1087 9.1846,0 12.93146,1.36508 15.06352,5.48803 2.28713,4.42283 1.84596,7.98017 -1.44669,11.66529 -2.78654,3.11868 -3.53233,3.3556 -12.28088,3.9014 l -9.31418,0.5811 0.63274,7.04876 c 2.78329,31.00597 13.58074,63.52968 29.86587,89.96101 35.198541,57.12841 97.180231,94.64579 163.246111,98.81251 2.08647,0.1316 2.29173,-0.53265 2.82985,-9.15808 z m 31.7205,-56.25157 c 15.26267,-2.31796 27.94048,-6.34288 42.13333,-13.37635 39.43854,-19.54434 67.02247,-54.97077 76.82865,-98.6721 2.38785,-10.6415 3.23762,-36.75994 1.58897,-48.83882 -1.70484,-12.49061 -6.35392,-29.09886 -10.98872,-39.25586 -4.22055,-9.24915 -14.11829,-25.36838 -19.12604,-31.14825 l -3.50286,-4.04292 -15.3048,15.36126 -15.30479,15.36126 3.77279,5.25144 c 5.50065,7.65651 13.15247,24.16283 15.75142,33.97856 3.28143,12.39346 3.31815,33.77095 0.0804,46.80212 -7.04018,28.33475 -26.67573,53.28538 -51.92832,65.98461 -14.98969,7.53816 -28.43545,10.62632 -46.03823,10.57389 -26.05205,-0.0777 -48.78042,-9.37174 -67.83292,-27.73841 -20.6284,-19.88583 -30.87772,-43.67801 -30.84554,-71.60299 0.0276,-24.01459 7.27126,-44.42827 22.58337,-63.64385 12.51834,-15.70961 34.80651,-29.41583 55.46839,-34.1106 11.82407,-2.68663 34.12153,-2.41416 45.3316,0.55395 9.81574,2.59895 26.32205,10.25077 33.97856,15.75142 l 5.25145,3.77279 15.36125,-15.30479 15.36126,-15.3048 -4.04292,-3.50286 c -2.22362,-1.92657 -8.36293,-6.20892 -13.64293,-9.51631 -25.71807,-16.10984 -49.96761,-22.44978 -81.57076,-21.32633 -29.06252,1.03313 -49.45108,7.53628 -74.46485,23.7514 -12.15547,7.87974 -31.05053,26.80652 -39.11902,39.18469 -23.02313,35.32061 -29.66895,75.49046 -19.27093,116.48071 13.81263,54.451 62.81524,97.68732 118.9589,104.96062 11.18008,1.44836 29.6203,1.2739 40.53333,-0.38348 z m -2.57062,-64.57556 c 4.64051,-1.16989 12.51729,-4.11996 17.50396,-6.55569 7.46689,-3.6472 10.87751,-6.23617 19.32956,-14.6729 8.86171,-8.84566 10.93202,-11.6278 15.16388,-20.37763 6.35333,-13.13618 8.48745,-22.23182 8.41967,-35.88457 -0.0644,-12.98471 -2.61593,-23.35404 -8.69899,-35.35325 -7.46525,-14.72567 -3.29391,-16.61435 -36.59887,16.57115 -29.02081,28.91673 -29.1947,29.06667 -33.70843,29.06667 -6.26295,0 -9.77349,-3.51054 -9.77349,-9.77349 0,-4.51373 0.14994,-4.68762 29.06667,-33.70843 33.1855,-33.30496 31.29682,-29.13362 16.57115,-36.59887 -12.21727,-6.19361 -22.45458,-8.6736 -35.94861,-8.70856 -13.65289,-0.0354 -21.51861,1.82574 -34.75587,8.22366 -21.20608,10.24944 -36.38239,29.20355 -42.28066,52.80543 -1.87398,7.49868 -2.16894,11.1355 -1.73021,21.33334 0.92539,21.50968 7.78767,37.06351 23.1143,52.39015 12.06829,12.06828 25.00782,19.07438 41.16309,22.28769 8.44447,1.67961 24.34332,1.17877 33.16285,-1.0447 z M 494.8119,91.238403 c 9.64556,-9.658874 17.299,-17.799982 17.00763,-18.09135 -0.29137,-0.291369 -6.26865,-1.061968 -13.28286,-1.712445 -16.4916,-1.529383 -19.52274,-2.492131 -21.25629,-6.751402 -0.74989,-1.842432 -1.9165,-9.322937 -2.59247,-16.623344 -0.67597,-7.300407 -1.47508,-13.519512 -1.7758,-13.820232 -0.30072,-0.30072 -8.47712,7.38359 -18.16977,17.076244 l -17.62301,17.623008 1.72956,16.463889 c 0.95127,9.055139 2.11122,17.183889 2.57769,18.063889 0.61593,1.16198 4.90559,2.07255 15.66923,3.32611 8.15161,0.94936 16.02656,1.78936 17.49991,1.86667 2.12357,0.11142 6.31362,-3.49929 20.21618,-17.421037 z"
     id="path55"
     inkscape:connector-curvature="0" />
</svg>
