<?xml version="1.0" encoding="UTF-8" standalone="no"?>
<!-- Created with Inkscape (http://www.inkscape.org/) -->

<svg
   xmlns:dc="http://purl.org/dc/elements/1.1/"
   xmlns:cc="http://creativecommons.org/ns#"
   xmlns:rdf="http://www.w3.org/1999/02/22-rdf-syntax-ns#"
   xmlns:svg="http://www.w3.org/2000/svg"
   xmlns="http://www.w3.org/2000/svg"
   xmlns:sodipodi="http://sodipodi.sourceforge.net/DTD/sodipodi-0.dtd"
   xmlns:inkscape="http://www.inkscape.org/namespaces/inkscape"
   version="1.1"
   id="svg80"
   width="265.44827"
   height="264.5777"
   viewBox="0 0 265.44828 264.5777"
   sodipodi:docname="top-phone-icon.svg"
   inkscape:version="0.92.4 (unknown)">
  <path
     style="stroke-width:1.33333325"
     d="m 185.92659,264.46509 c -38.00344,-2.93144 -96.212883,-37.02545 -130.563443,-76.47268 -24.60693,-28.25792 -40.62342,-54.8159 -50.4295602,-83.6205 -4.36797,-12.830478 -4.84699,-15.640634 -4.9229,-28.880175 -0.0781,-13.611747 0.18761,-15.182697 3.69342,-21.841092 5.15577,-9.792066 26.0399702,-31.165 34.6398602,-35.450505 14.59802,-7.274501 21.95994,-4.061988 46.56682,20.320296 19.464993,19.287325 23.682473,25.479049 23.682473,34.768425 0,8.730557 -3.12803,14.302027 -14.666733,26.123541 -5.86663,6.01043 -10.66661,11.56011 -10.66661,12.33262 0,0.77251 3.02778,6.04265 6.72839,11.71142 12.115313,18.55879 42.259173,47.02963 58.642513,55.38779 l 4.86495,2.48192 9.21541,-9.34844 c 15.7754,-16.00314 25.50019,-19.80555 37.30184,-14.58511 7.66789,3.39187 40.13081,34.71344 45.64184,44.03714 4.23814,7.1702 4.67722,17.0474 1.06274,23.90703 -3.58501,6.80371 -27.03813,30.16947 -34.18858,34.06124 -6.39004,3.47789 -18.15451,5.71872 -26.60243,5.06708 z m 15.08469,-16.40019 c 3.63183,-1.0085 8.14444,-4.53045 15.793,-12.32589 15.57162,-15.87067 17.12231,-17.92343 17.12231,-22.66599 0,-3.66072 -2.53621,-6.71144 -19.31305,-23.23103 -24.76437,-24.38467 -23.12325,-24.16548 -42.55669,-5.68359 -9.40058,8.94029 -15.02643,13.33239 -17.07503,13.33048 -3.36509,-0.003 -15.71027,-6.12943 -25.05523,-12.43361 -25.41397,-17.14447 -53.998323,-49.26986 -61.570283,-69.19764 -3.40772,-8.96839 -2.14576,-11.86002 9.81515,-22.490246 11.90205,-10.577924 16.39242,-17.154977 15.13438,-22.167392 -1.13899,-4.538097 -32.65687,-36.745267 -38.8216,-39.670625 -3.06461,-1.454252 -5.24549,-1.695792 -7.44585,-0.824654 -4.53085,1.793801 -28.71432,26.755296 -30.46894,31.449179 -3.33267,8.915383 -1.46619,26.445828 4.50366,42.299698 11.10054,29.47917 31.01641,59.00544 57.06889,84.60745 20.95798,20.5956 38.291313,33.08609 63.173143,45.5229 25.97835,12.98491 45.55888,17.4067 59.69614,13.48096 z m 5.33166,-121.25067 c -2.59978,-1.04736 -5.71856,-8.0183 -5.74224,-12.83477 -0.004,-0.83175 -2.43392,-6.36023 -5.39961,-12.28551 -9.15315,-18.287422 -27.16535,-33.039027 -45.94116,-37.62483 -3.66667,-0.895546 -7.67603,-2.141181 -8.90971,-2.768077 -3.43347,-1.74474 -4.25828,-6.178933 -1.8368,-9.874592 2.76335,-4.217389 8.90432,-4.28178 20.8236,-0.218344 25.61685,8.733127 47.14572,30.774968 54.97373,56.283623 3.92731,12.79766 3.94873,13.78832 0.37557,17.36148 -3.60062,3.60063 -4.02556,3.7005 -8.34338,1.96102 z m 47.19525,-2.98916 c -1.26353,-0.94376 -3.62369,-7.16081 -5.44129,-14.33334 -1.76544,-6.96666 -4.73444,-16.09737 -6.59778,-20.290458 C 230.06,63.45959 206.75364,39.194017 181.25993,26.482808 172.87962,22.304371 166.85866,20.180065 147.38226,14.53013 140.54755,12.547439 138.51097,9.9906701 139.77014,4.973717 141.01802,0.00178457 144.94121,-1.0558622 154.61453,0.97183637 203.6338,11.247136 245.95347,49.918201 260.97062,98.158401 c 5.23713,16.823469 5.67109,21.284879 2.38956,24.566409 -3.14626,3.14626 -6.56932,3.52971 -9.82199,1.10026 z"
     id="path152"
     inkscape:connector-curvature="0" />
</svg>
