<?xml version="1.0" encoding="UTF-8" standalone="no"?>
<!-- Created with Inkscape (http://www.inkscape.org/) -->

<svg
   xmlns:dc="http://purl.org/dc/elements/1.1/"
   xmlns:cc="http://creativecommons.org/ns#"
   xmlns:rdf="http://www.w3.org/1999/02/22-rdf-syntax-ns#"
   xmlns:svg="http://www.w3.org/2000/svg"
   xmlns="http://www.w3.org/2000/svg"
   xmlns:sodipodi="http://sodipodi.sourceforge.net/DTD/sodipodi-0.dtd"
   xmlns:inkscape="http://www.inkscape.org/namespaces/inkscape"
   version="1.1"
   id="svg102"
   width="219.94397"
   height="217.21658"
   viewBox="0 0 219.94397 217.21658"
   sodipodi:docname="totop.svg"
   inkscape:version="0.92.4 (unknown)">
  <path
     style="stroke-width:1.33333337"
     d="m 6.2438,210.88125 -6.24007,-6.33535 55.47233,-55.60629 55.47233,-55.606278 6.05985,6.941628 c 3.33292,3.81789 27.85693,28.85831 54.49779,55.64536 l 48.43794,48.70373 -6.39239,6.29627 c -3.51581,3.46294 -7.01488,6.29626 -7.77572,6.29626 -0.76083,0 -22.32279,-21 -47.91547,-46.66666 -25.59267,-25.66667 -47.15277,-46.66667 -47.91134,-46.66667 -0.75856,0 -22.37278,21 -48.03159,46.66667 -25.65881,25.66666 -47.27815,46.66666 -48.04298,46.66666 -0.76483,0 -4.19863,-2.8509 -7.63068,-6.33533 z M 6.93241,118.23592 0,111.21631 55.4742,55.608158 110.94839,0 l 6.05985,6.9416287 c 3.33292,3.8178953 27.85589,28.8572653 54.49547,55.6430433 l 48.43562,48.701408 -7.03531,6.94792 -7.03531,6.94791 -47.30192,-47.31599 c -26.01605,-26.023798 -47.902,-47.315996 -48.63544,-47.315996 -0.73344,0 -22.64845,21.308759 -48.70003,47.352799 L 13.86481,125.25552 Z"
     id="path112"
     inkscape:connector-curvature="0" />
</svg>
