<?xml version="1.0" encoding="UTF-8" standalone="no"?>
<!-- Created with Inkscape (http://www.inkscape.org/) -->

<svg
   xmlns:dc="http://purl.org/dc/elements/1.1/"
   xmlns:cc="http://creativecommons.org/ns#"
   xmlns:rdf="http://www.w3.org/1999/02/22-rdf-syntax-ns#"
   xmlns:svg="http://www.w3.org/2000/svg"
   xmlns="http://www.w3.org/2000/svg"
   xmlns:sodipodi="http://sodipodi.sourceforge.net/DTD/sodipodi-0.dtd"
   xmlns:inkscape="http://www.inkscape.org/namespaces/inkscape"
   version="1.1"
   id="svg525"
   width="639.80133"
   height="639.91235"
   viewBox="0 0 639.80133 639.91235"
   sodipodi:docname="vk-icon.svg"
   inkscape:version="0.92.4 (unknown)">
  <path
     style="stroke-width:1.33333325"
     d="M 289.8569,638.53636 C 164.89324,626.39727 58.19744,542.54485 17.64792,424.60681 -25.79674,298.2483 12.56555,160.34617 115.15734,74.086667 178.93171,20.464971 264.98562,-6.3749741 348.56715,1.2868769 421.22882,7.9477129 488.69202,38.754705 542.3966,89.798873 c 26.36813,25.061907 54.96045,65.982477 69.81805,99.921737 52.75448,120.50721 28.67083,257.13719 -62.17288,352.71565 -18.1691,19.11607 -49.14241,42.80328 -74.80795,57.2103 -54.66971,30.68812 -122.75948,44.97252 -185.37692,38.8898 z m 76.71025,-28.57806 c 28.36426,-4.34715 53.17393,-12.49155 83.33333,-27.35623 58.67007,-28.91677 103.74516,-73.99186 132.66193,-132.66193 22.62603,-45.90661 29.94391,-77.67685 29.94391,-129.99999 0,-52.506 -7.2247,-83.85127 -29.99619,-130.14236 C 567.46755,159.21842 551.59508,137.07086 527.21896,112.64753 502.72798,88.109133 481.34639,72.799687 449.90048,57.286686 403.90235,34.594731 372.39054,27.334321 319.90049,27.334321 c -52.49005,0 -84.00187,7.26041 -130,29.952365 -31.4459,15.513001 -52.82749,30.822447 -77.31847,55.360844 -24.37611,24.42333 -40.24858,46.57089 -55.29117,77.15026 -22.7715,46.29109 -29.99619,77.63636 -29.99619,130.14236 0,52.47829 7.25079,83.95726 29.94391,129.99999 32.68856,66.32277 87.7801,116.68896 157.32859,143.83409 26.21248,10.23087 45.39237,14.93085 74,18.13352 15.42338,1.72668 61.53342,0.57425 77.99999,-1.94945 z M 303.97802,415.77786 c -50.62554,-5.86567 -85.78983,-35.31821 -128.75075,-107.83771 -12.4893,-21.08236 -35.32678,-67.13688 -35.32678,-71.24067 0,-6.96434 3.32988,-7.6078 37.06998,-7.16324 28.05304,0.36962 30.8963,0.62167 33.48693,2.96859 1.55705,1.41057 7.25707,11.61057 12.66668,22.66667 15.9644,32.62782 35.13069,59.30086 44.25749,61.59154 5.02473,1.26112 9.17436,-3.80153 11.22928,-13.70005 2.11911,-10.20767 1.19269,-50.48455 -1.26788,-55.12284 -3.14261,-5.92395 -8.46819,-10.61319 -13.02409,-11.46788 -5.60187,-1.05092 -6.50852,-2.51184 -3.9665,-6.39145 4.58231,-6.99349 8.63542,-7.63651 45.41402,-7.20479 31.07269,0.36475 34.08946,0.60594 36.65587,2.93067 4.67999,4.23924 5.46304,10.78244 5.47078,45.71332 0.004,18.46893 0.55718,35.02582 1.2291,36.79309 1.85884,4.88912 5.232,7.62704 9.39663,7.62704 9.37451,0 35.6228,-37.54911 49.39873,-70.66667 6.94885,-16.70512 4.98167,-16 44.63719,-16 40.48609,0 43.27902,0.64466 43.32432,10 0.0435,8.99356 -9.66547,25.06042 -33.58808,55.58291 -21.42186,27.33181 -23.72339,30.97448 -23.72588,37.55108 -0.003,5.40006 0.49753,6.01205 20.84338,25.53268 34.4491,33.05182 41.73927,45.08604 33.27327,54.92565 l -3.21877,3.74101 h -33.11456 c -42.85502,0 -40.30042,0.91719 -65.11456,-23.37829 -19.87921,-19.46369 -22.30887,-21.28837 -28.34659,-21.28837 -7.68489,0 -11.63962,7.2967 -14.39006,26.55046 -0.99779,6.98484 -2.6523,13.40991 -3.73088,14.4885 -4.02632,4.02631 -20.46068,5.15398 -40.78827,2.79875 z"
     id="path535"
     inkscape:connector-curvature="0" />
</svg>
