<?xml version="1.0" encoding="UTF-8" standalone="no"?>
<!-- Created with Inkscape (http://www.inkscape.org/) -->

<svg
   xmlns:dc="http://purl.org/dc/elements/1.1/"
   xmlns:cc="http://creativecommons.org/ns#"
   xmlns:rdf="http://www.w3.org/1999/02/22-rdf-syntax-ns#"
   xmlns:svg="http://www.w3.org/2000/svg"
   xmlns="http://www.w3.org/2000/svg"
   xmlns:sodipodi="http://sodipodi.sourceforge.net/DTD/sodipodi-0.dtd"
   xmlns:inkscape="http://www.inkscape.org/namespaces/inkscape"
   version="1.1"
   id="svg71"
   width="973.00116"
   height="866.4884"
   viewBox="0 0 973.00116 866.4884"
   sodipodi:docname="what-icon-1.svg"
   inkscape:version="0.92.4 (unknown)">
  <path
     style="stroke-width:1.33333337"
     d="m 89.167267,864.45449 c -35.0288,-7.07862 -64.6293,-30.32884 -79.2026005,-62.21102 -7.9482,-17.38826 -9.12179999,-24.12262 -9.72239999,-55.78704 -0.5134,-27.06882 -0.3919,-28.90888 2.17849999,-33.01219 4.8931,-7.81119 9.6522005,-9.64387 25.0575005,-9.64949 l 13.6443,-0.005 0.3557,-266.33333 0.3557,-266.33334 3.0415,-8 c 6.5162,-17.13925 20.5967,-31.57724 37.1928,-38.13718 6.7076,-2.65131 10.7119,-3.13909 29.390103,-3.58017 l 21.6245,-0.51064 0.3755,-55.132997 0.3756,-55.13299 3.8233,-3.9894622 c 2.1028,-2.194204 5.4158,-4.649106 7.3622,-5.455338 2.5156,-1.04198 44.0152,-1.35917 143.51,-1.096878 l 139.9711,0.368998 10.6667,3.632549 c 14.6344,4.983771 26.0715,11.9948842 37.5917,23.0443472 l 9.7416,9.343562 9.7417,-9.343562 c 11.5202,-11.049463 22.9572,-18.0605762 37.5917,-23.0443472 l 10.6666,-3.632549 139.97111,-0.368998 c 99.49483,-0.262292 140.99447,0.0549 143.51003,1.096878 1.94641,0.806232 5.25942,3.261134 7.36224,5.455338 l 3.8233,3.9894622 0.37552,55.13299 0.37552,55.132997 21.62448,0.51064 c 18.67827,0.44108 22.68251,0.92886 29.39012,3.58017 17.01161,6.72417 31.12024,21.44118 37.19975,38.80385 l 3.03461,8.66667 v 90.72472 c 0,101.00634 0.56893,94.68854 -9.07244,100.74649 -5.941,3.73289 -16.89573,2.93552 -21.73116,-1.58176 -7.46094,-6.97004 -7.1964,-3.40173 -7.1964,-97.06977 0,-57.97758 -0.46922,-87.88799 -1.41816,-90.39955 -2.01618,-5.33628 -7.70752,-11.01827 -13.91517,-13.89232 -4.25956,-1.9721 -8.62176,-2.47514 -21.66667,-2.49852 l -16.33333,-0.0293 v 272.66668 272.66667 h 26.66667 26.66666 V 597.74693 c 0,-114.62526 -0.21681,-111.05228 7.15124,-117.84662 4.89728,-4.51595 15.84132,-5.3109 21.77632,-1.58176 9.69453,6.09134 9.03121,-2.18539 9.43631,117.74513 l 0.36386,107.72608 13.63614,0.005 c 15.3964,0.005 20.1569,1.83947 25.04932,9.6495 2.57042,4.1033 2.69185,5.94337 2.17844,33.01218 -0.60058,31.66443 -1.77422,38.39879 -9.72236,55.78704 -15.00928,32.83594 -45.84935,56.33122 -82.44748,62.81199 -12.78736,2.26403 -780.12597,1.68136 -791.421773,-0.60131 z M 882.50059,825.99592 c 25.0675,-8.41073 42.88085,-26.31052 49.87282,-50.11483 1.34201,-4.56889 2.12717,-12.32024 2.12717,-21 v -13.758 H 486.50057 38.500567 v 13.85955 c 0,15.55919 2.6033,26.17204 9.1923,37.47379 11.0439,18.94322 30.3885,32.0418 52.0752,35.2611 4.069603,0.60411 180.199203,1.0175 391.399203,0.91864 369.4732,-0.17294 384.27741,-0.27282 391.33332,-2.64025 z M 434.78417,800.965 c -5.5891,-3.61307 -8.2849,-8.85875 -8.2786,-16.10903 0.01,-6.92853 3.7032,-13.49065 9.2032,-16.33481 5.9229,-3.06288 95.6332,-3.08104 101.9236,-0.0207 6.7925,3.30462 9.5349,8.17511 9.5349,16.93367 0,7.0612 -0.3831,8.02763 -5.0209,12.66667 l -5.0208,5.02222 -48.9792,0.33768 c -47.9671,0.33071 -49.0697,0.27914 -53.3622,-2.49577 z M 133.16727,431.12309 V 158.45644 l -16.3333,0.0293 c -13.0449,0.0233 -17.407103,0.52643 -21.666703,2.49852 -6.2077,2.87406 -11.899,8.55604 -13.9152,13.89232 -0.9845,2.60559 -1.4181,84.05107 -1.4181,266.33328 v 262.57987 h 26.666603 26.6667 z m 333.9578,265.69356 c -2.8039,-20.38696 -14.7187,-36.47401 -33.66,-45.44692 l -8.9645,-4.24664 -127,-0.36581 -127,-0.36583 v 28.69916 28.69915 h 148.7918 148.7918 z m 335.37552,-21.72604 v -28.69916 l -127,0.36583 -127.00002,0.36581 -8.9644,4.24664 c -18.9414,8.97291 -30.8562,25.05996 -33.6601,45.44692 l -0.9591,6.97311 h 148.7918 148.79182 z M 467.83397,359.30508 c 0,-176.13769 -0.4637,-269.596146 -1.361,-274.32755 -4.6182,-24.351856 -23.1631,-42.387755 -47.7689,-46.457869 -6.1109,-1.010826 -45.9908,-1.352552 -128.2035,-1.098564 l -119.3333,0.368669 -0.3364,284.931864 -0.3364,284.93186 127.0031,0.48554 c 114.1779,0.43649 127.8555,0.71365 135.4452,2.7447 8.9576,2.39711 25.7727,9.83567 30.2245,13.3705 1.4667,1.16456 3.1167,2.13646 3.6667,2.1598 0.55,0.0233 1,-120.17571 1,-267.10895 z m -212.6667,161.33881 c -7.0373,-3.25032 -10.3911,-8.09697 -10.9637,-15.84388 -0.618,-8.36226 2.4542,-14.31073 9.1901,-17.79401 12.7084,-6.57176 27.7636,2.16795 27.7636,16.11709 0,13.29648 -14.2854,22.92679 -25.99,17.5208 z m 68.6932,-0.52286 c -13.6019,-6.83386 -14.2303,-26.08988 -1.0855,-33.26654 3.8238,-2.0877 7.9298,-2.39806 31.7256,-2.39806 31.4049,0 33.8382,0.69242 38.8555,11.05676 4.6793,9.66606 0.9879,20.1829 -8.6974,24.77885 -6.9473,3.29672 -54.1604,3.16391 -60.7982,-0.17101 z m -65.3424,-89.28818 c -17.6819,-3.43777 -19.8392,-28.7322 -3.0603,-35.8816 3.4224,-1.45828 16.4654,-1.82816 64.4652,-1.82816 66.1345,0 66.2215,0.009 72.019,8.15172 4.202,5.90122 4.6665,12.07307 1.4141,18.79152 -5.5017,11.36512 -3.3855,11.03274 -71.5221,11.23399 -33,0.0975 -61.4922,-0.11293 -63.3159,-0.46747 z m -6.2861,-93.65578 c -11.868,-7.23636 -10.9789,-26.66124 1.4911,-32.5787 3.944,-1.87154 12.3154,-2.14132 66.3124,-2.13696 58.9027,0.005 61.9981,0.12667 66.0593,2.60302 12.2378,7.46182 12.5154,23.69998 0.542,31.69876 l -4.5305,3.02657 -62.8028,-0.005 c -59.937,-0.005 -62.9977,-0.12374 -67.0715,-2.60771 z m 30.26,-81.29976 c -9.9044,-3.01279 -18.1562,-10.36246 -22.5533,-20.08755 -2.5754,-5.69595 -2.7128,-8.56752 -2.7128,-56.66667 0,-48.09913 0.1374,-50.9707 2.7128,-56.66665 7.5138,-16.61853 26.0257,-25.052521 43.8953,-19.99864 2.5666,0.72591 21.7666,12.27409 42.6666,25.66262 32.7895,21.0049 38.5816,25.21256 42.2416,30.68602 8.4937,12.70233 8.4849,27.97612 -0.023,40.63693 -3.6227,5.39075 -9.5829,9.69948 -42.2182,30.52015 -20.9,13.33377 -40.1696,24.89941 -42.8214,25.7014 -5.4217,1.63975 -16.1416,1.7472 -21.1872,0.21239 z m 42.6753,-57.3261 c 15.7667,-10.14056 28.6667,-18.93404 28.6667,-19.54109 0,-1.1212 -56.4992,-37.7806 -58.3334,-37.84947 -0.55,-0.0206 -1,17.06245 -1,37.96244 0,20.9 0.45,37.96974 1,37.93275 0.55,-0.0369 13.9,-8.36407 29.6667,-18.50463 z m 185.4331,425.1675 c 5.697,-4.05659 20.1098,-10.3246 29.5769,-12.8627 7.4419,-1.99514 21.7731,-2.28288 135.32639,-2.71698 l 127.00305,-0.48554 -0.33639,-284.93186 -0.3364,-284.931864 -119.33333,-0.368669 c -82.21272,-0.253988 -122.09252,0.08773 -128.20342,1.098564 -24.6059,4.070114 -43.1507,22.106013 -47.769,46.457869 -1.4637,7.718065 -2.0224,541.4789 -0.5667,541.4789 0.4368,0 2.5243,-1.23198 4.6389,-2.73772 z m 80.5168,-102.68059 c -2.2275,-0.6478 -5.8275,-3.03308 -8,-5.30064 -3.5306,-3.68519 -3.9499,-5.02208 -3.9499,-12.59452 0,-7.18423 0.5066,-9.02071 3.3333,-12.08428 6.6768,-7.23612 7.025,-7.27132 71.6239,-7.23964 56.25627,0.0276 60.03977,0.17921 65.42115,2.62164 4.36038,1.97904 6.32501,3.94367 8.30405,8.30405 3.29568,7.26134 3.28233,9.56544 -0.0959,16.54392 -1.99426,4.11962 -4.30134,6.4267 -8.42096,8.42096 -5.48082,2.65323 -7.69285,2.74272 -64.91984,2.62656 -32.5852,-0.0661 -61.0683,-0.65026 -63.2958,-1.29805 z m 0.9955,-90.56095 c -12.4196,-2.94252 -18.1404,-19.76786 -10.0077,-29.43308 6.6792,-7.93774 6.5255,-7.921 72.7069,-7.921 55.79488,0 60.751,0.18475 65.04285,2.4246 6.25828,3.26608 11.28732,13.07147 10.05988,19.61426 -1.17536,6.26521 -7.81738,13.57714 -13.85704,15.25465 -5.75154,1.59749 -117.22809,1.65197 -123.94489,0.0605 z m -5.214,-93.3001 c -5.4023,-3.29399 -8.3981,-9.04263 -8.3981,-16.11538 0,-7.04868 3.1077,-12.27936 9.3948,-15.81292 4.8412,-2.72089 6.5257,-2.79234 65.8296,-2.79234 66.29895,0 67.16099,0.0895 72.41163,7.51581 6.14755,8.69492 4.94548,18.68935 -3.09714,25.75088 l -4.63166,4.06664 -63.62033,-0.005 c -60.7477,-0.005 -63.8129,-0.12254 -67.8888,-2.60771 z m 0,-90.66667 c -11.8681,-7.23636 -10.979,-26.66124 1.4911,-32.57869 3.944,-1.87155 12.3153,-2.14132 66.3123,-2.13696 58.90277,0.005 61.99817,0.12666 66.05941,2.60301 12.14692,7.40644 12.4265,23.75935 0.54194,31.69876 l -4.53052,3.02657 -62.80283,-0.005 c -59.937,-0.005 -62.9976,-0.12373 -67.0714,-2.60771 z m -0.1145,-90.90554 c -2.4108,-1.54365 -5.2608,-4.50374 -6.3334,-6.57798 -2.7527,-5.32314 -2.444,-14.41086 0.6625,-19.50571 5.1967,-8.52285 4.116,-8.39858 72.9877,-8.39308 59.49854,0.005 62.59767,0.12577 66.66047,2.60301 12.23775,7.46183 12.51536,23.69999 0.54194,31.69876 l -4.53048,3.02658 -62.80283,-0.0225 c -61.5503,-0.022 -62.8902,-0.0784 -67.1859,-2.8291 z m 316.12215,284.32278 c -11.58329,-7.27812 -12.64717,-21.63361 -2.27797,-30.73791 10.53433,-9.24925 27.50691,-2.83058 30.49947,11.53424 1.14426,5.49267 -3.05564,15.30787 -7.91168,18.48967 -5.47442,3.58699 -15.1936,3.92867 -20.30982,0.714 z"
     id="path236"
     inkscape:connector-curvature="0" />
</svg>
