<?xml version="1.0" encoding="UTF-8" standalone="no"?>
<!-- Created with Inkscape (http://www.inkscape.org/) -->

<svg
   xmlns:dc="http://purl.org/dc/elements/1.1/"
   xmlns:cc="http://creativecommons.org/ns#"
   xmlns:rdf="http://www.w3.org/1999/02/22-rdf-syntax-ns#"
   xmlns:svg="http://www.w3.org/2000/svg"
   xmlns="http://www.w3.org/2000/svg"
   xmlns:sodipodi="http://sodipodi.sourceforge.net/DTD/sodipodi-0.dtd"
   xmlns:inkscape="http://www.inkscape.org/namespaces/inkscape"
   version="1.1"
   id="svg81"
   width="986.66669"
   height="880"
   viewBox="0 0 986.66669 880"
   sodipodi:docname="what-icon-2.svg"
   inkscape:version="0.92.4 (unknown)">

  <path
     style="stroke-width:1.33333337"
     d="m 16,878.03422 c 0,-1.08118 -1.7899,-2.89132 -3.9774,-4.02258 C 9.835,872.8804 7.1196,870.16499 5.9883,867.9774 4.8571,865.78982 3.0469,863.99998 1.9657,863.99998 0.2377,863.99998 0,812.71759 0,439.99999 0,67.28238 0.2377,16 1.9657,16 3.0469,16 4.8571,14.210156 5.9883,12.022569 7.1196,9.834982 9.835,7.119574 12.0226,5.988329 14.2101,4.857084 16,3.046928 16,1.96576 16,0.238375 60.7059,0 384.66667,0 c 323.9608,0 368.66667,0.238375 368.66667,1.96576 0,1.081168 1.65,2.832411 3.66667,3.891652 2.01666,1.05924 36.17713,34.224647 75.91213,73.700905 61.31035,60.911103 72.47456,72.582263 73.75896,77.108343 1.0237,3.60734 1.37576,18.27828 1.08787,45.33333 -0.47664,44.7939 -0.32076,44.06044 -10.60716,49.90976 -6.15735,3.50135 -12.14625,3.50135 -18.3036,0 -9.89236,-5.62525 -10.13405,-6.50634 -10.58149,-38.57642 -0.3447,-24.70529 -0.70235,-28.89697 -2.58818,-30.33333 -1.67765,-1.2778 -16.58389,-1.66667 -63.88697,-1.66667 h -61.69878 l -4.56498,-4.00812 c -9.02358,-7.9228 -8.86114,-6.59788 -8.86114,-72.27188 0,-45.269373 -0.39241,-59.744489 -1.66666,-61.479056 -1.5617,-2.12585 -22.99014,-2.267546 -340.23393,-2.249796 C 71.9254,41.341978 46.014,41.510711 43.7661,43.545026 c -2.2631,2.048049 -2.4328,5.334675 -2.4328,47.121641 0,41.761733 0.1708,45.074583 2.429,47.118263 2.2396,2.02673 26.6238,2.22488 312.56901,2.53997 l 310.13996,0.34176 3.68199,2.74906 c 6.51916,4.86734 8.94552,9.27248 8.843,16.05465 -0.11973,7.92173 -1.74393,10.87307 -8.72968,15.86296 l -5.59991,4 L 354.2846,180 c -273.9581,0.58842 -310.5304,0.90137 -311.6462,2.66666 -0.7877,1.24607 -1.2719,124.43531 -1.2847,326.79334 -0.02,312.63554 0.071,324.87571 2.411,326.99367 2.2483,2.03475 33.2188,2.20177 411.51466,2.2194 297.22097,0.0139 409.56982,-0.38465 410.86236,-1.45736 1.42357,-1.18147 1.85352,-13.28532 2.15197,-60.58309 0.36168,-57.31592 0.45628,-59.21816 3.12204,-62.78727 4.93647,-6.60926 9.37543,-9.02486 16.58428,-9.02486 7.20983,0 11.64957,2.41653 16.58428,9.02669 2.69932,3.61579 2.74905,5.02227 2.74905,77.73377 v 74.05135 l -6.33333,5.73372 c -3.48333,3.15354 -6.33333,6.38626 -6.33333,7.18384 0,1.04166 -123.74507,1.45012 -439.33335,1.45012 C 69.1048,879.99998 16,879.76236 16,878.03422 Z M 833.8474,139.66901 c 1.26221,-2.00239 -2.94656,-6.7535 -29.85568,-33.70278 -22.76319,-22.797153 -32.05391,-31.270811 -33.99171,-31.002343 -2.5684,0.355831 -2.68032,1.524012 -3.03724,31.702773 -0.36331,30.71879 -0.31406,31.37958 2.51138,33.69124 2.5976,2.12524 5.84334,2.3226 32.89295,2 26.88599,-0.32064 30.16396,-0.60062 31.4803,-2.68889 z M 644.37278,802.54577 c -4.37297,-2.16459 -6.35317,-4.31895 -8.88423,-9.66562 -3.02869,-6.39788 -3.31773,-8.88965 -4.1234,-35.54684 -0.47652,-15.76666 -2.02664,-44.56666 -3.44471,-63.99999 -3.55893,-48.77204 -3.5633,-48.65086 2.15168,-59.59332 2.60632,-4.99035 7.09965,-12.97335 9.98514,-17.74002 2.88548,-4.76666 6.13927,-10.46666 7.23063,-12.66666 1.09134,-2.2 4.3588,-7.9 7.26101,-12.66667 2.9022,-4.76667 8.33308,-14.06667 12.0686,-20.66666 3.73553,-6.6 9.13187,-15.9 11.99185,-20.66667 2.85999,-4.76667 8.00919,-13.68064 11.44264,-19.80884 3.43347,-6.1282 9.24514,-16.0282 12.91483,-22 3.66969,-5.9718 7.2,-12.05783 7.84515,-13.52449 0.64513,-1.46667 3.55144,-6.56667 6.45845,-11.33334 2.907,-4.76666 6.80904,-11.36666 8.67119,-14.66666 1.86213,-3.3 5.47642,-9.6 8.03174,-14 10.41722,-17.93737 18.15303,-31.37047 22.65115,-39.33333 1.86413,-3.3 5.77447,-9.9 8.68964,-14.66667 2.91517,-4.76667 6.52381,-11.06667 8.0192,-14 1.49539,-2.93333 5.08642,-9.23333 7.98004,-14 2.89364,-4.76667 8.08584,-13.76667 11.53823,-20 3.45239,-6.23333 7.28691,-12.83333 8.52115,-14.66667 1.23424,-1.83333 4.23848,-6.75268 6.67609,-10.93186 9.26045,-15.87673 20.78704,-25.01675 37.77884,-29.95675 5.88612,-1.71126 13.47711,-3.11138 16.86888,-3.11138 7.40512,0 26.63791,5.53882 31.68635,9.12532 1.9894,1.41329 5.71709,3.5476 8.28376,4.74288 2.56666,1.19529 8.26666,4.33673 12.66666,6.98098 4.40001,2.64427 10.40001,6.15619 13.33334,7.80428 2.93333,1.64811 8.33333,4.75092 12,6.89516 3.66667,2.14424 8.68156,5.07299 11.14421,6.50833 13.69855,7.9841 23.74127,19.91058 28.29934,33.60756 1.66516,5.0038 3.52981,8.33548 4.66516,8.33548 1.49846,0 1.89129,2.59863 1.89129,12.51116 0,11.00102 -0.29443,12.58815 -2.43925,13.14904 -1.66131,0.43444 -3.16775,3.23418 -4.72342,8.77855 -1.25629,4.47737 -2.87205,8.50403 -3.59058,8.94809 -0.71854,0.44408 -3.12634,4.21371 -5.35068,8.37696 -2.22434,4.16324 -5.8053,10.56954 -7.9577,14.2362 -2.15238,3.66667 -5.44744,9.36667 -7.32233,12.66667 -1.87488,3.3 -7.27171,12.6 -11.99295,20.66666 -4.72124,8.06667 -10.24284,17.5789 -12.27024,21.1383 -2.0274,3.55938 -5.18618,9.04716 -7.01952,12.19504 -1.83333,3.14788 -4.98644,8.63565 -7.0069,12.19504 -2.02049,3.5594 -6.05873,10.37162 -8.9739,15.13829 -2.91517,4.76667 -6.52381,11.06667 -8.0192,14 -1.49539,2.93333 -5.09004,9.23333 -7.98811,14 -2.89805,4.76667 -8.32553,14.06666 -12.06106,20.66666 -3.73552,6.6 -9.1664,15.9 -12.0686,20.66667 -2.90222,4.76667 -6.16967,10.46667 -7.26102,12.66667 -1.09136,2.2 -4.35266,7.9 -7.24736,12.66666 -2.89468,4.76667 -6.78664,11.36667 -8.64878,14.66667 -1.86214,3.3 -5.47643,9.6 -8.03175,14 -10.41721,17.93737 -18.15303,31.37047 -22.65115,39.33333 -1.86413,3.3 -5.76036,9.9 -8.65828,14.66667 -2.89793,4.76666 -6.47412,10.8522 -7.9471,13.5234 -1.47298,2.67121 -5.07231,6.90605 -7.9985,9.41077 -5.23738,4.483 -117.89973,61.74253 -129.2726,65.70152 -7.58797,2.64144 -9.07176,2.57036 -15.79292,-0.75657 z m 35.78075,-51.66083 c 1.74889,-1.3466 13.24492,-7.41428 25.54673,-13.48373 27.41105,-13.52404 30.22157,-17.08515 17.99473,-22.80044 -3.13224,-1.46414 -9.29498,-4.82108 -13.69498,-7.45988 -4.4,-2.63882 -10.4,-6.13267 -13.33334,-7.76413 -2.93333,-1.63146 -9.65566,-5.49456 -14.93852,-8.58468 -8.22374,-4.81035 -10.01748,-5.39774 -12.47184,-4.0842 -2.55166,1.36561 -2.77654,2.29004 -2.04661,8.41314 1.05332,8.83577 3.43,42.71867 3.44527,49.11705 0.0107,4.49328 2.67238,9.09524 5.26046,9.09524 0.58206,0 2.4892,-1.10176 4.2381,-2.44837 z m 95.38209,-63.88496 c 2.1916,-3.48333 6.58851,-10.83333 9.77094,-16.33333 3.18241,-5.5 6.73028,-11.5 7.88414,-13.33333 1.15387,-1.83334 3.16683,-5.43334 4.47326,-8 1.30641,-2.56667 4.5548,-8.26667 7.21862,-12.66667 2.66382,-4.4 6.19475,-10.4 7.84651,-13.33333 5.54149,-9.84104 11.41525,-19.93518 16.68111,-28.66667 2.8747,-4.76667 6.11966,-10.46667 7.21102,-12.66667 1.09135,-2.2 4.37311,-7.89999 7.2928,-12.66666 2.9197,-4.76667 6.83211,-11.36667 8.69426,-14.66667 1.86213,-3.3 5.47642,-9.6 8.03174,-14 2.55532,-4.4 6.1907,-10.7 8.0786,-14 1.88792,-3.3 5.19295,-9 7.34451,-12.66666 2.15157,-3.66667 5.44248,-9.36667 7.31313,-12.66667 1.87067,-3.3 5.7437,-9.9 8.60675,-14.66667 2.86304,-4.76666 5.23812,-9.6574 5.27793,-10.86829 0.0856,-2.60459 -2.86085,-4.51784 -36.21537,-23.51575 -6.8084,-3.87789 -18.97889,-10.90018 -27.04556,-15.60509 -20.26492,-11.81956 -29.57109,-16.67753 -31.94836,-16.67753 -1.11341,0 -4.03783,3.15 -6.49868,7 -5.57725,8.7256 -21.48362,35.63752 -22.65702,38.33333 -0.4788,1.1 -3.25133,5.9 -6.16118,10.66667 -2.90986,4.76666 -6.81422,11.36666 -8.67636,14.66666 -1.86214,3.3 -5.47643,9.6 -8.03175,14 -10.41721,17.93738 -18.15303,31.37047 -22.65115,39.33334 -1.86413,3.3 -5.77446,9.9 -8.68964,14.66666 -2.91517,4.76667 -6.52381,11.06667 -8.0192,14 -1.49538,2.93333 -5.09004,9.23333 -7.9881,14 -4.71727,7.75887 -8.28526,13.94539 -23.6724,41.04556 -5.56522,9.80156 -5.23047,13.253 1.6605,17.12104 2.93334,1.64653 8.03334,4.55468 11.33334,6.46253 3.3,1.90787 9.6,5.51284 14,8.01104 11.90585,6.75984 19.10117,10.88511 28,16.05315 4.4,2.55532 10.7,6.17497 14,8.04367 3.3,1.86869 8.4,4.85746 11.33333,6.64172 8.26372,5.02654 11.50728,4.41689 16.20228,-3.04538 z M 919.94743,437.36147 c 1.34132,-0.71785 3.09145,-2.96785 3.88918,-5 0.79775,-2.03215 3.83107,-7.59481 6.74072,-12.36148 10.63679,-17.42545 15.15875,-27.66835 14.36747,-32.54441 -1.15673,-7.12812 -7.35221,-15.25186 -14.66063,-19.22355 -3.6084,-1.96096 -9.13628,-5.06537 -12.28416,-6.89871 -3.14788,-1.83333 -8.63565,-4.99397 -12.19504,-7.02364 -3.5594,-2.02966 -10.07163,-5.79681 -14.47163,-8.37142 -11.77798,-6.89175 -26.28761,-13.93827 -28.70058,-13.93827 -1.16004,0 -5.17439,1.52747 -8.92078,3.39437 -5.30252,2.64235 -8.01909,5.24768 -12.2618,11.75963 -2.9976,4.60088 -5.45017,8.70072 -5.45017,9.11075 0,0.87042 -7.6032,13.56372 -11.00068,18.36526 -1.28296,1.81316 -2.33265,4.59195 -2.33265,6.17508 0,3.19674 6.6176,8.86294 13.90934,11.90963 2.51624,1.05135 4.9047,2.44504 5.30768,3.09708 0.40299,0.65205 3.89402,2.77816 7.75784,4.72469 3.86383,1.94654 10.92514,5.91544 15.6918,8.8198 4.76667,2.90435 10.46667,6.17356 12.66667,7.26492 2.2,1.09135 7.9,4.37015 12.66667,7.2862 4.76666,2.91607 10.76666,6.44464 13.33333,7.8413 2.56667,1.39665 6.46667,3.52085 8.66667,4.72044 4.73856,2.58381 4.23541,2.52214 7.28075,0.89233 z M 116.145,769.68655 c -2.7539,-1.43325 -5.7511,-4.69084 -7.6666,-8.33261 l -3.1451,-5.97939 V 681.2824 607.19024 l 3.471,-6.96542 c 2.0822,-4.1784 4.99,-7.75088 7.2672,-8.92846 3.2174,-1.66379 15.855,-1.96304 82.8989,-1.96304 87.5397,0 81.4621,-0.6245 88.1737,9.06034 l 3.6453,5.26014 -0.056,77.00717 c -0.054,74.25874 -0.1499,77.159 -2.685,81.26082 -1.4459,2.3395 -3.9109,5.41416 -5.4777,6.83258 -2.74,2.48038 -5.8881,2.59244 -82.3764,2.93218 -73.8084,0.32783 -79.8527,0.184 -84.0492,-2 z m 133.7794,-39.31658 c 1.7838,-2.54676 2.0756,-9.60778 2.0756,-50.22835 0,-42.10948 -0.2407,-47.53096 -2.2067,-49.70332 -2.0604,-2.27674 -5.4081,-2.43832 -50.5189,-2.43832 -44.3955,0 -48.5507,0.19306 -51.253,2.38126 -2.9387,2.37958 -2.9407,2.41464 -2.7912,50.33333 0.1465,46.9409 0.2085,48.00128 2.9407,50.28541 2.5458,2.12819 7.0502,2.33333 51.2345,2.33333 h 48.4434 z m 121.25253,22.85082 c -2.28601,-0.66294 -6.63601,-3.89542 -9.66666,-7.18329 C 357.19625,741.35734 356,739.02561 356,735.29689 c 0,-5.82902 2.42995,-10.697 7.96852,-15.96358 l 4.20659,-4 h 98.24577 98.24579 l 4.93161,3.77276 c 5.78954,4.42908 8.34066,10.95195 7.31991,18.71603 -0.56283,4.28105 -1.93191,6.58912 -6.13363,10.34033 -2.97498,2.65602 -7.29354,5.20602 -9.59681,5.66667 -6.56604,1.3132 -185.35867,0.74081 -190.01082,-0.60831 z M 370.15907,645.28742 C 362.73547,643.06469 356,634.3321 356,626.93004 c 0,-4.86812 4.70624,-11.95196 10.56224,-15.89832 6.37168,-4.29388 13.05988,-3.9815 19.83507,0.92642 6.9275,5.01826 8.26936,7.59959 8.26936,15.90779 0,5.59176 -0.68383,7.48677 -4.1097,11.3886 -2.3054,2.62572 -6.25668,5.27701 -9,6.03896 -5.60334,1.55633 -6.18069,1.55603 -11.3979,-0.007 z m 75.79085,-0.005 c -6.79565,-2.03212 -11.56961,-8.18799 -12.30781,-15.87055 -0.86751,-9.02833 1.20962,-13.33768 8.71896,-18.08889 l 6.30448,-3.98888 h 56.00056 c 54.7034,0 56.12409,0.0661 61.33389,2.85812 7.6714,4.11108 9.99003,7.25504 10.78626,14.62568 0.8225,7.61391 -1.93382,14.05576 -7.88211,18.42143 -3.6552,2.68266 -5.40465,2.76846 -61.33333,3.00781 -31.66395,0.13551 -59.39335,-0.29861 -61.6209,-0.96472 z M 115.7993,477.97355 c -1.9436,-1.05583 -5.0936,-5.04962 -7,-8.87508 l -3.466,-6.9554 v -73.98391 c 0,-71.56607 0.088,-74.16619 2.7003,-79.56199 4.3757,-9.03884 6.9196,-10.59718 17.2997,-10.59718 9.907,0 12.9151,1.63779 17.1365,9.33019 1.9385,3.5324 2.2343,11.365 2.515,66.607 0.2765,54.41272 0.5878,62.87374 2.3795,64.66666 1.7832,1.78448 10.6456,2.15276 65.6819,2.72948 46.3172,0.48535 64.3867,1.10611 66.4376,2.28239 1.5494,0.88864 4.6994,3.75952 7,6.37972 5.8089,6.61594 5.8052,13.93984 -0.011,21.84857 -2.3066,3.13648 -5.6456,6.25468 -7.4201,6.92933 -1.8368,0.69835 -36.9263,1.20367 -81.4729,1.17327 -65.4986,-0.0447 -78.8223,-0.36613 -81.7805,-1.97305 z M 373.22593,461.13369 C 364.54161,459.35593 356,449.71336 356,441.68744 c 0,-4.78133 6.33441,-15.20024 10.50393,-17.27693 2.5725,-1.28128 269.62686,-2.26795 279.9733,-1.0344 5.50283,0.65607 8.23002,1.84709 11.87208,5.18479 4.09058,3.74873 4.798,5.30669 5.24582,11.55274 0.62856,8.76713 -1.14392,12.51409 -8.27375,17.49051 l -5.32137,3.71416 -136.27114,0.34084 c -74.94914,0.18746 -138.17546,-0.0489 -140.50294,-0.52546 z M 212.6667,403.94286 c -8.6146,-4.59351 -40.2905,-36.86864 -42.9062,-43.7178 -2.1728,-5.6892 -2.1512,-5.89447 1.3731,-13.08044 2.6997,-5.50446 4.7123,-7.7734 8.1806,-9.22259 10.1438,-4.23832 17.9103,-1.73723 28.6858,9.23785 11.942,12.16315 11.7383,12.2461 40.7307,-16.59284 20.8563,-20.74601 25.0015,-24.27346 29.7878,-25.34887 10.068,-2.26214 18.8058,1.4838 21.9829,9.42425 2.5366,6.33966 2.6686,11.26549 0.4385,16.36289 -2.0582,4.70436 -63.4932,66.7146 -70.4409,71.10051 -7.5185,4.74622 -11.59,5.16565 -17.8323,1.83704 z M 370,353.72778 c -3.42836,-0.8405 -9.70516,-6.70772 -12.11904,-11.32824 C 354.4684,335.86734 355.46303,329.93608 361,323.8 c 2.75,-3.04754 6.93073,-6.34927 9.29051,-7.33717 3.50249,-1.46628 29.30117,-1.79617 140.46516,-1.79617 149.52743,0 140.44468,-0.489 148.57688,7.99917 2.71639,2.83529 3.88152,5.6238 4.33895,10.38436 0.75345,7.84143 -1.72467,13.37968 -7.98471,17.84468 l -4.35345,3.10512 L 512,354.19076 c -76.63333,0.10494 -140.53333,-0.10346 -142,-0.46298 z m 343.46845,-4.46448 c -9.65782,-9.6578 -8.02278,-23.3057 3.69188,-30.81655 7.37241,-4.72682 12.61229,-4.46217 19.77176,0.99863 8.25098,6.29332 10.39296,15.42344 5.75244,24.51962 -3.82211,7.49194 -7.20274,9.36832 -16.87863,9.36832 -7.43987,0 -8.67484,-0.40741 -12.33745,-4.07002 z M 125.7626,109.73826 c -1.5973,-0.31089 -5.3473,-3.21578 -8.3334,-6.4553 C 112.575,98.016727 112,96.680537 112,90.666667 c 0,-6.02234 0.5726,-7.34742 5.4713,-12.661928 8.809,-9.556601 17.251,-9.780286 26.9699,-0.714609 5.3303,4.972007 5.5588,5.514387 5.5588,13.193297 0,7.0642 -0.4715,8.5093 -4,12.259903 -6.1792,6.56811 -12.0338,8.5917 -20.2374,6.99493 z m 70.7849,0.0155 c -1.5323,-0.30237 -5.397,-3.21029 -8.5884,-6.46204 -5.3701,-5.471753 -5.7948,-6.420253 -5.6996,-12.729843 0.093,-6.18152 0.6396,-7.36444 5.8559,-12.679494 9.229,-9.403595 17.3551,-9.581891 26.9925,-0.592242 5.3302,4.972006 5.5588,5.514386 5.5588,13.193306 0,7.0642 -0.4715,8.50929 -4,12.259893 -6.1492,6.53615 -12.0693,8.599 -20.1192,7.01042 z m 68.4469,-1.01913 c -5.1567,-2.68994 -11.4055,-9.868993 -12.3556,-14.194893 -1.3378,-6.09109 1.5518,-13.482254 7.0436,-18.016169 9.08,-7.496234 16.5184,-7.548002 24.6059,-0.171243 9.0985,8.298792 10.1953,15.819132 3.629,24.883545 -6.1823,8.53449 -15.2506,11.50099 -22.9229,7.49876 z m 137.84651,0.19012 c -2.67811,-0.9487 -6.16808,-3.91894 -8.64155,-7.35463 -5.31457,-7.382023 -5.39447,-14.073573 -0.25655,-21.487592 6.95915,-10.042058 -2.38521,-9.415853 140.50523,-9.415853 74.02039,0 129.39621,0.513716 131.24749,1.21757 1.76134,0.669663 5.40041,3.29051 8.0868,5.824103 4.61713,4.354519 4.88434,5.065119 4.88434,12.988879 0,8.00429 -0.23373,8.60469 -5.18257,13.312413 -2.85043,2.71153 -7.12543,5.31863 -9.5,5.79355 -2.37459,0.47492 -61.09243,0.82962 -130.4841,0.78823 -94.18645,-0.0562 -127.30539,-0.47864 -130.65909,-1.66667 z"
     id="path215"
     inkscape:connector-curvature="0" />
</svg>
