<?xml version="1.0" encoding="UTF-8" standalone="no"?>
<!-- Created with Inkscape (http://www.inkscape.org/) -->

<svg
   xmlns:dc="http://purl.org/dc/elements/1.1/"
   xmlns:cc="http://creativecommons.org/ns#"
   xmlns:rdf="http://www.w3.org/1999/02/22-rdf-syntax-ns#"
   xmlns:svg="http://www.w3.org/2000/svg"
   xmlns="http://www.w3.org/2000/svg"
   xmlns:sodipodi="http://sodipodi.sourceforge.net/DTD/sodipodi-0.dtd"
   xmlns:inkscape="http://www.inkscape.org/namespaces/inkscape"
   version="1.1"
   id="svg111"
   width="814.4823"
   height="892.8761"
   viewBox="0 0 814.4823 892.8761"
   sodipodi:docname="what-icon-4.svg"
   inkscape:version="0.92.4 (unknown)">

  <path
     style="stroke-width:1.33333337"
     d="m 231.81561,873.54245 v -19.33334 l -111,-0.005 c -107.994296,-0.005 -111.1163959,-0.076 -115.2975959,-2.62531 -2.3636,-1.44117 -4.64840002,-4.0185 -5.07730002,-5.72741 -0.4289,-1.70889 -0.5692,-24.9775 -0.3118,-51.70802 0.432,-44.85188 0.6895,-49.39275 3.33860002,-58.86556 12.6468999,-45.22392 47.0514999,-79.11783 93.4861999,-92.09849 9.673796,-2.70428 13.638896,-2.87487 77.528596,-3.3355 72.0875,-0.51973 80.1378,-0.0387 99.3017,5.93331 22.03,6.86517 40.945,19.48615 58.3058,38.9044 l 6.2742,7.01777 h 76.06876 76.06876 l 10.83266,-11.44396 c 17.73265,-18.73297 40.33396,-31.80466 65.14809,-37.67868 8.92731,-2.11328 17.65187,-2.36721 81.33334,-2.36721 79.32115,0 79.95564,0.0575 102.37985,9.27521 22.31989,9.17486 45.29081,28.25774 58.63885,48.71367 l 5.64797,8.65554 v 73.67779 73.67778 H 705.81562 597.14895 v 19.33334 19.33333 H 414.48228 231.81561 Z m 337.33334,-27.15868 c 0,-35.26859 -1.60501,-48.83069 -7.53061,-63.63259 -12.83003,-32.04881 -43.20557,-56.62681 -76.46939,-61.87428 -15.53479,-2.45065 -133.45661,-1.03972 -146.26904,1.75011 -20.1552,4.38865 -35.7902,12.73396 -50.4263,26.91544 -11.0908,10.74633 -17.5984,20.36517 -23.6773,34.99736 l -4.294,10.33597 -0.3872,41.66667 -0.3872,41.66666 H 414.42844 569.14895 Z M 233.15081,817.87578 c 0,-17.22972 4.8775,-37.31896 13.0198,-53.66666 12.6652,-25.42851 31.5426,-45.11067 55.1788,-57.53116 l 9.5583,-5.02274 -8.6905,-8.05638 c -9.9406,-9.21512 -22.6297,-16.68753 -37.0683,-21.82888 l -10,-3.56084 h -72.6666 c -72.467,0 -72.6942,0.008 -82.666696,3.12248 -34.9147,10.90204 -60.014,36.8386 -69.6178,71.93986 -2.4482,8.94795 -2.8848,14.95122 -3.3891,46.60432 l -0.5789,36.33334 h 103.459496 103.4596 l 0.001,-8.33334 z m 569.00004,-29.33333 c -0.49771,-34.19245 -0.82359,-38.58903 -3.53299,-47.66667 -5.21229,-17.46329 -12.7299,-29.92766 -26.13557,-43.33333 -12.98596,-12.98596 -22.8678,-19.2489 -40.41507,-25.61442 l -10.2516,-3.71891 -68.66667,-0.40675 c -44.79537,-0.26534 -71.538,0.0915 -76.92615,1.02618 -9.94776,1.7258 -25.31832,7.80132 -32.72849,12.93657 -6.1036,4.2298 -18.58237,18.98181 -17.51613,20.70701 0.38409,0.62149 4.10465,2.85184 8.2679,4.95632 23.7646,12.01276 44.80584,34.46867 57.19172,61.03688 l 4.85327,10.41045 0.59433,23.66667 0.59435,23.66667 h 102.6097 102.60969 z M 390.35224,664.37952 c -32.75188,-8.67279 -59.03913,-34.10957 -68.88293,-66.65447 -4.5829,-15.1516 -4.7862,-36.92489 -0.4872,-52.18259 9.5303,-33.8241 35.25633,-59.53987 68.75855,-68.73107 10.35136,-2.83985 32.73922,-3.88965 42.2571,-1.98149 35.96771,7.21082 64.29732,32.49965 75.48107,67.37922 3.16189,9.86123 3.63256,13.4982 3.62352,28 -0.012,18.78263 -1.96071,27.56779 -9.65972,43.54113 -19.50852,40.47491 -67.25735,62.23636 -111.09039,50.62927 z m 44.13004,-27.10445 c 29.07567,-8.33531 49.33333,-35.67924 49.33333,-66.59049 0,-33.91987 -24.34309,-62.77532 -57.8375,-68.55858 -43.30505,-7.47717 -83.1103,28.19888 -80.4261,72.08312 2.10109,34.35112 26.66727,60.59453 61.59694,65.80245 6.11308,0.91144 19.16728,-0.39549 27.33333,-2.7365 z M 161.81561,614.25873 c -18.9464,-4.10746 -34.8081,-12.91609 -49.3086,-27.38294 -38.583296,-38.49388 -37.890196,-100.45056 1.5454,-138.14617 18.4039,-17.59192 41.4292,-26.78293 67.0965,-26.78293 61.2435,0 107.4394,56.26258 95.2329,115.98531 -6.8992,33.75542 -30.4865,60.67515 -63.6789,72.67536 -9.5478,3.45188 -13.0198,3.98976 -28.2206,4.37188 -9.5334,0.23965 -19.7334,-0.0845 -22.6667,-0.72051 z m 42.1046,-30.05777 c 48.346,-16.55165 62.4791,-78.70657 26.0641,-114.62538 -4.4928,-4.43158 -11.274,-9.71506 -15.0693,-11.74107 -8.3896,-4.47847 -25.276,-8.95872 -33.7661,-8.95872 -8.5146,0 -25.4006,4.48857 -33.7484,8.97087 -3.7856,2.03269 -10.4909,7.29589 -14.9006,11.696 -21.692,21.64486 -26.8084,52.67653 -13.2194,80.17845 15.4156,31.19882 51.4025,45.85886 84.6397,34.47985 z m 425.32899,29.97531 c -38.52746,-8.10423 -68.24912,-37.83138 -76.16112,-76.17516 -3.13437,-15.19005 -3.24685,-23.43884 -0.50245,-36.8482 12.17783,-59.50194 69.83179,-93.08614 127.23291,-74.11488 22.52765,7.44547 43.66461,25.70959 54.64521,47.21808 7.78156,15.24232 10.03007,25.52731 9.9005,45.28635 -0.10267,15.66502 -0.57394,19.38369 -3.63255,28.66666 -5.01748,15.22822 -12.02076,26.38857 -24.24941,38.64364 -12.09282,12.11892 -21.40736,18.07931 -37.1127,23.74843 -9.42414,3.40182 -13.12716,3.98952 -27.55397,4.37304 -9.16667,0.24368 -19.32156,-0.11534 -22.56642,-0.79796 z m 41.33767,-29.95855 c 20.08759,-6.91555 33.92031,-20.16425 42.46826,-40.67526 3.72973,-8.94962 5.19877,-29.21147 2.8963,-39.94754 -5.44938,-25.40962 -26.67508,-46.61148 -52.70816,-52.64894 -11.85333,-2.74898 -19.55644,-2.61018 -32.01791,0.57693 -13.19066,3.37361 -23.47852,9.23093 -32.74308,18.64207 -26.38954,26.80704 -26.45269,68.5134 -0.14597,96.3999 18.64827,19.76816 46.40631,26.55023 72.25056,17.65284 z M 248.16031,408.25637 c -2.5083,-1.10791 -5.2012,-3.75626 -6.4174,-6.31142 -1.9328,-4.06048 -1.8791,-5.85264 0.691,-23.06916 1.5326,-10.26666 4.0575,-27.42416 5.6107,-38.12774 l 2.8241,-19.46108 -6.3763,-5.87225 c -32.1741,-29.63032 -49.7331,-58.46326 -58.1334,-95.4583 -4.1576,-18.31008 -4.1931,-46.42834 -0.081,-64.41395 11.4831,-50.22893 42.895,-90.635292 93.5379,-120.321341 26.9769,-15.81347 53.3846,-25.4612739 87.34525,-31.9108276 21.63794,-4.10931357 71.2018,-4.4653051 91.98807,-0.6607026 55.98801,10.2477342 99.82253,31.9726502 134.81297,66.8149302 27.03738,26.922887 40.94204,51.495251 49.4631,87.411271 3.68125,15.51643 3.24079,48.6006 -0.86983,65.33333 -14.35508,58.43412 -56.73555,104.47544 -122.07291,132.61765 -15.67935,6.75344 -26.40179,10.32115 -42.17033,14.03145 -39.15443,9.21298 -88.5795,8.91634 -129.36277,-0.7764 l -14.19975,-3.37478 -23.8003,13.88046 c -59.1478,34.49544 -55.6273,32.83194 -62.7888,29.66886 z m 43.1755,-50.26512 c 32.4293,-19.10078 38.4357,-22.42894 40.4798,-22.43006 1.1,-6e-4 10.1,2.03311 20,4.51935 9.9,2.48623 24.17353,5.18227 31.71896,5.99117 17.28213,1.85274 49.53608,1.89686 64.31602,0.088 47.65666,-5.8326 96.27611,-28.42323 126.74301,-58.89014 48.8522,-48.8522 57.46646,-114.49506 22.46503,-171.18931 C 587.75047,101.00318 566.14786,79.044012 549.58431,67.822369 524.00424,50.492129 491.74811,37.256372 460.83867,31.407108 439.60537,27.388944 401.94569,26.45379 381.14625,29.428207 301.95961,40.75226 238.31031,85.572429 217.93071,144.36036 c -8.2701,23.85625 -9.6245,52.5972 -3.5634,75.61581 7.6463,29.03828 28.0166,58.79741 55.0564,80.43233 10.8121,8.65086 11.3986,10.65824 8.4563,28.9426 -1.1612,7.21624 -2.7031,17.41141 -3.4265,22.65592 -0.7235,5.24452 -1.6606,11.18548 -2.0826,13.20215 -0.4219,2.01666 -0.4854,3.66666 -0.141,3.66666 0.3444,0 8.942,-4.89804 19.1059,-10.88454 z m 16.8394,-159.09224 c -17.2298,-7.49024 -7.8772,-33.58638 10.2843,-28.696 7.1221,1.91779 10.6894,6.77542 10.6894,14.55592 0,7.37505 -2.6661,11.6956 -8.7981,14.25771 -5.4386,2.27241 -6.706,2.26017 -12.1756,-0.1176 z m 101.53166,0.68499 c -1.52648,-0.61754 -4.37648,-3.02554 -6.33334,-5.35112 -6.95369,-8.264 -3.06171,-20.44717 7.66264,-23.98653 9.13898,-3.01614 19.44611,4.70546 19.44611,14.56805 0,11.06069 -10.8596,18.78096 -20.77541,14.7696 z m 100.04528,-0.53786 c -5.46906,-2.44238 -8.6032,-7.60464 -8.6032,-14.17034 0,-7.06475 2.88228,-11.26323 9.56901,-13.93873 6.76436,-2.70656 12.77646,-1.07918 17.72068,4.7967 9.95626,11.83232 -4.37048,29.70565 -18.68649,23.31237 z"
     id="path152"
     inkscape:connector-curvature="0" />
</svg>
