<?xml version="1.0" encoding="UTF-8" standalone="no"?>
<!-- Created with Inkscape (http://www.inkscape.org/) -->

<svg
   xmlns:dc="http://purl.org/dc/elements/1.1/"
   xmlns:cc="http://creativecommons.org/ns#"
   xmlns:rdf="http://www.w3.org/1999/02/22-rdf-syntax-ns#"
   xmlns:svg="http://www.w3.org/2000/svg"
   xmlns="http://www.w3.org/2000/svg"
   xmlns:sodipodi="http://sodipodi.sourceforge.net/DTD/sodipodi-0.dtd"
   xmlns:inkscape="http://www.inkscape.org/namespaces/inkscape"
   version="1.1"
   id="svg61"
   width="893.3385"
   height="892.66663"
   viewBox="0 0 893.3385 892.66662"
   sodipodi:docname="what-icon-7.svg"
   inkscape:version="0.92.4 (unknown)">

  <path
     style="stroke-width:1.33333325"
     d="m 97.016839,890.57946 c -4.1366,-2.24446 -7.7178,-8.28758 -7.613,-12.8466 0.039,-1.68641 6.5341,-25.56621 14.434101,-53.06621 l 14.3635,-50 -35.434001,-0.7484 c -31.8477,-0.67265 -36.1468,-1.0324 -42.4757,-3.55438 -20.4319,-8.14182 -34.3686001,-23.62062 -38.8777001,-43.17959 -0.8512,-3.69223 -1.3608,-47.31222 -1.3814,-118.22636 -0.0319999953,-110.36738 0.017,-112.52262 2.7434,-120.61577 3.8523,-11.43546 8.1243001,-18.25008 16.2539001,-25.92834 7.3864,-6.97618 18.1228,-12.77207 27.7858,-14.99976 8.0335,-1.85203 345.001721,-1.85203 353.035241,0 10.57559,2.43806 20.56257,8.14033 28.88101,16.49018 8.31964,8.35106 12.75946,16.08608 15.54776,27.08731 0.88406,3.48799 1.75456,6.56359 1.93448,6.83468 0.17992,0.27109 3.20532,-1.60499 6.72312,-4.16904 8.43143,-6.14552 19.04268,-11.40672 29.72056,-14.73585 7.81337,-2.43604 13.14704,-2.75942 53.67544,-3.25432 l 45,-0.54951 V 443.26605 411.4146 l -10.26636,-6.92767 C 558.71496,396.15186 542.73439,380.54802 534.29066,368.57757 523.55552,353.35865 513.78362,331.72297 510.09198,315 c -0.78138,-3.53956 -1.10898,-3.66667 -9.4507,-3.66667 h -8.64126 v 20.51199 20.51198 l 27.33333,34.13204 c 15.03333,18.77263 27.33205,34.59223 27.33049,35.15468 -0.004,1.57068 -21.19505,17.96134 -22.57596,17.46212 -2.33288,-0.84334 -60.99422,-75.32881 -61.85265,-78.53762 -0.476,-1.77936 -0.87367,-14.09407 -0.88368,-27.36603 l -0.0182,-24.13082 -5.34537,-2.41043 c -6.7805,-3.05757 -16.65007,-13.55208 -20.41243,-21.70493 -2.56693,-5.5624 -2.95401,-9.03175 -3.34772,-30.0053 -0.36341,-19.35958 -0.0357,-25.01754 1.78423,-30.80354 4.70205,-14.94904 18.37894,-27.13798 34.09265,-30.38359 l 7.53349,-1.55603 0.7917,-24.77058 c 0.43774,-13.69667 1.70653,-29.22641 2.83806,-34.73753 C 492.86098,66.494997 541.94472,16.838674 608.00001,2.4659736 617.45996,0.4076214 625.28408,0 655.33335,0 c 32.36457,0 37.27913,0.2962384 48.66666,2.933521 49.62296,11.492368 89.24625,42.071393 111.89127,86.351386 4.67825,9.147829 6.07116,10.686686 14.96685,16.535163 22.96705,15.09967 39.1578,38.44271 45.44004,65.51327 1.31417,5.66285 1.70184,35.02809 1.70184,128.91198 v 121.57866 l -3.90022,4.0714 c -4.99706,5.2164 -9.91374,6.06796 -24.11968,4.17751 -28.34694,-3.77228 -54.95306,-19.73677 -70.91289,-42.54993 -3.40766,-4.87096 -6.64198,-9.37646 -7.18738,-10.01219 -0.54539,-0.63575 -5.39147,3.29809 -10.76906,8.74187 -5.3776,5.44377 -14.72744,13.36388 -20.77744,17.60022 l -11,7.70246 v 31.77986 31.77987 l 44.33334,0.54978 c 40.88305,0.50702 45.09485,0.77784 54.11818,3.47991 31.93923,9.56432 54.39813,32.78667 62.8254,64.96105 2.6704,10.19534 2.72308,13.55232 2.72308,173.54486 0,179.18593 0.48559,168.62793 -7.95636,172.99343 -3.4512,1.78469 -30.67203,2.02257 -231.44409,2.02257 H 426.40002 l -4.53333,-4.53333 -4.53334,-4.53334 v -58.94265 c 0,-55.60744 -0.132,-58.8891 -2.33333,-57.99641 -17.19139,6.97165 -12.10792,6.53529 -81.95465,7.03499 l -64.95464,0.46469 -0.70225,4.25303 c -0.38624,2.33916 -2.51942,17.45302 -4.74039,33.58636 -2.22099,16.13333 -4.62539,32.98247 -5.34311,37.44254 -2.47849,15.40172 -5.38218,13.89079 26.69504,13.89079 h 28 v 14.66666 14.66667 l -105.66668,-0.0533 c -90.8639,-0.0459 -106.178,-0.33082 -109.316501,-2.0338 z M 225.80197,858.99998 c 0.42096,-2.38333 2.29817,-15.43333 4.17159,-29 1.8734,-13.56666 3.9897,-28.26666 4.70289,-32.66666 0.7132,-4.4 3.39664,-23 5.96321,-41.33333 2.56659,-18.33334 5.86014,-41.43334 7.31903,-51.33334 1.45888,-9.89999 2.665,-18.44999 2.68025,-18.99999 0.0153,-0.55 -16.97725,-1 -37.76114,-1 h -37.78886 l -2.2976,7.66666 c -10.9024,36.37988 -48.3018,169.21738 -47.8623,170 0.309,0.55 22.9595,1 50.3346,1 h 49.77294 z m 279.21766,-37.56853 0.35293,-41.23518 -6.11118,-9.10858 c -24.16491,-36.01718 -29.28392,-80.76039 -13.83099,-120.89103 3.80912,-9.89214 11.85331,-24.20886 17.61507,-31.3506 l 3.08236,-3.8206 10.8493,9.15393 c 5.96711,5.03467 10.88836,9.51497 10.9361,9.95624 0.0477,0.44127 -2.55732,4.82805 -5.78902,9.7484 -11.50736,17.52028 -16.27413,36.26968 -15.08898,59.35044 1.11032,21.62373 7.27516,38.49462 20.48686,56.06496 l 6.47794,8.61504 0.66666,47.37609 0.66667,47.37609 52.33333,0.34881 52.33333,0.3488 v -57.40798 -57.40799 l -48.49442,-62.27414 c -26.67193,-34.25079 -50.12509,-64.67416 -52.11815,-67.60749 -5.73386,-8.43899 -4.36436,-13.60496 6.51238,-24.5657 4.82177,-4.85901 8.76686,-9.17301 8.76686,-9.58668 0,-0.41366 -9.92141,-5.7198 -22.04757,-11.79141 -23.67593,-11.85461 -25.95243,-13.89432 -25.95243,-23.25301 0,-3.84165 2.46486,-7.9628 14,-23.40749 7.7,-10.30972 14,-19.10303 14,-19.5407 0,-0.43765 -9.75,-0.58408 -21.66666,-0.32537 l -21.66667,0.47036 -10.07323,4.81075 c -11.40684,5.44766 -21.41077,14.67854 -26.96258,24.87905 -7.9042,14.52261 -7.63086,8.26768 -7.63086,174.61633 v 152.41253 l 29,-0.35934 29,-0.35933 z m 76.31372,-3.43146 v -14.66667 h 14.66666 14.66667 v 14.66667 14.66666 h -14.66667 -14.66666 z m 0,-89.33334 v -14.66666 h 14.66666 14.66667 v 14.66666 14.66667 h -14.66667 -14.66666 z m 193.01797,89.66667 0.3513,-44.33333 h -30.81646 c -45.082,0 -43.88615,0.99732 -43.88615,-36.60046 0,-13.60308 -0.452,-24.73288 -1.00445,-24.73288 -0.55244,0 -7.00244,7.83195 -14.33333,17.40434 l -13.32888,17.40433 -0.66667,57.3746 c -0.36667,31.55602 -0.40972,57.63101 -0.0957,57.94442 0.31405,0.31342 23.71405,0.41291 51.99999,0.22108 l 51.42907,-0.34877 z m 89.32346,-106.33333 c 0.32972,-145.4941 0.25235,-151.01936 -2.25396,-160.93996 -5.42748,-21.48344 -21.17017,-37.66006 -42.08748,-43.24757 -4.06348,-1.08544 -14.08341,-1.787 -25.66072,-1.79664 l -18.99406,-0.0158 13.87662,18.57976 c 7.63215,10.21887 14.28646,19.87103 14.78736,21.44926 1.39244,4.38714 -0.37886,11.23357 -3.69628,14.28686 -1.63877,1.50831 -12.12958,7.30802 -23.31292,12.88826 -11.18333,5.58023 -20.33333,10.61262 -20.33333,11.18309 0,0.57045 3.36667,4.3167 7.48148,8.32498 8.38128,8.1643 11.72479,14.46238 10.54043,19.85474 -0.43779,1.99322 -12.45467,18.58108 -26.70416,36.86188 -14.24951,18.28081 -25.92534,33.68784 -25.9463,34.23784 -0.0209,0.55 17.68071,1 39.33706,1 32.90832,0 39.49532,-0.31306 40.10664,-1.90612 1.90744,-4.97074 -7.5904,-30.15651 -16.02211,-42.48643 -1.90284,-2.78256 -3.45971,-5.48715 -3.45971,-6.01019 0,-0.943 20.63506,-18.9306 21.71684,-18.9306 1.27259,0 11.6035,15.97776 16.01623,24.77068 5.24949,10.46023 11.60026,30.84704 11.60026,37.23835 0,4.86745 2.06767,7.32431 6.16411,7.32431 1.63025,0 4.81025,1.84616 7.06667,4.10256 l 4.10256,4.10257 v 35.60076 c 0,30.75526 -0.29594,36.02325 -2.17426,38.70494 -3.60009,5.13984 -9.78301,6.8225 -25.06934,6.8225 -12.47273,0 -14.14612,0.28066 -15.37616,2.57901 -1.54583,2.8884 -1.98793,84.36885 -0.46604,85.89074 0.50281,0.50282 13.85281,0.75282 29.66666,0.55556 l 28.75247,-0.35865 z m -724.81294,-9.69683 c 6.3406,-22.19992 12.3406,-41.34285 13.3333,-42.53986 4.4921,-5.41663 8.2756,-5.7636 62.76206,-5.75587 32.64896,0.004 54.2855,0.53764 57.44552,1.41515 5.83777,1.6211 10.25114,7.60958 10.25898,13.92037 0.003,2.20531 -2.09501,18.35824 -4.66168,35.89542 -2.56666,17.5372 -4.66666,33.28286 -4.66666,34.99038 v 3.10457 h 60.04282 c 51.26608,0 60.76744,-0.30269 65,-2.07073 6.28807,-2.62668 11.73991,-7.78963 15.41261,-14.59594 2.8721,-5.32257 2.87863,-5.55228 3.24178,-113.88703 0.40976,-122.24167 0.67978,-118.40263 -9.00959,-128.092 -9.88779,-9.88779 0.68367,-9.35429 -185.35877,-9.35429 -185.820271,0 -174.057171,-0.60504 -184.133071,9.47093 -9.5535,9.55345 -9.3021,5.9354 -8.893,127.97536 0.3632,108.33475 0.3697,108.56446 3.2418,113.88703 3.5884,6.65018 9.0533,11.90896 15.1221,14.55184 3.873,1.68666 11.0159,1.98262 42,1.74023 l 37.333301,-0.29207 z M 60.000039,520.66666 v -14.66667 h 29.3333 29.333401 v 14.66667 14.66667 h -29.333401 -29.3333 z m 89.333301,0 v -14.66667 h 29.3334 29.3333 v 14.66667 14.66667 h -29.3333 -29.3334 z m 89.33335,0 v -14.66667 h 29.33333 29.33334 v 14.66667 14.66667 h -29.33334 -29.33333 z m 89.33333,0 v -14.66667 h 29.33333 29.33334 v 14.66667 14.66667 h -29.33334 -29.33333 z m 490.66666,207.99999 v -14.66666 h -44.66667 -44.66667 v 14.66666 14.66667 h 44.66667 44.66667 z m -146.53753,-77.9221 c 4.32897,-12.42383 7.87086,-23.37383 7.87086,-24.33333 0,-1.37635 -5.37968,-1.74456 -25.48884,-1.74456 -23.65177,0 -25.4386,0.16817 -24.7917,2.33333 0.87822,2.93945 22.99418,65.43405 24.37852,68.88807 1.10829,2.76526 2.90606,-1.73572 18.03116,-45.14351 z m -73.80004,-23.15069 c -6.01019,-17.00996 -11.56344,-30.9272 -12.34056,-30.9272 -0.77714,0 -4.55391,3.18045 -8.39286,7.06768 l -6.97987,7.06768 18.89253,24.28744 c 10.39089,13.35809 19.08509,24.09488 19.32045,23.85953 0.23535,-0.23536 -4.48951,-14.34516 -10.49969,-31.35513 z M 718.4582,638.1818 c 6.11868,-7.8 13.25321,-17.07734 15.85452,-20.61634 l 4.72965,-6.43454 -7.14231,-7.23213 c -3.92825,-3.97767 -7.53964,-7.23213 -8.02526,-7.23213 -0.48564,0 -2.11992,3.45 -3.63175,7.66666 -13.57056,37.85024 -18.89858,53.22295 -18.83562,54.34564 0.0407,0.72658 1.39073,-0.39716 2.99999,-2.49716 1.60926,-2.1 7.93211,-10.2 14.05078,-18 z m -26.83057,-44.51514 c 0.70809,-0.91667 5.61998,-13.96667 10.91529,-29 5.29532,-15.03333 11.98942,-33.99948 14.8758,-42.14699 2.88637,-8.1475 5.24796,-15.50237 5.24796,-16.34413 0,-0.84176 -2.41371,-2.49624 -5.36379,-3.67664 -6.40829,-2.56408 -14.13587,-11.15199 -15.96741,-17.74511 -0.72633,-2.61458 -1.32395,-17.27374 -1.32803,-32.5759 l -0.007,-27.82209 -3,0.69848 c -1.65,0.38417 -7.5,1.74036 -13,3.01376 -13.71861,3.17621 -43.61472,3.17621 -57.33333,0 -5.5,-1.2734 -11.35,-2.62959 -13,-3.01376 l -3,-0.69848 -0.0585,27.82209 c -0.0628,29.8634 -0.76711,34.07524 -7.08238,42.35498 -1.89929,2.49011 -6.16625,5.8408 -9.48213,7.44599 -3.31587,1.6052 -6.26551,3.31661 -6.55475,3.80316 -0.28924,0.48656 1.77063,7.18464 4.57747,14.88464 2.80684,7.7 9.41753,26.3 14.69043,41.33333 5.27289,15.03333 10.09485,28.68333 10.71548,30.33333 l 1.1284,3 h 35.86973 c 27.12027,0 36.18379,-0.40653 37.15721,-1.66666 z M 573.33335,558.1437 c 0,-1.83169 -10.96132,-32.66233 -12.06247,-33.92776 -0.53477,-0.61456 -4.63949,3.70003 -9.1216,9.58797 -5.85897,7.69666 -7.68561,11.00852 -6.49945,11.78406 3.00109,1.96217 25.66415,13.55746 26.68352,13.6523 0.55,0.0512 1,-0.44228 1,-1.09657 z m 177.98397,-5.78101 c 7.70881,-3.83386 14.01602,-7.45282 14.01602,-8.04215 0,-1.42823 -14.75616,-20.98876 -15.82821,-20.98164 -0.46115,0.003 -3.53845,7.63181 -6.83845,16.95277 -3.3,9.32096 -6.2,17.41846 -6.44444,17.99443 -0.76803,1.80964 0.72057,1.22551 15.09508,-5.92341 z M 689.33335,395.98882 c 21.18987,-6.7763 37.14174,-16.55072 51.5203,-31.56876 14.44941,-15.09204 23.18528,-30.63701 29.45875,-52.42006 3.4328,-11.91955 3.45972,-12.38684 4.01544,-69.70367 l 0.55945,-57.70367 -14.37071,-14.96299 c -7.90389,-8.22965 -15.01294,-14.90309 -15.7979,-14.82988 -0.78495,0.0732 -8.01778,5.43493 -16.07292,11.91493 -34.557,27.79948 -72.25113,47.22537 -112.31241,57.88085 -4.88988,1.3006 -5.67068,2.0028 -5.69595,5.12248 -0.0461,5.69363 -4.58493,14.25498 -9.35984,17.655 -9.85944,7.02055 -25.71392,4.04111 -31.9186,-5.99826 -1.60037,-2.58947 -3.1376,-4.70812 -3.41605,-4.70812 -0.42049,0 -13.59311,2.94926 -27.10087,6.0677 l -3.15797,0.72907 0.64591,29.60161 c 0.59426,27.23508 0.9331,30.56098 4.23842,41.60162 13.39344,44.73774 48.50395,76.06487 95.43161,85.14827 1.83334,0.35487 12.03334,0.45463 22.66667,0.22168 16.6376,-0.36446 20.91359,-0.92888 30.66667,-4.0478 z m -45.42754,-55.81198 c -17.51132,-4.72155 -31.87004,-21.01387 -32.37593,-36.73581 l -0.19653,-6.1077 14.05021,-0.37557 14.0502,-0.37557 1.68817,4.66854 c 2.36943,6.55255 7.34504,10.0826 14.21142,10.0826 6.88777,0 12.18238,-3.75866 13.73504,-9.75054 l 1.10114,-4.24946 h 14.58191 14.58191 l -0.34928,5.59332 c -0.99851,15.99031 -13.69238,30.995 -30.79118,36.39649 -9.57628,3.02514 -15.46585,3.23216 -24.28708,0.8537 z m 68.04089,-90.58049 c -6.67065,-3.52752 -11.94669,-11.999 -11.94669,-19.18222 0,-13.54244 12.90309,-24.5723 25.91831,-22.15557 20.56482,3.8186 24.73696,32.015 6.12701,41.40811 -7.54815,3.80982 -12.79587,3.79146 -20.09863,-0.0703 z m 136.35141,105.60878 c 0.20271,-24.27052 0.0685,-44.22362 -0.2981,-44.34025 -0.36667,-0.11667 -10.93784,-0.0204 -23.49149,0.21384 l -22.82483,0.42588 -5.26788,15.87305 -5.26789,15.87304 2.26208,7.31105 c 6.18582,19.99264 23.4908,38.052 43.92334,45.83816 4.03333,1.53696 8.06748,2.82575 8.96477,2.86395 1.2478,0.0532 1.7181,-10.30733 2,-44.05872 z M 506.00002,266 v -15.33333 l -3.33334,0.37336 c -13.96994,1.56472 -17.17177,1.065 -21.6125,-3.37308 -3.98598,-3.98358 -4.37638,-5.13959 -4.84064,-14.33334 -0.55244,-10.94008 -1.83428,-12.18506 -8.0577,-7.82602 -5.35102,3.74801 -6.82266,9.67081 -6.82042,27.44958 10e-4,12.92659 0.49314,17.35527 2.33333,21.02428 3.57103,7.11998 6.73051,8.0662 25.6646,7.6863 l 16.66667,-0.33442 z m 335.36997,13.72785 c 6.30919,-4.34842 6.54306,-5.32461 6.58762,-27.49708 l 0.0424,-21.10257 -3.89744,-3.89743 -3.89743,-3.89744 H 822.10257 804.00001 V 252.66667 282 h 17.03665 c 13.87203,0 17.64904,-0.42207 20.33333,-2.27215 z M 539.33335,211.98168 c 66.64868,-14.29812 92.05352,-21.78924 120,-35.38438 20.19806,-9.82576 29.30349,-15.9293 56.70947,-38.01336 22.95679,-18.49884 27.59292,-21.27671 33.23848,-19.91569 1.96136,0.47284 14.24596,11.58073 29.20474,26.40729 L 804.30541,170.66667 803.52241,156 C 800.0021,90.059827 750.8382,38.428641 683.49832,29.95253 c -18.59908,-2.341078 -57.82567,-0.952188 -72.83164,2.578737 -26.12025,6.146128 -43.65868,15.86953 -63.78813,35.364488 -17.77687,17.216546 -29.88849,37.725515 -36.4994,61.805505 -2.50844,9.13689 -2.8906,14.76188 -3.38747,49.86025 l -0.56006,39.56152 8.45086,-1.85444 c 4.64798,-1.01994 15.65087,-3.39904 24.45087,-5.28691 z m 308.66666,-23.84122 c 0,-11.22463 -8.29162,-34.35783 -13.45968,-37.55187 -0.7011,-0.43331 -1.20699,8.135 -1.20699,20.44259 v 21.18855 l 6.33333,1.3732 c 3.48334,0.75527 6.78334,1.45583 7.33334,1.5568 0.55,0.10094 1,-3.0532 1,-7.00927 z m -599.543,227.19707 c -1.58199,-0.63807 -22.28052,-14.10003 -45.99677,-29.91549 l -43.1204,-28.75538 h -45.425 c -26.410201,0 -48.736801,-0.59654 -53.336601,-1.42512 C 32.524739,350.18824 7.2887389,325.30122 1.4534389,296.93437 0.4956389,292.27825 3.890474e-5,261.56851 3.890474e-5,206.88117 3.890474e-5,115.51467 -0.0899611,116.67073 8.3875389,99.379363 13.832739,88.273092 28.335639,73.460983 39.457439,67.646939 c 16.2381,-8.488602 12.2366,-8.272197 153.360601,-8.2939 79.73677,-0.01227 130.86463,0.483406 135.33333,1.312012 25.44873,4.718831 50.35668,28.890112 56.46228,54.792379 1.68249,7.13779 2.01686,22.29032 2.03333,92.14361 0.0133,55.55379 -0.47099,85.97148 -1.44292,90.66667 -4.14815,20.03869 -20.53053,41.19786 -38.82156,50.14118 -14.14593,6.91659 -23.11327,8.20844 -57.16025,8.23463 -16.56112,0.0133 -30.437,0.34902 -30.83531,0.74733 -0.3983,0.39831 1.58723,9.84831 4.4123,21 2.82506,11.15169 5.15094,21.65561 5.16862,23.34203 0.0525,5.00414 -3.53669,10.42534 -8.44394,12.754 -5.09731,2.41882 -6.84563,2.55321 -11.06691,0.85065 z m -20.47781,-51.0042 c -0.012,-0.91667 -0.89008,-5.26667 -1.95251,-9.66667 -1.06243,-4.4 -1.95305,-9.9798 -1.97917,-12.39954 -0.0565,-5.24152 2.92277,-11.4956 6.23652,-13.09132 1.31046,-0.63104 22.48265,-1.47972 47.04932,-1.88596 40.14345,-0.6638 45.33341,-1.0028 51.25071,-3.34756 9.0551,-3.58811 20.97032,-14.87323 24.91242,-23.595 l 3.1702,-7.01395 v -86 -85.99999 l -3.66419,-6.95078 c -5.29904,-10.05203 -10.46232,-15.357511 -19.95552,-20.5051 l -8.38029,-4.544129 H 194.00004 63.333339 l -7.0139,3.170193 c -9.3448,4.223704 -20.5785,16.356486 -23.8583,25.767836 -2.291,6.57385 -2.4611,12.822 -2.4611,90.39531 V 292 l 3.5135,7.49335 c 4.9408,10.53712 11.9941,17.76864 22.2646,22.82707 l 8.8245,4.34624 52.199101,0.40387 52.199,0.40387 28.4997,19.11518 c 15.67476,10.51336 28.94958,19.18162 29.49958,19.2628 0.55,0.0812 0.99063,-0.60238 0.97918,-1.51905 z m -167.979161,-97 V 252.66667 H 194.00004 328.00002 V 267.33333 282 H 194.00004 60.000039 Z m 0.8889,-44.88889 c -0.4889,-0.48888 -0.8889,-7.39177 -0.8889,-15.33973 v -14.45086 l 133.666701,0.33974 133.66661,0.33974 0.38246,13.89095 c 0.28125,10.21523 -0.0716,14.17903 -1.33334,14.97959 -2.03941,1.29397 -264.202631,1.53152 -265.493531,0.24057 z m -0.8889,-73.76832 V 134 h 89.378401 89.37846 l -0.37844,14.33334 -0.37844,14.33333 -88.99998,0.34279 -89.000001,0.34278 z m 207.999981,0.016 v -14.69217 h 30.04511 30.0451 l -0.37844,14.33333 -0.37844,14.33334 -29.66666,0.35884 -29.66667,0.35884 z"
     id="path257"
     inkscape:connector-curvature="0" />
</svg>
