<?xml version="1.0" encoding="UTF-8" standalone="no"?>
<!-- Created with Inkscape (http://www.inkscape.org/) -->

<svg
   xmlns:dc="http://purl.org/dc/elements/1.1/"
   xmlns:cc="http://creativecommons.org/ns#"
   xmlns:rdf="http://www.w3.org/1999/02/22-rdf-syntax-ns#"
   xmlns:svg="http://www.w3.org/2000/svg"
   xmlns="http://www.w3.org/2000/svg"
   xmlns:sodipodi="http://sodipodi.sourceforge.net/DTD/sodipodi-0.dtd"
   xmlns:inkscape="http://www.inkscape.org/namespaces/inkscape"
   version="1.1"
   id="svg91"
   width="920"
   height="853.33331"
   viewBox="0 0 920 853.33331"
   sodipodi:docname="what-icon-3.svg"
   inkscape:version="0.92.4 (unknown)">

  <path
     style="stroke-width:1.33333337"
     d="M 9.4156,850.89698 C 6.917,849.55699 3.7763,846.41635 2.4364,843.91779 0.0918,839.54612 0,823.82394 0,426.66667 0,29.5094 0.092,13.787219 2.4364,9.4155521 3.7763,6.9169871 6.917,3.7763481 9.4156,2.436354 13.7893,0.09068 30.5598,0 460,0 c 429.44026,0 446.2107,0.09068 450.58447,2.436354 2.49856,1.3399941 5.6392,4.4806331 6.97919,6.9791981 2.34456,4.3716669 2.43636,20.0938479 2.43636,417.2511179 0,397.15727 -0.0917,412.87945 -2.43636,417.25112 -1.33999,2.49856 -4.48063,5.6392 -6.97919,6.97919 -4.35776,2.33709 -15.77901,2.43636 -280.31798,2.43636 -201.65775,0 -276.55785,-0.40314 -278.68747,-1.49995 -12.46452,-6.41961 -14.71042,-20.44348 -4.79598,-29.94679 L 350.83776,818 396.41888,817.33334 442,816.66667 l 0.73715,-48 c 0.51987,-33.85084 1.24623,-49.57213 2.46415,-53.33333 5.79221,-17.88771 20.96501,-37.2742 36.24484,-46.31054 5.3308,-3.15258 21.15,-9.20718 43.15165,-16.51577 19.10455,-6.3462 34.95163,-11.72255 35.21574,-11.94743 0.2641,-0.22488 -2.43839,-4.79278 -6.00556,-10.1509 -3.56716,-5.35811 -7.61048,-12.26123 -8.98515,-15.34024 l -2.4994,-5.59822 -30.41025,-0.40178 -30.41024,-0.40179 -4.05398,-3.8866 c -6.74857,-6.46993 -7.17441,-9.68953 -6.43168,-48.62773 0.74142,-38.8695 2.14247,-49.88698 9.02048,-70.93452 8.74668,-26.76586 22.6614,-49.26388 43.27288,-69.96576 26.00162,-26.11564 58.13998,-43.05986 93.36189,-49.2229 17.13993,-2.9991 46.00732,-2.78368 62.78426,0.46854 70.30317,13.62825 123.61025,65.99992 139.95827,137.5023 1.79938,7.87004 2.41351,18.69983 2.88331,50.84518 0.66373,45.4159 0.46567,46.69552 -8.02975,51.87546 -3.88726,2.37022 -6.85784,2.60318 -33.25184,2.60771 l -28.98324,0.005 -4.58153,9.09772 c -2.51985,5.00375 -6.70633,11.88136 -9.30331,15.28358 -2.59696,3.40221 -4.29281,6.42732 -3.76854,6.72246 0.52425,0.29514 15.0532,5.19756 32.28653,10.89427 17.23333,5.69669 34.93333,12.12028 39.33333,14.27464 20.80066,10.18452 34.93099,26.67489 42.99915,50.18084 1.75424,5.11084 2.22567,14.67001 2.65715,53.87983 l 0.52454,47.66666 h 15.90959 15.90958 V 492.00035 166.66702 H 460 36 v 325.30352 325.3035 l 82.103,0.36316 82.103,0.36315 4.4831,4.89248 c 8.2839,9.04039 6.9184,20.67072 -3.2196,27.42325 l -4.5305,3.01726 h -91.4903 c -86.0611,0 -91.7599,-0.14458 -96.0331,-2.43636 z m 806.31697,-78.56364 -0.39922,-45 -3.72566,-7.58679 c -2.21164,-4.50371 -6.66122,-10.26973 -10.94946,-14.18895 -8.16216,-7.45976 -8.89631,-7.75776 -64.6886,-26.25848 l -35.36373,-11.7266 -11.27033,4.3463 c -15.57745,6.0073 -26.31405,8.03256 -42.66889,8.04869 -15.78578,0.0156 -31.55252,-3.1554 -44.43476,-8.9366 l -7.91465,-3.55188 -44.95378,14.96279 c -25.32767,8.43026 -47.54404,16.60548 -50.88679,18.7254 -7.40976,4.69912 -13.92709,12.82257 -17.54743,21.87176 -2.56866,6.4205 -2.82632,10.19946 -3.31816,48.66656 -0.29329,22.93804 -0.1946,42.58804 0.21931,43.66666 0.65683,1.71167 22.22168,1.96114 169.52698,1.96114 H 816.1318 Z M 664.71988,641.98847 c 10.47822,-2.65229 25.1509,-10.15156 32.61346,-16.66888 l 6,-5.24001 -29.04282,-0.0397 c -31.4392,-0.0431 -34.8041,-0.64322 -40.95718,-7.30504 -3.06078,-3.31384 -3.37045,-4.80777 -3.78726,-18.2712 -0.50767,-16.39746 0.6061,-20.67165 6.72917,-25.82388 4.93291,-4.15077 14.39096,-4.51625 20.49815,-0.79209 4.04752,2.46817 8.55994,9.85921 8.55994,14.0206 0,1.88568 3.22388,2.13183 27.92131,2.13183 20.87457,0 28.19275,-0.42063 28.9968,-1.66667 2.1824,-3.38201 2.08888,-45.07189 -0.12493,-55.66667 -7.54879,-36.12786 -38.09794,-61.33333 -74.33628,-61.33333 -22.72247,0 -38.29112,6.45372 -54.57174,22.6218 -11.08859,11.01193 -16.94808,21.19185 -20.64773,35.87203 -1.7115,6.7912 -2.03663,13.74026 -1.62202,34.66666 0.48539,24.49875 0.74419,26.74638 4.04594,35.13958 9.43042,23.97256 30.11905,42.50626 53.86519,48.25461 10.43153,2.52521 26.10712,2.56913 35.85993,0.1004 z M 534.66667,557.33334 v -16 h -14 -14 v 16 16 h 14 14 z m 252.00001,0 v -16 h -13.33333 -13.33334 v 16 16 h 13.33334 13.33333 z M 545.84562,492.7733 c 15.19052,-31.22594 40.67669,-52.10979 74.37222,-60.94202 15.22778,-3.99149 38.60248,-3.96878 53.78217,0.0523 34.38351,9.10803 62.1998,32.75879 76.12638,64.72633 l 3.80036,8.72348 h 14.36996 c 7.90349,-2e-5 14.36997,-0.19493 14.36997,-0.43316 0,-0.23821 -1.41437,-4.58821 -3.14304,-9.66666 -6.71995,-19.74164 -17.3028,-37.0039 -32.09408,-52.35035 -21.08627,-21.87773 -44.81051,-34.77713 -75.29894,-40.94173 -14.99581,-3.03207 -44.24646,-2.12623 -59.03118,1.82809 -38.07355,10.18316 -69.87527,34.8674 -88.44447,68.64991 -4.37727,7.96348 -12.65496,28.64561 -12.65496,31.61893 0,0.75471 5.78554,1.29495 13.86776,1.29495 h 13.86774 z M 884.00002,83.333334 V 36 H 460 36 V 83.333334 130.66667 H 460 884.00002 Z M 106.8287,99.053457 c -16.571,-8.16343 -10.0787,-33.720123 8.566,-33.720123 6.7858,0 12.1817,3.61628 15.4404,10.348045 3.2204,6.652367 2.6698,12.712528 -1.6545,18.209998 -5.7206,7.272483 -14.1271,9.213933 -22.3519,5.16208 z m 72.1976,0.30309 c -8.8596,-3.85148 -12.4448,-16.82712 -7.0803,-25.625148 10.3715,-17.009827 37.3294,-5.322732 32.1438,13.935318 -3.0009,11.14414 -14.2499,16.390813 -25.0635,11.68983 z m 72,0 c -5.8523,-2.54413 -9.6818,-9.2021 -9.688,-16.843401 -0.016,-20.149043 29.3954,-23.404152 34.6644,-3.836451 3.9923,14.826142 -10.617,26.922285 -24.9764,20.679852 z m 139.80236,-0.30309 c -8.95708,-4.41258 -12.24844,-16.521849 -6.88263,-25.322058 5.51101,-9.038383 -11.13139,-8.398587 218.3211,-8.393081 203.68028,0.0049 207.81616,0.05576 212.00148,2.607704 11.78775,7.187412 10.824,26.281355 -1.5883,31.467545 -3.93272,1.643193 -34.32632,1.915393 -210.97081,1.889413 -189.77292,-0.0279 -206.73858,-0.2089 -210.88084,-2.249523 z M 269.6929,851.35655 c -12.6134,-5.4834 -12.7373,-25.62241 -0.1976,-32.10699 14.4713,-7.48338 31.4011,8.54054 24.3089,23.0082 -4.7018,9.59144 -14.4854,13.28343 -24.1113,9.09879 z m -162.509,-83.40593 c -7.3726,-3.64944 -10.4707,-9.52538 -9.5111,-18.03884 0.5919,-5.25204 1.6407,-7.32044 5.5096,-10.86598 l 4.7784,-4.37913 h 138.1956 c 136.07116,0 138.26214,0.0412 142.52935,2.67845 11.51651,7.1176 9.79451,26.1929 -2.84113,31.4724 -3.67415,1.53516 -27.24299,1.84898 -138.80182,1.8481 -132.4708,-10e-4 -134.4539,-0.0395 -139.8589,-2.715 z m 1.4167,-85.80215 c -2.2364,-0.98725 -5.7505,-3.79683 -7.8093,-6.24348 -3.3385,-3.96757 -3.6778,-5.23557 -3.1393,-11.72973 0.5192,-6.26047 1.2667,-7.88876 5.332,-11.61435 3.6363,-3.33239 6.378,-4.53191 11.8721,-5.19408 3.9292,-0.47355 36.2439,-0.67481 71.8106,-0.44725 58.8854,0.37677 65.0529,0.62484 68.9874,2.77484 11.813,6.45517 12.4681,22.64505 1.2494,30.87748 -3.6804,2.70078 -5.3056,2.76813 -74,3.0665 -56.4821,0.24532 -71.0331,-0.0464 -74.3029,-1.48993 z m 214.9228,0.52707 c -12.3191,-3.84198 -16.4852,-19.74859 -7.6495,-29.20718 5.6454,-6.04344 11.9753,-7.04985 41.2992,-6.56636 30.71448,0.50643 33.60564,1.42498 38.02141,12.07978 2.46539,5.94873 2.47492,6.42014 0.2476,12.25232 -1.3646,3.57316 -4.05439,7.30518 -6.54595,9.08238 -4.04593,2.88592 -5.4736,3.02836 -32.89616,3.28206 -15.7667,0.14585 -30.3811,-0.2695 -32.4766,-0.923 z M 109.9499,595.93208 c -7.0234,-2.07205 -11.6426,-8.2049 -12.3184,-16.35504 -0.543,-6.54764 -0.2338,-7.55757 3.6782,-12.01302 2.3756,-2.70576 6.4349,-5.49487 9.1473,-6.28512 3.3119,-0.96494 36.178,-1.29103 102.446,-1.01647 96.2644,0.39883 97.62,0.44119 101.3333,3.16568 11.2192,8.23165 10.5644,24.42217 -1.2489,30.87748 -4.0112,2.19196 -11.2927,2.37756 -101.6541,2.59123 -54.2441,0.12826 -99.1263,-0.29883 -101.3834,-0.96474 z m 264.963,-0.0288 c -12.58844,-2.66405 -17.44967,-18.8481 -8.76251,-29.17222 5.99871,-7.12906 17.9744,-7.98475 24.83651,-1.77463 14.13728,12.79407 2.65041,34.90941 -16.074,30.94685 z M 148,506.29891 c -12.4341,-4.25473 -20.8357,-9.56317 -30.2457,-19.11028 -9.0625,-9.19465 -16.4495,-22.80125 -18.9583,-34.92092 -0.9714,-4.69253 -1.4627,-35.38607 -1.4627,-91.38653 0,-71.34656 0.3136,-85.52476 2.0379,-92.14478 5.0052,-19.21621 19.4264,-37.60433 36.548,-46.6015 17.4247,-9.15638 13.4716,-8.92567 145.7987,-8.50923 L 400.66667,214 l 8.68677,3.38748 c 22.7944,8.88888 38.23631,25.32647 45.6679,48.61252 2.95638,9.26354 2.97866,9.98147 2.97866,96 v 86.66667 l -3.20045,9.77011 c -7.76372,23.70042 -27.57943,42.73281 -50.97477,48.9597 -5.95483,1.58494 -27.33015,1.90208 -127.15808,1.8866 l -120,-0.0185 L 148,506.29899 Z m 249.60703,-35.03795 c 8.51233,-2.90044 16.24593,-10.00356 20.64504,-18.96196 L 422,444.66667 V 361.33334 278 l -3.18884,-6.47773 C 414.7507,263.27396 407.91096,256.43422 400.11919,252.8303 394.0295,250.01364 393.43766,250 277.3333,250 c -108.2798,0 -117.0225,0.16754 -121.617,2.3305 -7.028,3.30857 -13.8996,9.7063 -18.1006,16.85237 l -3.6157,6.15047 -0.3792,84 c -0.3346,74.12208 -0.1303,84.65448 1.7383,89.56553 3.6921,9.70389 9.1337,15.80631 18.0822,20.27791 l 8.318,4.15656 h 114.8828 c 100.40348,0 115.64942,-0.26119 120.96493,-2.07238 z M 236.1957,441.2126 c -11.5148,-2.22297 -21.5575,-10.57289 -26.2639,-21.83696 -1.5788,-3.77844 -1.9264,-14.31658 -1.9025,-57.66614 0.028,-50.45443 0.1617,-53.33562 2.7421,-59.04283 3.3546,-7.41936 9.5622,-14.04197 16.5227,-17.62732 6.8782,-3.54289 19.7162,-4.55097 26.7368,-2.09945 8.5227,2.97604 76.5468,47.20534 83.5407,54.31824 10.91856,11.10417 13.19998,26.76433 5.9688,40.97126 -1.802,3.5405 -4.6858,7.72411 -6.4084,9.29692 -4.3134,3.93835 -75.5166,49.79107 -80.4653,51.81726 -5.8848,2.40944 -13.8871,3.14006 -20.471,1.86902 z m 41.0837,-57.38918 c 18.363,-11.83046 33.3692,-21.88046 33.3472,-22.33334 -0.049,-1.01112 -63.7412,-41.98625 -66.1988,-42.58784 -1.432,-0.35054 -1.7611,7.68438 -1.7611,43 0,23.8871 0.2757,43.4311 0.6127,43.4311 0.337,0 15.637,-9.67947 34,-21.50992 z"
     id="path194"
     inkscape:connector-curvature="0" />
</svg>
