<?xml version="1.0" encoding="UTF-8" standalone="no"?>
<!-- Created with Inkscape (http://www.inkscape.org/) -->

<svg
   xmlns:dc="http://purl.org/dc/elements/1.1/"
   xmlns:cc="http://creativecommons.org/ns#"
   xmlns:rdf="http://www.w3.org/1999/02/22-rdf-syntax-ns#"
   xmlns:svg="http://www.w3.org/2000/svg"
   xmlns="http://www.w3.org/2000/svg"
   xmlns:sodipodi="http://sodipodi.sourceforge.net/DTD/sodipodi-0.dtd"
   xmlns:inkscape="http://www.inkscape.org/namespaces/inkscape"
   version="1.1"
   id="svg101"
   width="893.33337"
   height="893.33331"
   viewBox="0 0 893.33337 893.33331"
   sodipodi:docname="what-icon-5.svg"
   inkscape:version="0.92.4 (unknown)">

  <path
     style="stroke-width:1.33333325"
     d="m 52,891.39631 c 0,-1.22377 -3.1177,-2.87236 -8.4671,-4.47721 C 27.002,881.9597 11.7182,866.73851 6.3323,849.87074 4.7544,844.92906 2.8468,841.33331 1.8031,841.33331 0.3208,841.33331 0,832.67491 0,792.66665 c 0,-41.66694 0.2786,-48.66667 1.9371,-48.66667 1.2237,0 2.8723,-3.11776 4.4772,-8.46713 2.8584,-9.52787 10.8127,-21.17431 18.4876,-27.06891 2.804,-2.15356 9.2667,-5.98895 14.3616,-8.52309 l 9.2635,-4.60753 h 238.06983 c 217.63886,0 238.41315,0.18672 242.06987,2.17569 9.2261,5.01828 19.49543,10.52277 32.66667,17.50972 16.16913,8.57725 27.22965,14.548 36.66666,19.79357 3.66667,2.03812 9.66667,5.20913 13.33334,7.04669 3.66666,1.83756 13.26666,6.97483 21.33333,11.41614 8.06667,4.44132 17.66667,9.58557 21.33333,11.43169 22.40215,11.27915 29.04882,16.47565 31.48844,24.6184 1.40302,4.68285 1.21819,5.70561 -2.03381,11.25475 -2.49679,4.26044 -5.615,7.20856 -10.32512,9.7619 -3.71143,2.01196 -10.04104,5.45811 -14.0658,7.65811 -4.02477,2.2 -13.4106,7.23548 -20.8574,11.18995 -7.4468,3.95447 -16.53964,8.81926 -20.20631,10.81063 -3.66666,1.99138 -12.06666,6.49191 -18.66666,10.00116 -6.6,3.50927 -17.19718,9.26436 -23.5493,12.7891 -6.3521,3.52474 -13.5521,7.3658 -15.99999,8.53569 -2.44788,1.16988 -8.05071,4.15043 -12.45071,6.62341 -4.4,2.473 -11.15,6.01292 -15,7.8665 -3.99859,1.92512 -7,4.25916 -7,5.44352 0,1.86782 -23.46292,2.07337 -236.66666,2.07337 C 82.606,893.33331 52,893.08282 52,891.39631 Z m 60.0877,-36.77657 c 2.4907,-1.33296 2.579,-3.41912 2.579,-60.89501 0,-53.50803 -0.2227,-59.76087 -2.2066,-61.9531 -1.9877,-2.1963 -4.6769,-2.43832 -27.0943,-2.43832 -24.5335,0 -24.989,0.0521 -32.0142,3.66667 -4.5008,2.31568 -8.6419,5.80185 -11.2391,9.46169 L 38,748.25669 37.596,789.38982 c -0.2684,27.31715 0.096,42.98838 1.0832,46.65665 1.8097,6.72061 11.2305,16.61415 17.5554,18.4362 6.117,1.7622 52.6033,1.87628 55.8531,0.13707 z m 385.33332,0 c 2.49067,-1.33296 2.57902,-3.41912 2.57902,-60.89501 0,-53.50803 -0.22272,-59.76087 -2.20666,-61.9531 -2.11582,-2.33796 -9.216,-2.43832 -172.50339,-2.43832 -156.74609,0 -170.44239,0.17536 -172.12669,2.20376 -1.2678,1.52682 -1.9746,7.26823 -2.301,18.69047 -0.3869,13.53995 -0.083,17.07821 1.6974,19.79623 l 2.1685,3.30954 h 109.45438 109.45438 l 5.31225,2.98566 c 6.2581,3.51724 9.0688,8.28777 9.00358,15.28146 -0.0571,6.11698 -1.98092,9.81836 -7.25302,13.95423 l -3.96694,3.11199 -110.69972,0.3306 -110.69971,0.33061 -2.3334,2.81711 c -3.3713,4.07034 -3.4742,37.71763 -0.1266,41.41669 2.1157,2.3379 9.203,2.43832 172.08763,2.43832 114.55348,0 170.72094,-0.44952 172.46001,-1.38024 z m -66.41267,-47.47931 c -12.34228,-6.0845 -12.96331,-23.53817 -1.0852,-30.49921 7.06693,-4.14151 9.1012,-4.13309 16.26856,0.0673 7.13182,4.17952 8.47499,6.61002 8.47499,15.33556 0,6.03782 -0.52936,7.38054 -4.29736,10.90038 -7.16846,6.69634 -12.11466,7.76832 -19.36099,4.19601 z m 117.10839,30.71892 c 0.97712,-1.17735 4.80059,-3.56443 8.4966,-5.30461 3.69602,-1.74019 10.32003,-5.15293 14.72003,-7.58387 16.23245,-8.96818 34.86928,-18.92794 42,-22.44533 8.1873,-4.03857 13.33333,-8.34849 13.33333,-11.16699 0,-1.02898 -5.55,-4.63068 -12.33333,-8.00377 -6.78334,-3.37309 -15.93334,-8.10673 -20.33334,-10.51921 -4.4,-2.41247 -13.4,-7.272 -19.99999,-10.79896 -6.6,-3.52695 -15.9,-8.60923 -20.66667,-11.29392 -12.30167,-6.92862 -12.94263,-7.08463 -15.29684,-3.72352 -1.72525,2.46314 -2.03649,9.54585 -2.03649,46.34416 0,32.00628 0.42104,43.85769 1.6,45.03665 2.29,2.29 8.42942,1.97438 10.5167,-0.54063 z m 120.2938,-175.52603 -33.9032,-33.66667 -118.92032,-0.73487 -118.92031,-0.73486 -11.41374,-4.15858 c -13.15158,-4.79177 -18.32228,-7.77026 -29.63456,-17.07057 -10.18922,-8.37699 -19.5669,-21.39525 -25.1404,-34.90038 l -4.29233,-10.40074 -0.52231,-44.39404 -0.5223,-44.39404 5.27262,-5.27262 c 4.60315,-4.60315 6.0464,-5.27263 11.36675,-5.27263 8.20279,0 12.00596,1.97408 15.38459,7.98552 2.67142,4.75317 2.83769,6.91863 2.88153,37.52935 0.0544,37.97096 1.62031,49.95265 7.78212,59.54464 5.73916,8.93406 12.87132,15.35634 22.75036,20.48593 l 8.57899,4.45456 123.53635,0.66666 123.53636,0.66667 5.39011,3.73629 c 2.96456,2.05495 16.61906,15.10495 30.34333,29 19.98698,20.23568 25.6605,25.26371 28.50704,25.26371 2.84608,0 8.86192,-5.32903 30.20798,-26.75923 14.65979,-14.71757 28.75416,-27.83512 31.32083,-29.1501 3.64153,-1.86567 9.18,-2.5573 25.21257,-3.1485 19.75192,-0.72833 20.85972,-0.92037 28.66667,-4.96914 10.97512,-5.69183 18.71482,-13.45371 24.56928,-24.63969 l 4.88481,-9.33334 V 415.99999 279.33333 l -4.40735,-9.33334 c -7.7057,-16.31822 -19.48558,-25.74268 -36.53643,-29.23088 -8.39898,-1.71822 -20.52928,-2.10245 -66.37616,-2.10245 -61.49597,0 -61.77065,-0.0319 -68.40897,-7.921 -4.98015,-5.91856 -4.86034,-12.61181 0.35461,-19.81084 2.79331,-3.85605 5.24703,-5.70463 8.33333,-6.27812 2.40587,-0.44707 34.07431,-0.62436 70.37431,-0.394 l 66,0.41884 10.7767,4.77488 c 19.8602,8.79953 33.48464,20.53536 43.24856,37.25351 5.40764,9.25916 6.18692,11.14498 9.21091,22.29006 0.91621,3.37676 2.3241,5.66667 3.48401,5.66667 1.69412,0 1.94648,18.23759 1.94648,140.66666 0,122.49931 -0.25167,140.66667 -1.94861,140.66667 -1.17462,0 -2.52842,2.25081 -3.40834,5.66666 -2.74136,10.64202 -4.34636,14.99975 -6.82813,18.53916 -1.36487,1.94653 -2.48159,4.0798 -2.48159,4.74057 0,0.66078 -3.19193,5.06816 -7.09318,9.79418 -16.70542,20.23712 -39.258,31.37966 -66.24015,32.72722 -7.7,0.38458 -15.5,1.0068 -17.33333,1.38274 -2.06329,0.42309 -16.06589,13.34565 -36.75116,33.91649 l -33.41783,33.23297 h -7.75865 -7.75865 z M 564.00004,505.73676 c -5.18503,-2.12151 -10.72271,-7.72701 -11.92106,-12.06708 -1.53968,-5.57625 0.3312,-16.27804 3.90483,-22.33636 1.29772,-2.2 3.12731,-6.39701 4.06575,-9.32671 0.93845,-2.92969 3.11121,-7.96905 4.82837,-11.19858 1.71716,-3.22954 3.12519,-6.83252 3.12893,-8.00663 0.004,-1.1741 1.48504,-4.53474 3.29172,-7.46808 1.8067,-2.93333 3.30363,-6.26553 3.32651,-7.40488 0.0229,-1.13934 1.48773,-5.03934 3.25521,-8.66666 2.93372,-6.02071 6.1008,-13.44582 12.7656,-29.92846 1.33437,-3.3 4.64169,-11.1 7.34961,-17.33333 2.70794,-6.23333 6.29811,-14.63333 7.97818,-18.66667 9.39417,-22.5525 14.01988,-28 23.77606,-28 3.11131,0 7.01544,0.95154 8.67584,2.11454 5.48922,3.84478 12.58778,17.45372 20.2142,38.75345 1.35251,3.7774 3.34499,8.2774 4.42775,10 1.08275,1.72261 2.71369,5.53201 3.62432,8.46535 0.91064,2.93333 2.18068,5.99864 2.82233,6.8118 0.64166,0.81314 2.36028,4.94784 3.81918,9.1882 1.45889,4.24036 3.25889,8.44036 4,9.33333 0.7411,0.89297 2.51361,5.01307 3.9389,9.15576 1.4253,4.14269 3.52212,8.86089 4.6596,10.48488 1.1375,1.62399 2.06816,3.9014 2.06816,5.06091 0,1.1595 1.46146,5.07601 3.24768,8.70333 1.78623,3.62732 4.43059,9.59512 5.87636,13.26178 1.44578,3.66667 4.54486,11.16667 6.88685,16.66667 5.38634,12.64937 5.53947,18.38232 0.66183,24.77724 -4.10878,5.38691 -11.53552,9.1306 -15.92681,8.02845 -5.62141,-1.41088 -12.6236,-8.03644 -14.94277,-14.13902 -2.5418,-6.6884 -6.49547,-13.14188 -9.59806,-15.66667 -1.5108,-1.22944 -10.28862,-1.66189 -33.45992,-1.64847 -17.2765,0.0107 -32.76828,0.38168 -34.42616,0.82594 -2.14052,0.57357 -4.64213,4.09276 -8.62968,12.13997 -3.34617,6.75287 -7.29172,12.61088 -9.76369,14.49635 -4.39221,3.3501 -10.60009,4.95033 -13.92562,3.58965 z m 81.91319,-67.0371 c 4.17874,-1.58875 4.48444,-5.9299 0.75347,-10.69967 -1.43405,-1.83333 -2.62071,-4.24861 -2.63701,-5.36728 -0.0163,-1.11867 -1.81083,-5.61867 -3.98782,-10 -2.17698,-4.38133 -3.97698,-8.94959 -4,-10.15168 -0.0679,-3.54529 -4.46174,-8.0812 -6.91589,-7.13945 -2.4022,0.92181 -4.98357,5.72542 -13.15831,24.48601 -6.03974,13.86088 -6.29621,17.60352 -1.30097,18.98484 5.15009,1.42413 27.41553,1.34377 31.24653,-0.1128 z m -451.24652,54.48522 c -1.83333,-0.722 -17.73331,-15.64695 -35.33331,-33.16655 -17.6,-17.51959 -33.6891,-32.49083 -35.7535,-33.26941 -2.0644,-0.77858 -12.8644,-1.42013 -24,-1.42566 -31.0887,-0.0155 -41.0574,-2.52786 -60.0494,-15.13404 -12.3832,-8.2195 -29.4454,-30.30807 -32.074,-41.52256 -2.6644,-11.36739 -3.7001,-14 -5.5078,-14 C 0.2518,354.66666 0,336.58118 0,214.66666 0,91.111108 0.235,74.666665 2,74.666665 c 1.1,0 2.0175,-0.45 2.0389,-1 0.021,-0.55 1.1058,-4.9 2.4098,-9.666667 7.1939,-26.294984 32.38,-51.131093 58.659,-57.8438187 4.6426,-1.1858986 8.6926,-2.1561794 9,-2.1561794 0.3075,0 0.559,-0.9 0.559,-2 C 74.6667,0.23063441 99.0371,0 286.00004,0 c 184.38029,0 211.33333,0.24824997 211.33333,1.9464779 0,1.1599035 2.28991,2.5677974 5.66667,3.4840114 11.14996,3.0253107 13.03276,3.8043521 22.36024,9.2518947 16.81584,9.820975 29.64382,25.096092 37.73844,44.937613 l 4.23465,10.380001 V 214.66666 359.33332 l -4.37703,10.33123 c -10.20282,24.08205 -24.52614,38.84924 -48.28964,49.78608 l -11.33333,5.21603 -110.66666,0.66666 c -81.07212,0.48839 -111.37979,1.08415 -113.33333,2.22779 -1.46667,0.85863 -16.16667,15.15428 -32.66667,31.76813 -16.5,16.61385 -32.22609,31.36135 -34.94688,32.77221 -5.33919,2.76863 -11.74123,3.17538 -17.05312,1.08343 z m 39.27604,-71.82542 c 27.51465,-27.40634 28.22989,-28.00147 35.25285,-29.33334 4.49135,-0.85177 46.50835,-1.35946 112.50935,-1.35946 102.30939,0 105.60494,-0.0787 114.5151,-2.73219 17.86855,-5.32149 31.60212,-20.59208 35.12111,-39.05177 2.95868,-15.5205 2.96913,-254.208909 0.012,-269.665483 -3.07991,-16.096144 -12.37804,-28.153818 -28.01979,-36.335349 l -9.33333,-4.881869 H 285.33338 76.6667 l -9.5198,5.126729 C 55.5206,49.387876 49.8029,55.148124 43.1194,67.333332 L 38,76.666665 V 213.99999 351.33332 l 4.8717,9.37858 c 4.5202,8.70194 12.1937,17.32801 19.91,22.3816 1.7701,1.15926 7.1183,3.32973 11.885,4.82326 7.2984,2.28676 12.2876,2.7182 31.601,2.7327 36.0679,0.0271 32.0386,-1.89274 64.7566,30.85345 22.1246,22.14364 28.52446,27.83041 31.32024,27.83041 2.79205,0 9.28204,-5.74557 31.59821,-27.97386 z m 21.28741,-116.74335 c -24.97757,-7.4219 -43.07702,-24.45148 -53.08752,-49.94945 -3.77636,-9.61887 -3.94738,-11.00155 -4.48738,-36.27811 -0.32871,-15.38609 0.003,-28.64977 0.8,-31.99999 6.98704,-29.36622 24.09734,-49.89822 50.42896,-60.51367 11.15297,-4.49626 12.2635,-4.67824 28.36165,-4.64758 17.78165,0.0339 20.29353,0.49694 32.50599,5.99265 16.78614,7.55392 30.44438,20.7065 39.42187,37.96238 7.21179,13.86195 8.71851,24.77666 7.83762,56.77561 -0.62942,22.86367 -1.18716,26.52016 -5.65635,37.08198 -1.00747,2.38089 -0.50461,2.92977 15.14968,16.53637 3.76045,3.26857 4.61425,5.05619 5.16815,10.82077 0.87373,9.09308 -1.33606,14.15146 -7.46247,17.08219 -8.06508,3.85815 -17.23764,2.05881 -24.87699,-4.87999 -5.93088,-5.387 -9.86678,-6.52798 -15.57336,-4.51458 -2.89822,1.02254 -7.02814,3.11144 -9.17759,4.642 -2.14946,1.53054 -9.15982,4.23572 -15.57858,6.01149 -15.41364,4.26425 -29.14086,4.22597 -43.77368,-0.12213 z m 36.69915,-34.53089 c 2.1932,-2.64265 0.26219,-5.84788 -7.21375,-11.97384 -10.35485,-8.48503 -12.62749,-16.55725 -7.00882,-24.89479 6.96829,-10.34025 17.87273,-10.52704 31.49048,-0.5394 5.56385,4.08068 10.19862,4.27644 12.21127,0.51578 2.52763,-4.72291 0.91692,-38.98762 -2.25316,-47.93173 -7.26526,-20.49838 -28.71166,-32.50267 -50.15518,-28.07358 -4.52313,0.93424 -9.74853,2.49811 -11.612,3.47528 -6.40589,3.35914 -14.06261,11.04839 -18.72144,18.801 l -4.66667,7.76564 v 26.71855 c 0,30.75184 0.37143,32.12868 11.91642,44.17308 10.40312,10.85313 17.43226,13.87878 32.24305,13.87878 8.95971,0 12.60089,-0.50633 13.7698,-1.91477 z m 329.69976,-34.24423 c -6.74754,-3.33997 -8.26237,-5.74954 -8.60806,-13.6925 -0.49903,-11.4659 7.46636,-19.04152 18.69092,-17.77635 16.34114,1.84189 20.32026,23.87291 5.65224,31.29452 -7.30583,3.69655 -8.5906,3.71079 -15.7351,0.17433 z"
     id="path173"
     inkscape:connector-curvature="0" />
</svg>
