<?xml version="1.0" encoding="UTF-8" standalone="no"?>
<!-- Created with Inkscape (http://www.inkscape.org/) -->

<svg
   xmlns:dc="http://purl.org/dc/elements/1.1/"
   xmlns:cc="http://creativecommons.org/ns#"
   xmlns:rdf="http://www.w3.org/1999/02/22-rdf-syntax-ns#"
   xmlns:svg="http://www.w3.org/2000/svg"
   xmlns="http://www.w3.org/2000/svg"
   xmlns:sodipodi="http://sodipodi.sourceforge.net/DTD/sodipodi-0.dtd"
   xmlns:inkscape="http://www.inkscape.org/namespaces/inkscape"
   version="1.1"
   id="svg121"
   width="918.90723"
   height="919.29156"
   viewBox="0 0 918.90723 919.29156"
   sodipodi:docname="what-icon-6.svg"
   inkscape:version="0.92.4 (unknown)">

  <path
     style="stroke-width:1.33333337"
     d="m 325.15001,917.60331 c -12.36739,-3.8651 -24.40139,-13.75832 -29.34459,-24.12438 l -2.1974,-4.60796 h -71.1292 c -74.8044,0 -76.8575,-0.15066 -81.7102,-5.99605 -1.6511,-1.98889 -2.1163,-9.74631 -2.6667,-44.47052 l -0.6666,-42.06136 -12.5653,-2.46665 C 63.650816,781.8586 18.443416,738.52681 3.178816,677.23413 c -3.9228,-15.75157 -4.2851,-49.28968 -0.6953,-64.36316 11.4384,-48.02946 39.5995,-85.17858 79.9816,-105.50905 25.317004,-12.74593 40.126804,-16.18957 70.703504,-16.44027 l 23.7334,-0.1946 63.2666,-63.2561 c 34.7967,-34.79087 63.2667,-63.97358 63.2667,-64.85046 0,-0.87689 -3.0693,-5.07925 -6.8205,-9.3386 -14.0101,-15.90764 -28.6067,-40.47093 -37.7315,-63.49526 -5.0622,-12.77312 -8.6747,-27.08676 -11.3361,-44.91566 l -2.2889,-15.33333 -73.0276,-0.66667 -73.027704,-0.66666 -3.0096,-3.49968 c -1.6553,-1.92483 -16.0317,-32.87628 -31.9475,-68.78102 l -28.9378,-65.28132 -7.1887,-2.979536 c -10.3617,-4.294705 -18.4747,-12.018185 -23.6351,-22.5006 -3.8501,-7.820685 -4.3824,-10.200611 -4.3824,-19.596479 0,-8.769347 0.6326,-12.043723 3.5136,-18.188052 4.9458,-10.547833 11.9931,-17.7691637 22.277,-22.8270717 7.752,-3.81262196 10.1528,-4.34624596 19.5536,-4.34624596 9.403,0 11.7984,0.532727 19.5427,4.34624596 14.8192,7.2973837 24.6161,21.3837457 26.077,37.4944247 1.3051,14.392702 -6.2402,31.040591 -17.8824,39.455642 -3.0718,2.220361 -5.6218,4.427208 -5.6667,4.904105 -0.1114,1.186219 47.884104,109.554767 49.061304,110.774727 0.5175,0.53634 29.6979,1.00907 64.8454,1.05055 l 63.9045,0.0753 2.297,-15.7172 c 6.3649,-43.55177 25.3972,-83.145361 55.1706,-114.7735 32.06721,-34.06488 70.17258,-55.122591 116.73854,-64.5118317 21.63606,-4.362542 57.9574,-4.409814 79.23456,-0.103122 37.30184,7.5502357 72.86444,24.5893737 99.23403,47.5460967 4.71204,4.102193 9.2018,7.458532 9.97723,7.458532 0.77544,0 7.58068,-6.15 15.12276,-13.666666 l 13.71288,-13.666667 96.63602,-0.358948 96.63603,-0.358948 1.92737,-4.612833 c 2.95248,-7.066305 13.57362,-17.5519997 21.9185,-21.6390257 6.533,-3.19962896 9.05162,-3.66790396 19.50185,-3.62589196 9.41156,0.03784 13.36869,0.673372 18.34527,2.94634396 8.84702,4.040741 18.71629,13.7204037 23.15965,22.7147257 3.26328,6.605585 3.75995,9.17308 3.79179,19.601244 0.0341,11.175962 -0.27775,12.579852 -4.5415,20.444074 -14.91086,27.502193 -48.9325,33.877955 -71.36672,13.374348 -3.95678,-3.616287 -8.49141,-9.254822 -10.07693,-12.530078 l -2.88277,-5.955012 H 739.6184 649.37273 l -10.51155,10.573555 -10.51153,10.573555 8.19613,11.966684 c 18.61535,27.179125 29.81836,56.007445 34.68728,89.259545 l 2.20223,15.04 83.33333,-0.0179 c 45.83334,-0.009 85.67783,0.53027 88.54331,1.20028 2.86548,0.67 6.76548,2.77204 8.66667,4.6712 3.33022,3.32668 3.48108,4.16503 4.12336,22.91389 l 0.66666,19.46088 7.60307,2.34854 c 22.55361,6.96665 42.10171,26.67233 49.32801,49.72565 4.32412,13.79484 4.27088,32.80072 -0.1276,45.54801 -4.51348,13.08059 -10.65326,22.91548 -19.67857,31.52175 -16.34187,15.58312 -30.91756,21.63357 -52.45824,21.77571 -17.79312,0.11746 -29.05633,-3.18344 -43.24549,-12.67374 -40.31124,-26.9618 -45.76752,-82.90186 -11.43482,-117.23456 8.98811,-8.98812 22.45728,-17.10449 33.0755,-19.93093 l 5.72853,-1.52485 -0.3952,-8.2653 -0.39519,-8.26527 h -76.63018 -76.63019 l -2.23871,15.33333 c -1.23128,8.43334 -3.46344,19.94538 -4.96036,25.58232 -7.48398,28.18263 -24.71,60.43706 -44.72862,83.75102 -4.09291,4.76666 -7.44998,9.16776 -7.46014,9.7802 -0.0164,0.98804 17.98324,24.17012 80.0205,103.06002 l 17.96104,22.84023 10,0.93811 c 99.02792,9.28984 175.26572,79.17374 194.23636,178.0481 3.63208,18.9303 3.33654,55.65876 -0.60618,75.33334 -17.7138,88.39372 -83.1202,153.85157 -171.47761,171.61249 -21.43048,4.30779 -57.80964,4.30741 -79.15977,-8.3e-4 -88.02019,-17.76153 -152.43858,-81.84773 -171.16096,-170.27833 -2.64316,-12.48431 -3.10552,-18.53539 -3.1073,-40.66667 -0.003,-29.4144 2.16754,-43.31866 10.79239,-69.15572 13.71373,-41.08152 42.73593,-80.13484 78.5736,-105.7315 22.97632,-16.41059 54.83693,-30.13971 82.05027,-35.35644 6.52256,-1.25036 11.84053,-2.60704 11.81772,-3.01486 -0.10324,-1.84581 -83.05394,-106.07481 -84.41967,-106.07481 -0.84637,0 -6.63885,3.38848 -12.87219,7.52996 -23.51246,15.62189 -49.57956,26.20584 -78.76544,31.98092 -21.6858,4.29101 -55.44998,4.29101 -77.13578,0 -29.93238,-5.92279 -55.28635,-16.3472 -80.58775,-33.13404 l -13.15565,-8.72845 -58.72278,58.72276 -58.7227,58.72274 11.9098,5.98147 c 65.4579,32.87493 98.7691,108.89837 78.4457,179.03023 -16.5912,57.2527 -66.4317,100.85064 -124.9321,109.28417 l -6.3333,0.91303 v 31.19512 31.19513 l 62.219,-0.34652 62.219,-0.34652 2.5782,-4.66667 c 4.3763,-7.92141 8.8273,-13.09929 14.6904,-17.0896 23.73304,-16.15202 55.09532,-7.90074 67.7614,17.82775 9.70678,19.71723 3.02103,44.72372 -15.2663,57.10011 -11.96039,8.09446 -25.86767,10.62956 -37.82031,6.89408 z m 17.48719,-30.5915 c 6.02258,-2.5164 8.79809,-6.9027 8.79809,-13.90418 0,-4.85999 -0.75857,-6.59523 -4.53333,-10.36999 -3.7164,-3.7164 -5.54248,-4.53333 -10.13334,-4.53333 -4.59085,0 -6.41693,0.81693 -10.13333,4.53333 -7.84487,7.84487 -5.81337,19.95403 4.06987,24.25899 5.21004,2.2694 6.53293,2.27108 11.93204,0.0152 z m 396.79809,-2.17177 c 23.46993,-4.78053 49.55455,-15.32096 66.11963,-26.71804 l 6.08092,-4.18379 -0.4336,-25.53361 c -0.39399,-23.19997 -0.71014,-26.13323 -3.45911,-32.09408 -6.29308,-13.64588 -18.08989,-24.00745 -32.0542,-28.15441 -5.08731,-1.51076 -11.99577,-1.92746 -27.39961,-1.65263 l -20.59715,0.36749 11.20489,27.96895 c 7.49974,18.72035 11.2049,29.72655 11.2049,33.28415 0,5.06953 -0.91131,6.22652 -19.71586,25.03105 -18.92897,18.92899 -19.93205,19.71585 -25.13328,19.71585 -3.88757,0 -6.8859,-1.08925 -10.61748,-3.85721 -9.09913,-6.74943 -32.35018,-31.29085 -34.45057,-36.36249 -2.48788,-6.00734 -2.1602,-7.19518 11.07013,-40.12956 5.23255,-13.02544 9.51372,-24.325 9.51372,-25.11015 0,-0.97659 -7.28968,-1.28744 -23.07641,-0.98405 l -23.07641,0.44346 -8.95002,4.54624 c -10.16712,5.16447 -17.69089,12.64048 -23.14708,23.00015 -3.6881,7.00261 -3.75724,7.55481 -4.18304,33.41605 l -0.43297,26.29579 9.55284,6.17969 c 22.73833,14.70936 52.72617,24.69986 83.31309,27.75588 10.34888,1.03399 36.15282,-0.67582 48.66667,-3.22473 z m -28.04784,-55.25365 5.84072,-5.95126 -3.78292,-9.71541 c -2.0806,-5.34348 -4.93415,-12.41541 -6.3412,-15.71541 l -2.55829,-6 -5.88858,14.60776 c -3.2387,8.03426 -5.88856,15.21156 -5.88856,15.94953 0,1.41701 10.66906,12.77604 12,12.77604 0.42796,0 3.40644,-2.67807 6.61883,-5.95125 z M 567.43529,813.01143 c 0,-33.93336 27.12699,-67.57216 60.39419,-74.89179 4.25014,-0.93513 7.97658,-2.10323 8.28098,-2.59576 0.3044,-0.49252 -1.24009,-2.22152 -3.4322,-3.84221 -6.31122,-4.6661 -19.31264,-21.89163 -24.50453,-32.46598 -8.21061,-16.72257 -10.48399,-28.8896 -9.76307,-52.25168 0.78598,-25.47094 4.10159,-40.28846 13.278,-59.33977 5.68439,-11.80143 8.25778,-15.44447 16.95327,-24 16.49287,-16.22737 34.91357,-24.09685 62.57476,-26.73244 53.48225,-5.09584 93.52487,16.2612 110.31419,58.83692 6.83908,17.34308 9.0374,30.60348 9.14154,55.14225 0.0872,20.55382 -0.20082,23.53667 -3.0903,32 -6.5128,19.07615 -19.60963,39.8725 -30.19496,47.94631 -2.54019,1.93751 -4.61854,3.97216 -4.61854,4.52144 0,0.54929 3.75,1.76949 8.33334,2.71155 12.93942,2.65956 25.55444,9.93688 37.14601,21.42868 15.52149,15.3879 22.39829,30.32145 23.51221,51.05869 0.38407,7.15 1.2236,13 1.86564,13 2.54355,0 18.86271,-24.15971 25.66788,-38 13.91974,-28.30987 18.60191,-48.82373 18.56386,-81.33333 -0.034,-29.08848 -2.77755,-43.2589 -13.55256,-70 -22.62847,-56.15871 -71.0315,-95.92176 -134.20304,-110.2477 -16.42678,-3.72524 -56.7969,-3.33578 -74,0.7139 -36.40678,8.57028 -65.80498,24.74752 -91.29563,50.23817 -26.22749,26.22749 -42.0452,55.59911 -50.24316,93.29563 -3.90844,17.97208 -4.20835,53.09205 -0.59777,70 5.22344,24.46072 13.78168,46.02684 25.48365,64.21678 7.46379,11.60198 15.00739,21.11655 16.74217,21.11655 0.68424,0 1.24407,-4.7368 1.24407,-10.52621 z m -384.99267,-51.0917 c 6.4208,-1.5435 16.0208,-4.9609 21.3334,-7.59424 l 9.6593,-4.78785 0.4085,-16.66667 c 0.6705,-27.35417 -3.281,-40.2562 -16.8019,-54.86048 -28.2006,-30.46 -80.0673,-23.07972 -98.269404,13.98308 -6.0428,12.30424 -7.5076,20.83475 -7.046,41.03331 l 0.3754,16.43105 5.3025,2.97178 c 8.123104,4.55261 28.954604,11.04538 39.714804,12.37836 13.1853,1.63341 31.3216,0.47764 45.3234,-2.88834 z m 535.65934,-29.30429 c 6.83217,-1.99739 20.70046,-9.76829 29.4547,-16.50453 14.80714,-11.39383 27.7488,-29.23307 31.65856,-43.63923 l 1.37487,-5.06596 -8.91073,-5.67128 c -4.90091,-3.11921 -17.17995,-10.62483 -27.28675,-16.67916 l -18.37603,-11.00787 -5.86837,6.03812 c -15.34427,15.7881 -41.95615,26.70332 -76.67527,31.44943 -6.21262,0.84927 -11.78002,1.84345 -12.37198,2.20931 -0.59196,0.36585 1.49109,5.56178 4.62901,11.54652 10.01572,19.10224 29.43087,36.30486 50.37199,44.63165 13.93254,5.53997 20.40008,6.08425 32,2.693 z M 61.322716,712.03039 c 1.2056,-13.30412 5.8587,-27.66599 12.6878,-39.16102 6.0622,-10.2042 19.3075,-24.15273 27.853004,-29.33173 6.1657,-3.73677 6.7004,-5.23196 3.0517,-8.53397 -4.4145,-3.99507 -11.044304,-19.33726 -12.544504,-29.0296 -6.1874,-39.97418 29.920504,-75.86047 69.716204,-69.28834 13.5307,2.23454 23.2448,7.29803 33.4852,17.45416 10.0682,9.9853 13.6732,16.2608 16.68,29.03599 3.9844,16.92911 0.2091,36.23979 -9.5964,49.08581 -5.3764,7.04335 -5.4917,7.75275 -1.5538,9.55171 5.8588,2.67639 18.1261,13.74821 24.3856,22.00905 11.1038,14.65407 17.0343,30.08634 18.7799,48.86908 0.4863,5.23203 1.248,9.50366 1.6927,9.49252 1.8999,-0.0476 11.6073,-14.90273 16.977,-25.97974 33.2981,-68.68908 -3.3206,-149.73618 -77.5018,-171.53252 -9.4538,-2.77778 -13.244,-3.12094 -33.3334,-3.01791 -20.5081,0.1052 -23.7066,0.44537 -33.5871,3.57252 -42.634904,13.49385 -73.206004,45.28023 -84.639604,88.00423 -2.3643,8.83482 -2.9367,14.61194 -2.9367,29.64034 0,20.74463 2.5151,33.35399 9.9487,49.87698 3.9298,8.73504 17.0654,29.45636 18.6729,29.45636 0.4624,0 1.2556,-4.57827 1.7626,-10.17392 z M 641.17989,640.76445 c 23.74585,-3.56572 44.86169,-11.23921 54.70121,-19.87842 2.78234,-2.44292 6.46086,-7.19568 8.17451,-10.5617 5.63893,-11.07622 12.88253,-15.08962 21.06448,-11.67098 2.40565,1.00514 15.08537,8.24064 28.17715,16.07888 13.09178,7.83824 24.13926,13.91532 24.54996,13.50462 0.41069,-0.4107 -0.0396,-3.88604 -1.00074,-7.72297 -9.10908,-36.36573 -31.72545,-53.25491 -71.3976,-53.31739 -17.5625,-0.0277 -27.72637,1.87215 -39.31021,7.3478 -19.98423,9.44652 -32.53791,30.43346 -36.68353,61.32668 -0.96808,7.21408 -1.69867,6.90916 11.72477,4.89348 z M 165.43532,625.00451 c 15.7733,-7.31854 22.2403,-25.76747 14.4865,-41.32719 -10.5644,-21.20012 -39.3046,-22.65497 -52.7273,-2.66911 -9.8289,14.63494 -3.4146,36.6347 12.833,44.01459 7.0548,3.20436 18.4799,3.19613 25.4078,-0.0183 z M 492.67006,394.82264 c 6.17914,-1.17892 16.07914,-3.64899 22,-5.48904 13.0351,-4.05097 37.68039,-16.00184 46.61212,-22.60289 l 6.51358,-4.8139 -0.72644,-22.18958 c -0.47524,-14.5165 -1.45008,-24.51767 -2.81912,-28.9221 -4.68943,-15.08672 -18.92842,-28.88861 -34.23571,-33.18476 -9.73603,-2.73252 -46.5792,-3.01685 -46.5792,-0.35948 0,0.9478 4.8,13.67234 10.66667,28.27675 14.53172,36.17509 14.72244,33.81851 -4.33334,53.54332 -8.25,8.53965 -17.34002,17.23591 -20.20005,19.325 -5.80845,4.24275 -12.1072,4.92143 -17.86616,1.92503 -6.13988,-3.1946 -37.57645,-36.17591 -37.80781,-39.66563 -0.42539,-6.41599 0.50456,-9.44721 10.90214,-35.53659 5.8512,-14.6817 10.63855,-27.34585 10.63855,-28.14257 0,-0.97769 -6.45555,-1.44856 -19.85955,-1.44856 -16.16777,0 -21.43478,0.49687 -28.33333,2.6728 -15.0586,4.7498 -26.07588,15.43019 -32.18599,31.20177 -2.12161,5.47639 -2.76172,11.22082 -3.30444,29.65464 l -0.6731,22.86255 5.84488,4.24723 c 20.48532,14.88582 53.65777,27.42268 81.1782,30.67964 13.53573,1.6019 40.848,0.58404 54.5681,-2.03363 z m 370.28815,-32.61219 c 9.68459,-4.7677 16.80469,-12.19122 21.59264,-22.5128 4.92684,-10.621 4.94569,-25.65894 0.0453,-36.22085 -14.25566,-30.72615 -52.42393,-37.44228 -75.08797,-13.21257 -9.50045,10.15674 -12.07019,16.8501 -12.00661,31.27341 0.0627,14.20547 2.66896,21.18451 11.48206,30.74559 13.90151,15.08136 35.45319,19.04524 53.97448,9.92722 z M 465.82434,339.15384 c 3.08603,-3.14443 5.61095,-6.16411 5.61095,-6.7104 0,-2.31048 -11.04083,-28.9058 -12,-28.9058 -0.95917,0 -12,26.59532 -12,28.9058 0,1.17349 10.86688,12.42753 12,12.42753 0.42796,0 3.30304,-2.5727 6.38905,-5.71713 z M 321.51262,323.99773 c 1.4501,-23.93092 10.02988,-42.29776 27.17267,-58.16896 8.99791,-8.33048 23.33772,-15.94802 34.80529,-18.48916 4.00292,-0.88702 7.47364,-1.75094 7.71272,-1.91982 0.23907,-0.16888 -2.33237,-2.85764 -5.71432,-5.975 -21.03072,-19.38544 -33.02002,-47.38364 -32.89017,-76.80727 0.22775,-51.61 18.92081,-89.043063 52.67736,-105.486962 18.26447,-8.897206 25.56849,-10.281263 54.15912,-10.262748 23.51347,0.01523 26.95636,0.315805 36,3.142931 39.74597,12.424961 61.33509,39.069621 68.68981,84.774929 4.12911,25.66006 2.28311,48.85388 -5.39156,67.74136 -4.52322,11.13169 -16.75193,28.98625 -24.82296,36.2428 -3.76522,3.38526 -6.61249,6.33097 -6.32724,6.54601 0.28524,0.21505 3.79374,1.11675 7.79666,2.00377 13.68704,3.03295 26.48296,10.34328 37.44732,21.39371 15.59094,15.71335 23.21732,32.78991 24.32369,54.46428 0.2712,5.31299 0.76315,9.93001 1.09321,10.26008 0.96363,0.96363 14.6319,-18.17083 21.49351,-30.08912 17.69445,-30.73447 26.09792,-70.30209 22.54272,-106.14216 -7.90677,-79.70854 -61.61117,-142.162281 -139.44643,-162.16455 -15.43225,-3.965815 -17.14261,-4.127468 -43.39873,-4.101804 -25.20549,0.02464 -28.45703,0.307338 -41.76781,3.631453 -35.71848,8.920013 -64.17284,25.07314 -89.66039,50.898903 -24.86347,25.193448 -41.45627,56.464008 -48.62387,91.636188 -9.2608,45.44365 -0.3447,95.62461 23.6982,133.37669 5.7041,8.95644 16.7788,23.72053 17.3584,23.14097 0.2858,-0.28586 0.7686,-4.6268 1.0728,-9.64652 z m 147.92267,-80.94189 c 20.11541,-5.38135 46.36999,-25.59763 57.16469,-44.01737 4.26915,-7.28476 9.1218,-20.62526 8.10246,-22.2746 -0.76411,-1.23635 -48.27172,-30.00546 -51.75916,-31.34371 -1.44759,-0.55548 -4.6149,1.41347 -9.59404,5.96413 -16.49314,15.0738 -42.66963,25.43927 -74.91395,29.66472 -8.71952,1.14266 -12.33333,2.14771 -12.33333,3.43008 0,2.87062 6.5222,14.98526 12.02545,22.33664 13.10692,17.50858 30.13137,29.29271 51.30788,35.51472 9.86167,2.89754 11.63949,2.96202 20,0.72539 z m -69.99527,-93.36896 c 13.75883,-2.23359 28.63075,-6.55537 38.28056,-11.12433 9.3476,-4.42588 19.8068,-13.91057 21.71467,-19.69144 2.22665,-6.74685 8.3268,-11.33347 15.07336,-11.33347 4.68985,0 9.47544,2.36095 31.33003,15.45656 14.18705,8.50111 26.18132,15.06989 26.65392,14.59729 1.39281,-1.39282 -3.42112,-17.77817 -7.89022,-26.8562 -6.84246,-13.899024 -18.06297,-23.798633 -33.83372,-29.850761 -10.92809,-4.193728 -42.36908,-5.439527 -55.08232,-2.182548 -22.69464,5.814098 -37.39893,19.072318 -45.46305,40.992059 -2.21696,6.02611 -6.78796,26.67084 -6.78796,30.65756 0,1.60601 2.71059,1.49344 16.00473,-0.66472 z M 52.812216,58.848402 c 13.614,-7.040027 8.0038,-28.644096 -7.4383,-28.644096 -8.5518,0 -16.3427,9.440092 -14.6873,17.796296 2.0939,10.570124 12.6523,15.746673 22.1256,10.8478 z M 883.12154,56.306757 c 4.38434,-4.017954 4.98042,-5.306838 4.98042,-10.769118 0,-5.462281 -0.59608,-6.751166 -4.98042,-10.769119 -5.57666,-5.110626 -10.63758,-5.864474 -17.06322,-2.541645 -10.1558,5.251764 -10.31874,21.106118 -0.27294,26.556912 6.27123,3.40273 11.77895,2.615774 17.33616,-2.47703 z"
     id="path131"
     inkscape:connector-curvature="0" />
</svg>
